ChaiSans-Regular.ufo
<glyph name="临字旁" format="2">
	<unicode hex="E001"/>
	<advance width="1000"/>
	<outline>
		<contour>
			<point x="353" y="725" type="line"/>
			<point x="424" y="725" type="line"/>
			<point x="424" y="58" type="line"/>
			<point x="353" y="58" type="line"/>
		</contour>
		<contour>
			<point x="519" y="834" type="line"/>
			<point x="593" y="834" type="line"/>
			<point x="593" y="-66" type="line"/>
			<point x="519" y="-66" type="line"/>
		</contour>
	</outline>
</glyph>
<glyph name="举字底" format="2">
	<unicode hex="E002"/>
	<advance width="1000"/>
	<outline>
		<contour>
			<point x="492" y="618" type="line"/>
			<point x="492" y="469" type="line"/>
			<point x="270" y="469" type="line"/>
			<point x="270" y="403" type="line"/>
			<point x="492" y="403" type="line"/>
			<point x="492" y="282" type="line"/>
			<point x="156" y="282" type="line"/>
			<point x="156" y="215" type="line"/>
			<point x="492" y="215" type="line"/>
			<point x="492" y="24" type="line"/>
			<point x="570" y="24" type="line"/>
			<point x="570" y="215" type="line"/>
			<point x="887" y="215" type="line"/>
			<point x="887" y="282" type="line"/>
			<point x="570" y="282" type="line"/>
			<point x="570" y="403" type="line"/>
			<point x="789" y="403" type="line"/>
			<point x="789" y="469" type="line"/>
			<point x="570" y="469" type="line"/>
			<point x="570" y="618" type="line"/>
		</contour>
	</outline>
</glyph>
<glyph name="寿字头" format="2">
	<unicode hex="E003"/>
	<advance width="1000"/>
	<outline>
		<contour>
			<point x="438" y="786" type="line"/>
			<point x="426" y="696" type="line"/>
			<point x="109" y="696" type="line"/>
			<point x="109" y="629" type="line"/>
			<point x="410" y="629" type="line"/>
			<point x="395" y="547" type="line"/>
			<point x="148" y="547" type="line"/>
			<point x="148" y="485" type="line"/>
			<point x="375" y="485" type="line"/>
			<point x="367" y="458"/>
			<point x="355" y="426"/>
			<point x="344" y="399" type="curve"/>
			<point x="51" y="399" type="line"/>
			<point x="51" y="333" type="line"/>
			<point x="316" y="333" type="line"/>
			<point x="254" y="204"/>
			<point x="164" y="98"/>
			<point x="39" y="28" type="curve"/>
			<point x="59" y="12"/>
			<point x="90" y="-19"/>
			<point x="102" y="-31" type="curve"/>
			<point x="195" y="32"/>
			<point x="270" y="110"/>
			<point x="328" y="204" type="curve"/>
			<point x="348" y="231" type="line"/>
			<point x="367" y="262"/>
			<point x="383" y="297"/>
			<point x="398" y="333" type="curve"/>
			<point x="945" y="333" type="line"/>
			<point x="945" y="399" type="line"/>
			<point x="426" y="399" type="line"/>
			<point x="434" y="426"/>
			<point x="445" y="458"/>
			<point x="453" y="485" type="curve"/>
			<point x="852" y="485" type="line"/>
			<point x="852" y="547" type="line"/>
			<point x="469" y="547" type="line"/>
			<point x="488" y="629" type="line"/>
			<point x="891" y="629" type="line"/>
			<point x="891" y="696" type="line"/>
			<point x="504" y="696" type="line"/>
			<point x="516" y="778" type="line"/>
		</contour>
	</outline>
</glyph>
<glyph name="与无横" format="2">
	<unicode hex="E004"/>
	<advance width="1000"/>
	<outline>
		<contour>
			<point x="262" y="836" type="line"/>
			<point x="238" y="700"/>
			<point x="195" y="512"/>
			<point x="164" y="399" type="curve"/>
			<point x="230" y="399" type="line"/>
			<point x="246" y="399" type="line"/>
			<point x="809" y="399" type="line"/>
			<point x="785" y="168"/>
			<point x="758" y="67"/>
			<point x="723" y="36" type="curve"/>
			<point x="711" y="24"/>
			<point x="695" y="24"/>
			<point x="672" y="24" type="curve"/>
			<point x="641" y="24"/>
			<point x="563" y="24"/>
			<point x="484" y="32" type="curve"/>
			<point x="500" y="8"/>
			<point x="512" y="-19"/>
			<point x="512" y="-42" type="curve"/>
			<point x="586" y="-46"/>
			<point x="656" y="-50"/>
			<point x="691" y="-46" type="curve"/>
			<point x="734" y="-46"/>
			<point x="762" y="-39"/>
			<point x="789" y="-11" type="curve"/>
			<point x="832" y="32"/>
			<point x="859" y="149"/>
			<point x="891" y="434" type="curve"/>
			<point x="891" y="446"/>
			<point x="895" y="469"/>
			<point x="895" y="469" type="curve"/>
			<point x="262" y="469" type="line"/>
			<point x="273" y="524"/>
			<point x="289" y="586"/>
			<point x="301" y="649" type="curve"/>
			<point x="879" y="649" type="line"/>
			<point x="879" y="723" type="line"/>
			<point x="316" y="723" type="line"/>
			<point x="336" y="829" type="line"/>
		</contour>
	</outline>
</glyph>
<glyph name="享字头" format="2">
	<unicode hex="E006"/>
	<advance width="1000"/>
	<outline>
		<contour>
			<point x="266" y="508" type="line"/>
			<point x="738" y="508" type="line"/>
			<point x="738" y="418" type="line"/>
			<point x="266" y="418" type="line"/>
		</contour>
		<contour>
			<point x="191" y="563" type="line"/>
			<point x="191" y="364" type="line"/>
			<point x="816" y="364" type="line"/>
			<point x="816" y="563" type="line"/>
		</contour>
		<contour>
			<point x="434" y="774" type="line"/>
			<point x="445" y="750"/>
			<point x="457" y="723"/>
			<point x="469" y="696" type="curve"/>
			<point x="66" y="696" type="line"/>
			<point x="66" y="629" type="line"/>
			<point x="938" y="629" type="line"/>
			<point x="938" y="696" type="line"/>
			<point x="551" y="696" type="line"/>
			<point x="539" y="723"/>
			<point x="523" y="762"/>
			<point x="508" y="790" type="curve"/>
		</contour>
	</outline>
</glyph>
<glyph name="候右角" format="2">
	<unicode hex="E007"/>
	<advance width="1000"/>
	<outline>
		<contour>
			<point x="201" y="229" type="line"/>
			<point x="862" y="231" type="line"/>
			<point x="862" y="296" type="line"/>
			<point x="201" y="294" type="line"/>
		</contour>
		<contour>
			<point x="266" y="490" type="line"/>
			<point x="729" y="492" type="line"/>
			<point x="729" y="556" type="line"/>
			<point x="266" y="554" type="line"/>
		</contour>
		<contour>
			<point x="712" y="546" type="qcurve"/>
			<point x="712" y="556" type="line"/>
			<point x="720" y="556" type="line"/>
			<point x="732" y="559" type="line"/>
			<point x="784" y="553" type="line"/>
			<point x="778" y="499"/>
			<point x="752" y="307"/>
			<point x="742" y="259" type="qcurve"/>
			<point x="672" y="267" type="line"/>
			<point x="678" y="300"/>
			<point x="690" y="376"/>
			<point x="709" y="522"/>
		</contour>
	</outline>
</glyph>
<glyph name="充字头" format="2">
	<unicode hex="E00A"/>
	<advance width="1000"/>
	<outline>
		<contour>
			<point x="148" y="208" type="curve"/>
			<point x="172" y="215"/>
			<point x="203" y="219"/>
			<point x="340" y="231" type="curve"/>
			<point x="422" y="235" type="line"/>
			<point x="570" y="243" type="line"/>
			<point x="652" y="247" type="line"/>
			<point x="793" y="254" type="line"/>
			<point x="816" y="227"/>
			<point x="836" y="204"/>
			<point x="852" y="184" type="curve"/>
			<point x="918" y="227" type="line"/>
			<point x="863" y="297"/>
			<point x="750" y="403"/>
			<point x="660" y="473" type="curve"/>
			<point x="598" y="438" type="line"/>
			<point x="641" y="403"/>
			<point x="688" y="360"/>
			<point x="730" y="317" type="curve"/>
			<point x="258" y="297" type="line"/>
			<point x="320" y="356"/>
			<point x="387" y="430"/>
			<point x="445" y="508" type="curve"/>
			<point x="938" y="508" type="line"/>
			<point x="938" y="583" type="line"/>
			<point x="66" y="583" type="line"/>
			<point x="66" y="508" type="line"/>
			<point x="344" y="508" type="line"/>
			<point x="285" y="430"/>
			<point x="219" y="356"/>
			<point x="191" y="336" type="curve"/>
			<point x="168" y="309"/>
			<point x="145" y="290"/>
			<point x="125" y="286" type="curve"/>
			<point x="133" y="262"/>
			<point x="145" y="223"/>
		</contour>
		<contour>
			<point x="426" y="723" type="line"/>
			<point x="453" y="680"/>
			<point x="488" y="622"/>
			<point x="504" y="583" type="curve"/>
			<point x="582" y="610" type="line"/>
			<point x="566" y="645"/>
			<point x="531" y="704"/>
			<point x="500" y="747" type="curve"/>
		</contour>
	</outline>
</glyph>
<glyph name="养字头" format="2">
	<unicode hex="E00B"/>
	<advance width="1000"/>
	<outline>
		<contour>
			<point x="109" y="646" type="line"/>
			<point x="910" y="646" type="line"/>
			<point x="910" y="583" type="line"/>
			<point x="109" y="583" type="line"/>
		</contour>
		<contour>
			<point x="158" y="508" type="line"/>
			<point x="858" y="508" type="line"/>
			<point x="858" y="447" type="line"/>
			<point x="158" y="447" type="line"/>
		</contour>
		<contour>
			<point x="63" y="367" type="line"/>
			<point x="943" y="367" type="line"/>
			<point x="943" y="304" type="line"/>
			<point x="63" y="304" type="line"/>
		</contour>
		<contour>
			<point x="263" y="742" type="qcurve"/>
			<point x="328" y="764" type="line"/>
			<point x="349" y="742"/>
			<point x="388" y="685"/>
			<point x="397" y="663" type="qcurve"/>
			<point x="327" y="637" type="line"/>
			<point x="319" y="659"/>
			<point x="283" y="719"/>
		</contour>
		<contour>
			<point x="687" y="766" type="qcurve"/>
			<point x="764" y="744" type="line"/>
			<point x="744" y="710"/>
			<point x="699" y="644"/>
			<point x="679" y="620" type="qcurve"/>
			<point x="611" y="640" type="line"/>
			<point x="630" y="666"/>
			<point x="675" y="738"/>
		</contour>
		<contour>
			<point x="642" y="356" type="line"/>
			<point x="675" y="311"/>
			<point x="777" y="232"/>
			<point x="902" y="173"/>
			<point x="967" y="155" type="qcurve"/>
			<point x="959" y="148"/>
			<point x="939" y="126"/>
			<point x="923" y="102"/>
			<point x="917" y="92" type="qcurve"/>
			<point x="851" y="114"/>
			<point x="723" y="185"/>
			<point x="616" y="279"/>
			<point x="580" y="333" type="qcurve"/>
		</contour>
		<contour>
			<point x="482" y="625" type="qcurve"/>
			<point x="552" y="608" type="line"/>
			<point x="520" y="470"/>
			<point x="403" y="266"/>
			<point x="223" y="129"/>
			<point x="92" y="92" type="qcurve"/>
			<point x="87" y="102"/>
			<point x="69" y="127"/>
			<point x="50" y="150"/>
			<point x="41" y="158" type="qcurve"/>
			<point x="168" y="190"/>
			<point x="344" y="314"/>
			<point x="453" y="501"/>
		</contour>
	</outline>
</glyph>
<glyph name="冒字头" format="2">
	<unicode hex="E00C"/>
	<advance width="1000"/>
	<outline>
		<contour>
			<point x="125" y="762" type="line"/>
			<point x="125" y="411" type="line"/>
			<point x="195" y="411" type="line"/>
			<point x="195" y="708" type="line"/>
			<point x="805" y="708" type="line"/>
			<point x="805" y="415" type="line"/>
			<point x="883" y="415" type="line"/>
			<point x="883" y="762" type="line"/>
		</contour>
		<contour>
			<point x="254" y="629" type="line"/>
			<point x="254" y="579" type="line"/>
			<point x="758" y="579" type="line"/>
			<point x="758" y="629" type="line"/>
		</contour>
		<contour>
			<point x="254" y="500" type="line"/>
			<point x="254" y="446" type="line"/>
			<point x="758" y="446" type="line"/>
			<point x="758" y="500" type="line"/>
		</contour>
	</outline>
</glyph>
<glyph name="免五" format="2">
	<unicode hex="E010"/>
	<advance width="1000"/>
	<outline>
		<contour>
			<point x="773" y="442" type="line"/>
			<point x="773" y="333" type="line"/>
			<point x="492" y="333" type="line"/>
			<point x="406" y="333" type="line"/>
			<point x="230" y="333" type="line"/>
			<point x="230" y="442" type="line"/>
		</contour>
		<contour>
			<point x="324" y="579" type="curve"/>
			<point x="555" y="579" type="line"/>
			<point x="535" y="551"/>
			<point x="512" y="520"/>
			<point x="492" y="500" type="curve"/>
			<point x="238" y="500" type="line"/>
			<point x="270" y="524"/>
			<point x="297" y="551"/>
		</contour>
		<contour>
			<point x="340" y="708" type="line"/>
			<point x="285" y="625"/>
			<point x="184" y="528"/>
			<point x="51" y="454" type="curve"/>
			<point x="66" y="442"/>
			<point x="90" y="418"/>
			<point x="102" y="403" type="curve"/>
			<point x="160" y="438" type="line"/>
			<point x="160" y="274" type="line"/>
			<point x="328" y="274" type="line"/>
			<point x="430" y="274" type="line"/>
			<point x="848" y="274" type="line"/>
			<point x="848" y="500" type="line"/>
			<point x="582" y="500" type="line"/>
			<point x="609" y="532"/>
			<point x="641" y="571"/>
			<point x="660" y="606" type="curve"/>
			<point x="609" y="641" type="line"/>
			<point x="598" y="637" type="line"/>
			<point x="375" y="637" type="line"/>
			<point x="391" y="653"/>
			<point x="406" y="672"/>
			<point x="418" y="692" type="curve"/>
		</contour>
	</outline>
</glyph>
<glyph name="化字边" format="2">
	<unicode hex="E011"/>
	<advance width="1000"/>
	<outline>
		<contour>
			<point x="770" y="676" type="line"/>
			<point x="699" y="571"/>
			<point x="605" y="469"/>
			<point x="500" y="387" type="curve"/>
			<point x="500" y="801" type="line"/>
			<point x="418" y="801" type="line"/>
			<point x="418" y="329" type="line"/>
			<point x="355" y="282"/>
			<point x="289" y="243"/>
			<point x="227" y="211" type="curve"/>
			<point x="246" y="196"/>
			<point x="270" y="172"/>
			<point x="281" y="153" type="curve"/>
			<point x="328" y="176"/>
			<point x="375" y="204"/>
			<point x="418" y="235" type="curve"/>
			<point x="418" y="63" type="line"/>
			<point x="418" y="-50"/>
			<point x="449" y="-82"/>
			<point x="551" y="-82" type="curve"/>
			<point x="570" y="-82"/>
			<point x="703" y="-82"/>
			<point x="727" y="-82" type="curve"/>
			<point x="832" y="-82"/>
			<point x="855" y="-15"/>
			<point x="867" y="172" type="curve"/>
			<point x="844" y="176"/>
			<point x="809" y="196"/>
			<point x="789" y="208" type="curve"/>
			<point x="785" y="40"/>
			<point x="777" y="-7"/>
			<point x="723" y="-7" type="curve"/>
			<point x="695" y="-7"/>
			<point x="582" y="-7"/>
			<point x="559" y="-7" type="curve"/>
			<point x="508" y="-7"/>
			<point x="500" y="4"/>
			<point x="500" y="59" type="curve"/>
			<point x="500" y="290" type="line"/>
			<point x="629" y="383"/>
			<point x="750" y="500"/>
			<point x="844" y="629" type="curve"/>
		</contour>
	</outline>
</glyph>
<glyph name="北字旁" format="2">
	<unicode hex="E012"/>
	<advance width="1000"/>
	<outline>
		<contour>
			<point x="309" y="141" type="curve"/>
			<point x="344" y="67" type="line"/>
			<point x="414" y="98"/>
			<point x="508" y="137"/>
			<point x="598" y="176" type="curve"/>
			<point x="598" y="-50" type="line"/>
			<point x="672" y="-50" type="line"/>
			<point x="672" y="840" type="line"/>
			<point x="598" y="840" type="line"/>
			<point x="598" y="606" type="line"/>
			<point x="340" y="606" type="line"/>
			<point x="340" y="532" type="line"/>
			<point x="598" y="532" type="line"/>
			<point x="598" y="250" type="line"/>
			<point x="488" y="208"/>
			<point x="383" y="168"/>
		</contour>
	</outline>
</glyph>
<glyph name="临右角" format="2">
	<unicode hex="E014"/>
	<advance width="1000"/>
	<outline>
		<contour>
			<point x="438" y="625" type="line"/>
			<point x="398" y="508"/>
			<point x="324" y="395"/>
			<point x="242" y="321" type="curve"/>
			<point x="262" y="309"/>
			<point x="293" y="290"/>
			<point x="305" y="278" type="curve"/>
			<point x="348" y="321"/>
			<point x="391" y="375"/>
			<point x="426" y="434" type="curve"/>
			<point x="488" y="434" type="line"/>
			<point x="516" y="379"/>
			<point x="547" y="309"/>
			<point x="559" y="266" type="curve"/>
			<point x="625" y="293" type="line"/>
			<point x="613" y="333"/>
			<point x="590" y="383"/>
			<point x="563" y="434" type="curve"/>
			<point x="723" y="434" type="line"/>
			<point x="723" y="504" type="line"/>
			<point x="465" y="504" type="line"/>
			<point x="484" y="536"/>
			<point x="500" y="571"/>
			<point x="512" y="606" type="curve"/>
		</contour>
	</outline>
</glyph>
<glyph name="南字心" format="2">
	<unicode hex="E016"/>
	<advance width="1000"/>
	<outline>
		<contour>
			<point x="316" y="637" type="line"/>
			<point x="340" y="598"/>
			<point x="367" y="547"/>
			<point x="375" y="516" type="curve"/>
			<point x="438" y="536" type="line"/>
			<point x="426" y="571"/>
			<point x="402" y="622"/>
			<point x="375" y="657" type="curve"/>
		</contour>
		<contour>
			<point x="621" y="657" type="line"/>
			<point x="605" y="618"/>
			<point x="574" y="555"/>
			<point x="551" y="516" type="curve"/>
			<point x="266" y="516" type="line"/>
			<point x="266" y="454" type="line"/>
			<point x="461" y="454" type="line"/>
			<point x="461" y="352" type="line"/>
			<point x="242" y="352" type="line"/>
			<point x="242" y="290" type="line"/>
			<point x="461" y="290" type="line"/>
			<point x="461" y="114" type="line"/>
			<point x="531" y="114" type="line"/>
			<point x="531" y="290" type="line"/>
			<point x="758" y="290" type="line"/>
			<point x="758" y="352" type="line"/>
			<point x="531" y="352" type="line"/>
			<point x="531" y="454" type="line"/>
			<point x="738" y="454" type="line"/>
			<point x="738" y="516" type="line"/>
			<point x="617" y="516" type="line"/>
			<point x="641" y="551"/>
			<point x="664" y="594"/>
			<point x="688" y="637" type="curve"/>
		</contour>
	</outline>
</glyph>
<glyph name="印字旁" format="2">
	<unicode hex="E01B"/>
	<advance width="1000"/>
	<outline>
		<contour>
			<point x="402" y="16" type="curve"/>
			<point x="430" y="36"/>
			<point x="469" y="47"/>
			<point x="770" y="125" type="curve"/>
			<point x="766" y="141"/>
			<point x="762" y="172"/>
			<point x="762" y="192" type="curve"/>
			<point x="488" y="129" type="line"/>
			<point x="488" y="395" type="line"/>
			<point x="766" y="395" type="line"/>
			<point x="766" y="469" type="line"/>
			<point x="488" y="469" type="line"/>
			<point x="488" y="657" type="line"/>
			<point x="586" y="680"/>
			<point x="688" y="708"/>
			<point x="766" y="743" type="curve"/>
			<point x="707" y="801" type="line"/>
			<point x="637" y="766"/>
			<point x="520" y="727"/>
			<point x="414" y="704" type="curve"/>
			<point x="414" y="165" type="line"/>
			<point x="414" y="125"/>
			<point x="391" y="106"/>
			<point x="371" y="94" type="curve"/>
			<point x="383" y="79"/>
			<point x="398" y="40"/>
		</contour>
	</outline>
</glyph>
<glyph name="即字旁" format="2">
	<unicode hex="E01C"/>
	<advance width="1000"/>
	<outline>
		<contour>
			<point x="691" y="540" type="line"/>
			<point x="691" y="403" type="line"/>
			<point x="457" y="403" type="line"/>
			<point x="457" y="540" type="line"/>
		</contour>
		<contour>
			<point x="691" y="610" type="line"/>
			<point x="457" y="610" type="line"/>
			<point x="457" y="739" type="line"/>
			<point x="691" y="739" type="line"/>
		</contour>
		<contour>
			<point x="590" y="254" type="line"/>
			<point x="609" y="219"/>
			<point x="629" y="184"/>
			<point x="648" y="149" type="curve"/>
			<point x="457" y="86" type="line"/>
			<point x="457" y="336" type="line"/>
			<point x="770" y="336" type="line"/>
			<point x="770" y="805" type="line"/>
			<point x="383" y="805" type="line"/>
			<point x="383" y="110" type="line"/>
			<point x="383" y="75"/>
			<point x="355" y="55"/>
			<point x="340" y="47" type="curve"/>
			<point x="352" y="28"/>
			<point x="367" y="-7"/>
			<point x="371" y="-31" type="curve"/>
			<point x="395" y="-11"/>
			<point x="426" y="0"/>
			<point x="680" y="90" type="curve"/>
			<point x="699" y="51"/>
			<point x="715" y="16"/>
			<point x="727" y="-11" type="curve"/>
			<point x="793" y="28" type="line"/>
			<point x="766" y="94"/>
			<point x="703" y="204"/>
			<point x="652" y="286" type="curve"/>
		</contour>
	</outline>
</glyph>
<glyph name="卸字旁" format="2">
	<unicode hex="E021"/>
	<advance width="1000"/>
	<outline>
		<contour>
			<point x="379" y="825" type="line"/>
			<point x="352" y="723"/>
			<point x="305" y="629"/>
			<point x="246" y="567" type="curve"/>
			<point x="262" y="555"/>
			<point x="289" y="536"/>
			<point x="301" y="524" type="curve"/>
			<point x="332" y="559"/>
			<point x="359" y="602"/>
			<point x="383" y="649" type="curve"/>
			<point x="465" y="649" type="line"/>
			<point x="465" y="504" type="line"/>
			<point x="242" y="504" type="line"/>
			<point x="242" y="434" type="line"/>
			<point x="465" y="434" type="line"/>
			<point x="465" y="67" type="line"/>
			<point x="371" y="51" type="line"/>
			<point x="371" y="360" type="line"/>
			<point x="305" y="360" type="line"/>
			<point x="305" y="40" type="line"/>
			<point x="227" y="28" type="line"/>
			<point x="238" y="-46" type="line"/>
			<point x="371" y="-23"/>
			<point x="559" y="8"/>
			<point x="738" y="40" type="curve"/>
			<point x="734" y="114" type="line"/>
			<point x="539" y="79" type="line"/>
			<point x="539" y="250" type="line"/>
			<point x="703" y="250" type="line"/>
			<point x="703" y="313" type="line"/>
			<point x="539" y="313" type="line"/>
			<point x="539" y="434" type="line"/>
			<point x="730" y="434" type="line"/>
			<point x="730" y="504" type="line"/>
			<point x="539" y="504" type="line"/>
			<point x="539" y="649" type="line"/>
			<point x="715" y="649" type="line"/>
			<point x="715" y="715" type="line"/>
			<point x="414" y="715" type="line"/>
			<point x="426" y="747"/>
			<point x="438" y="778"/>
			<point x="445" y="809" type="curve"/>
		</contour>
	</outline>
</glyph>
<glyph name="寒字腰带八" format="2">
	<unicode hex="E022"/>
	<advance width="1000"/>
	<outline>
		<contour>
			<point x="59" y="368" type="line"/>
			<point x="59" y="305" type="line"/>
			<point x="301" y="305" type="line"/>
			<point x="238" y="231"/>
			<point x="137" y="165"/>
			<point x="35" y="129" type="curve"/>
			<point x="51" y="114"/>
			<point x="74" y="90"/>
			<point x="86" y="71" type="curve"/>
			<point x="199" y="118"/>
			<point x="316" y="208"/>
			<point x="383" y="305" type="curve"/>
			<point x="605" y="305" type="line"/>
			<point x="680" y="215"/>
			<point x="801" y="125"/>
			<point x="910" y="83" type="curve"/>
			<point x="922" y="98"/>
			<point x="945" y="125"/>
			<point x="961" y="141" type="curve"/>
			<point x="867" y="172"/>
			<point x="762" y="239"/>
			<point x="691" y="305" type="curve"/>
			<point x="941" y="305" type="line"/>
			<point x="941" y="368" type="line"/>
			<point x="684" y="368" type="line"/>
			<point x="684" y="442" type="line"/>
			<point x="816" y="442" type="line"/>
			<point x="816" y="497" type="line"/>
			<point x="684" y="497" type="line"/>
			<point x="684" y="571" type="line"/>
			<point x="836" y="571" type="line"/>
			<point x="836" y="625" type="line"/>
			<point x="684" y="625" type="line"/>
			<point x="684" y="696" type="line"/>
			<point x="605" y="696" type="line"/>
			<point x="605" y="625" type="line"/>
			<point x="391" y="625" type="line"/>
			<point x="391" y="696" type="line"/>
			<point x="316" y="696" type="line"/>
			<point x="316" y="625" type="line"/>
			<point x="156" y="625" type="line"/>
			<point x="156" y="571" type="line"/>
			<point x="316" y="571" type="line"/>
			<point x="316" y="497" type="line"/>
			<point x="176" y="497" type="line"/>
			<point x="176" y="442" type="line"/>
			<point x="316" y="442" type="line"/>
			<point x="316" y="368" type="line"/>
		</contour>
		<contour>
			<point x="391" y="571" type="line"/>
			<point x="605" y="571" type="line"/>
			<point x="605" y="497" type="line"/>
			<point x="391" y="497" type="line"/>
		</contour>
		<contour>
			<point x="391" y="442" type="line"/>
			<point x="605" y="442" type="line"/>
			<point x="605" y="368" type="line"/>
			<point x="391" y="368" type="line"/>
		</contour>
	</outline>
</glyph>
<glyph name="丝左角" format="2">
	<unicode hex="E023"/>
	<advance width="1000"/>
	<outline>
		<contour>
			<point x="352" y="43" type="curve"/>
			<point x="375" y="55"/>
			<point x="414" y="59"/>
			<point x="703" y="79" type="curve"/>
			<point x="699" y="94"/>
			<point x="703" y="125"/>
			<point x="707" y="145" type="curve"/>
			<point x="445" y="133" type="line"/>
			<point x="547" y="239"/>
			<point x="652" y="379"/>
			<point x="738" y="520" type="curve"/>
			<point x="672" y="555" type="line"/>
			<point x="641" y="500"/>
			<point x="605" y="446"/>
			<point x="570" y="395" type="curve"/>
			<point x="418" y="387" type="line"/>
			<point x="484" y="477"/>
			<point x="551" y="594"/>
			<point x="602" y="711" type="curve"/>
			<point x="527" y="739" type="line"/>
			<point x="484" y="614"/>
			<point x="402" y="473"/>
			<point x="379" y="442" type="curve"/>
			<point x="352" y="407"/>
			<point x="336" y="379"/>
			<point x="316" y="375" type="curve"/>
			<point x="324" y="356"/>
			<point x="336" y="321"/>
			<point x="340" y="305" type="curve"/>
			<point x="355" y="313"/>
			<point x="383" y="317"/>
			<point x="523" y="329" type="curve"/>
			<point x="477" y="262"/>
			<point x="434" y="211"/>
			<point x="414" y="192" type="curve"/>
			<point x="379" y="149"/>
			<point x="352" y="122"/>
			<point x="328" y="114" type="curve"/>
			<point x="336" y="94"/>
			<point x="348" y="59"/>
		</contour>
	</outline>
</glyph>
<glyph name="变字头" format="2">
	<unicode hex="E025"/>
	<advance width="1000"/>
	<outline>
		<contour>
			<point x="223" y="571" type="line"/>
			<point x="191" y="500"/>
			<point x="141" y="426"/>
			<point x="86" y="379" type="curve"/>
			<point x="105" y="372"/>
			<point x="133" y="352"/>
			<point x="145" y="340" type="curve"/>
			<point x="199" y="391"/>
			<point x="254" y="473"/>
			<point x="289" y="551" type="curve"/>
		</contour>
		<contour>
			<point x="691" y="532" type="line"/>
			<point x="750" y="477"/>
			<point x="824" y="391"/>
			<point x="859" y="336" type="curve"/>
			<point x="918" y="375" type="line"/>
			<point x="883" y="430"/>
			<point x="813" y="508"/>
			<point x="746" y="563" type="curve"/>
		</contour>
		<contour>
			<point x="430" y="774" type="line"/>
			<point x="449" y="747"/>
			<point x="469" y="708"/>
			<point x="480" y="680" type="curve"/>
			<point x="70" y="680" type="line"/>
			<point x="70" y="614" type="line"/>
			<point x="348" y="614" type="line"/>
			<point x="348" y="309" type="line"/>
			<point x="422" y="309" type="line"/>
			<point x="422" y="614" type="line"/>
			<point x="574" y="614" type="line"/>
			<point x="574" y="309" type="line"/>
			<point x="648" y="309" type="line"/>
			<point x="648" y="614" type="line"/>
			<point x="930" y="614" type="line"/>
			<point x="930" y="680" type="line"/>
			<point x="566" y="680" type="line"/>
			<point x="555" y="711"/>
			<point x="527" y="758"/>
			<point x="504" y="790" type="curve"/>
		</contour>
	</outline>
</glyph>
<glyph name="叟字头" format="2">
	<unicode hex="E026"/>
	<advance width="1000"/>
	<outline>
		<contour>
			<point x="133" y="262" type="line"/>
			<point x="133" y="196" type="line"/>
			<point x="457" y="196" type="line"/>
			<point x="457" y="125" type="line"/>
			<point x="531" y="125" type="line"/>
			<point x="531" y="196" type="line"/>
			<point x="863" y="196" type="line"/>
			<point x="863" y="586" type="line"/>
			<point x="578" y="586" type="line"/>
			<point x="578" y="524" type="line"/>
			<point x="793" y="524" type="line"/>
			<point x="793" y="426" type="line"/>
			<point x="598" y="426" type="line"/>
			<point x="598" y="364" type="line"/>
			<point x="793" y="364" type="line"/>
			<point x="793" y="262" type="line"/>
			<point x="531" y="262" type="line"/>
			<point x="531" y="665" type="line"/>
			<point x="457" y="665" type="line"/>
			<point x="457" y="262" type="line"/>
			<point x="203" y="262" type="line"/>
			<point x="203" y="364" type="line"/>
			<point x="391" y="364" type="line"/>
			<point x="391" y="426" type="line"/>
			<point x="203" y="426" type="line"/>
			<point x="203" y="524" type="line"/>
			<point x="262" y="540"/>
			<point x="332" y="559"/>
			<point x="391" y="583" type="curve"/>
			<point x="340" y="633" type="line"/>
			<point x="289" y="610"/>
			<point x="195" y="575"/>
			<point x="133" y="559" type="curve"/>
		</contour>
	</outline>
</glyph>
<glyph name="向字框" format="2">
	<unicode hex="E028"/>
	<advance width="1000"/>
	<outline>
		<contour>
			<point x="99" y="667" type="line"/>
			<point x="99" y="-80" type="line"/>
			<point x="173" y="-80" type="line"/>
			<point x="173" y="594" type="line"/>
			<point x="860" y="594" type="line"/>
			<point x="860" y="668" type="line"/>
		</contour>
		<contour>
			<point x="832" y="668" type="line"/>
			<point x="832" y="21" type="line"/>
			<point x="832" y="3"/>
			<point x="826" y="-3"/>
			<point x="806" y="-4" type="curve"/>
			<point x="785" y="-5"/>
			<point x="716" y="-6"/>
			<point x="644" y="-3" type="curve"/>
			<point x="655" y="-25"/>
			<point x="666" y="-60"/>
			<point x="670" y="-81" type="curve"/>
			<point x="762" y="-81"/>
			<point x="824" y="-80"/>
			<point x="860" y="-68" type="curve"/>
			<point x="895" y="-55"/>
			<point x="906" y="-30"/>
			<point x="906" y="19" type="curve"/>
			<point x="906" y="667" type="line"/>
		</contour>
		<contour>
			<point x="438" y="842" type="line"/>
			<point x="421" y="781"/>
			<point x="388" y="694"/>
			<point x="360" y="638" type="curve"/>
			<point x="431" y="621" type="line"/>
			<point x="462" y="674"/>
			<point x="500" y="755"/>
			<point x="531" y="827" type="curve"/>
		</contour>
	</outline>
</glyph>
<glyph name="周字框" format="2">
	<unicode hex="E02A"/>
	<advance width="1000"/>
	<outline>
		<contour>
			<point x="145" y="813" type="line"/>
			<point x="145" y="489" type="line"/>
			<point x="145" y="333"/>
			<point x="137" y="129"/>
			<point x="31" y="-19" type="curve"/>
			<point x="47" y="-27"/>
			<point x="78" y="-50"/>
			<point x="90" y="-66" type="curve"/>
			<point x="203" y="90"/>
			<point x="219" y="321"/>
			<point x="219" y="489" type="curve"/>
			<point x="219" y="743" type="line"/>
			<point x="805" y="743" type="line"/>
			<point x="805" y="36" type="line"/>
			<point x="805" y="16"/>
			<point x="797" y="12"/>
			<point x="777" y="12" type="curve"/>
			<point x="762" y="8"/>
			<point x="699" y="8"/>
			<point x="633" y="12" type="curve"/>
			<point x="645" y="-7"/>
			<point x="656" y="-39"/>
			<point x="660" y="-58" type="curve"/>
			<point x="750" y="-58"/>
			<point x="805" y="-58"/>
			<point x="836" y="-46" type="curve"/>
			<point x="867" y="-35"/>
			<point x="879" y="-11"/>
			<point x="879" y="36" type="curve"/>
			<point x="879" y="813" type="line"/>
		</contour>
	</outline>
</glyph>
<glyph name="叚字旁" format="2">
	<unicode hex="E02B"/>
	<advance width="1000"/>
	<outline>
		<contour>
			<point x="348" y="805" type="line"/>
			<point x="348" y="-58" type="line"/>
			<point x="422" y="-58" type="line"/>
			<point x="422" y="125" type="line"/>
			<point x="727" y="125" type="line"/>
			<point x="727" y="196" type="line"/>
			<point x="422" y="196" type="line"/>
			<point x="422" y="321" type="line"/>
			<point x="715" y="321" type="line"/>
			<point x="715" y="387" type="line"/>
			<point x="422" y="387" type="line"/>
			<point x="422" y="493" type="line"/>
			<point x="711" y="493" type="line"/>
			<point x="711" y="805" type="line"/>
		</contour>
		<contour>
			<point x="422" y="739" type="line"/>
			<point x="637" y="739" type="line"/>
			<point x="637" y="559" type="line"/>
			<point x="422" y="559" type="line"/>
		</contour>
	</outline>
</glyph>
<glyph name="在字框" format="2">
	<unicode hex="E02E"/>
	<advance width="1000"/>
	<outline>
		<contour>
			<point x="391" y="821" type="line"/>
			<point x="379" y="770"/>
			<point x="359" y="715"/>
			<point x="340" y="665" type="curve"/>
			<point x="63" y="665" type="line"/>
			<point x="63" y="594" type="line"/>
			<point x="305" y="594" type="line"/>
			<point x="242" y="465"/>
			<point x="152" y="348"/>
			<point x="39" y="266" type="curve"/>
			<point x="51" y="250"/>
			<point x="70" y="219"/>
			<point x="78" y="200" type="curve"/>
			<point x="121" y="227"/>
			<point x="160" y="262"/>
			<point x="195" y="297" type="curve"/>
			<point x="195" y="-93" type="line"/>
			<point x="270" y="-93" type="line"/>
			<point x="270" y="387" type="line"/>
			<point x="316" y="454"/>
			<point x="355" y="520"/>
			<point x="391" y="594" type="curve"/>
			<point x="941" y="594" type="line"/>
			<point x="941" y="665" type="line"/>
			<point x="422" y="665" type="line"/>
			<point x="441" y="711"/>
			<point x="457" y="758"/>
			<point x="469" y="801" type="curve"/>
		</contour>
	</outline>
</glyph>
<glyph name="鬲字心" format="2">
	<unicode hex="E030"/>
	<advance width="1000"/>
	<outline>
		<contour>
			<point x="637" y="536" type="line"/>
			<point x="621" y="500"/>
			<point x="590" y="446"/>
			<point x="566" y="407" type="curve"/>
			<point x="379" y="407" type="line"/>
			<point x="426" y="434" type="line"/>
			<point x="414" y="461"/>
			<point x="383" y="508"/>
			<point x="355" y="540" type="curve"/>
			<point x="297" y="516" type="line"/>
			<point x="320" y="481"/>
			<point x="348" y="438"/>
			<point x="363" y="407" type="curve"/>
			<point x="223" y="407" type="line"/>
			<point x="223" y="352" type="line"/>
			<point x="461" y="352" type="line"/>
			<point x="461" y="153" type="line"/>
			<point x="535" y="153" type="line"/>
			<point x="535" y="352" type="line"/>
			<point x="770" y="352" type="line"/>
			<point x="770" y="407" type="line"/>
			<point x="633" y="407" type="line"/>
			<point x="656" y="438"/>
			<point x="680" y="477"/>
			<point x="703" y="512" type="curve"/>
		</contour>
	</outline>
</glyph>
<glyph name="眉字框" format="2">
	<unicode hex="E031"/>
	<advance width="1000"/>
	<outline>
		<contour>
			<point x="145" y="809" type="line"/>
			<point x="145" y="500" type="line"/>
			<point x="145" y="348"/>
			<point x="137" y="141"/>
			<point x="35" y="-3" type="curve"/>
			<point x="51" y="-15"/>
			<point x="82" y="-42"/>
			<point x="94" y="-54" type="curve"/>
			<point x="203" y="98"/>
			<point x="219" y="336"/>
			<point x="219" y="500" type="curve"/>
			<point x="219" y="551" type="line"/>
			<point x="875" y="551" type="line"/>
			<point x="875" y="809" type="line"/>
		</contour>
		<contour>
			<point x="219" y="743" type="line"/>
			<point x="473" y="743" type="line"/>
			<point x="473" y="618" type="line"/>
			<point x="219" y="618" type="line"/>
		</contour>
		<contour>
			<point x="547" y="743" type="line"/>
			<point x="797" y="743" type="line"/>
			<point x="797" y="618" type="line"/>
			<point x="547" y="618" type="line"/>
		</contour>
	</outline>
</glyph>
<glyph name="壳字头" format="2">
	<unicode hex="E032"/>
	<advance width="1000"/>
	<outline>
		<contour>
			<point x="78" y="434" type="line"/>
			<point x="78" y="235" type="line"/>
			<point x="148" y="235" type="line"/>
			<point x="148" y="372" type="line"/>
			<point x="844" y="372" type="line"/>
			<point x="844" y="235" type="line"/>
			<point x="918" y="235" type="line"/>
			<point x="918" y="434" type="line"/>
		</contour>
		<contour>
			<point x="457" y="821" type="line"/>
			<point x="457" y="735" type="line"/>
			<point x="63" y="735" type="line"/>
			<point x="63" y="665" type="line"/>
			<point x="457" y="665" type="line"/>
			<point x="457" y="575" type="line"/>
			<point x="137" y="575" type="line"/>
			<point x="137" y="508" type="line"/>
			<point x="859" y="508" type="line"/>
			<point x="859" y="575" type="line"/>
			<point x="535" y="575" type="line"/>
			<point x="535" y="665" type="line"/>
			<point x="938" y="665" type="line"/>
			<point x="938" y="735" type="line"/>
			<point x="535" y="735" type="line"/>
			<point x="535" y="821" type="line"/>
		</contour>
	</outline>
</glyph>
<glyph name="夜下角" format="2">
	<unicode hex="E034"/>
	<advance width="1000"/>
	<outline>
		<contour>
			<point x="480" y="426" type="line"/>
			<point x="523" y="391"/>
			<point x="574" y="340"/>
			<point x="598" y="309" type="curve"/>
			<point x="645" y="348" type="line"/>
			<point x="621" y="383"/>
			<point x="570" y="430"/>
			<point x="527" y="461" type="curve"/>
		</contour>
		<contour>
			<point x="477" y="497" type="curve"/>
			<point x="750" y="497" type="line"/>
			<point x="707" y="375"/>
			<point x="645" y="278"/>
			<point x="566" y="200" type="curve"/>
			<point x="504" y="262"/>
			<point x="453" y="333"/>
			<point x="418" y="411" type="curve"/>
			<point x="438" y="438"/>
			<point x="457" y="465"/>
		</contour>
		<contour>
			<point x="484" y="676" type="line"/>
			<point x="438" y="551"/>
			<point x="340" y="403"/>
			<point x="227" y="313" type="curve"/>
			<point x="242" y="301"/>
			<point x="266" y="278"/>
			<point x="277" y="262" type="curve"/>
			<point x="313" y="290"/>
			<point x="344" y="321"/>
			<point x="371" y="356" type="curve"/>
			<point x="410" y="282"/>
			<point x="457" y="211"/>
			<point x="512" y="153" type="curve"/>
			<point x="430" y="83"/>
			<point x="332" y="36"/>
			<point x="227" y="0" type="curve"/>
			<point x="242" y="-11"/>
			<point x="266" y="-42"/>
			<point x="273" y="-58" type="curve"/>
			<point x="379" y="-23"/>
			<point x="477" y="28"/>
			<point x="563" y="102" type="curve"/>
			<point x="645" y="28"/>
			<point x="734" y="-27"/>
			<point x="840" y="-62" type="curve"/>
			<point x="852" y="-42"/>
			<point x="875" y="-11"/>
			<point x="891" y="4" type="curve"/>
			<point x="789" y="36"/>
			<point x="695" y="86"/>
			<point x="617" y="149" type="curve"/>
			<point x="715" y="250"/>
			<point x="793" y="379"/>
			<point x="840" y="543" type="curve"/>
			<point x="793" y="567" type="line"/>
			<point x="777" y="563" type="line"/>
			<point x="516" y="563" type="line"/>
			<point x="531" y="594"/>
			<point x="547" y="625"/>
			<point x="559" y="657" type="curve"/>
		</contour>
	</outline>
</glyph>
<glyph name="无三" format="2">
	<unicode hex="E039"/>
	<advance width="1000"/>
	<outline>
		<contour>
			<point x="371" y="762" type="line"/>
			<point x="371" y="692" type="line"/>
			<point x="539" y="692" type="line"/>
			<point x="539" y="579"/>
			<point x="539" y="489"/>
			<point x="535" y="411" type="curve"/>
			<point x="344" y="411" type="line"/>
			<point x="344" y="336" type="line"/>
			<point x="535" y="336" type="line"/>
			<point x="523" y="141"/>
			<point x="488" y="43"/>
			<point x="367" y="-35" type="curve"/>
			<point x="387" y="-46"/>
			<point x="414" y="-78"/>
			<point x="422" y="-97" type="curve"/>
			<point x="559" y="-7"/>
			<point x="598" y="110"/>
			<point x="609" y="336" type="curve"/>
			<point x="770" y="336" type="line"/>
			<point x="770" y="411" type="line"/>
			<point x="613" y="411" type="line"/>
			<point x="613" y="489"/>
			<point x="613" y="583"/>
			<point x="613" y="692" type="curve"/>
			<point x="766" y="692" type="line"/>
			<point x="766" y="762" type="line"/>
		</contour>
	</outline>
</glyph>
<glyph name="定字底" format="2">
	<unicode hex="E03A"/>
	<advance width="1000"/>
	<outline>
		<contour>
			<point x="211" y="520" type="line"/>
			<point x="203" y="336"/>
			<point x="172" y="114"/>
			<point x="39" y="-3" type="curve"/>
			<point x="55" y="-15"/>
			<point x="78" y="-42"/>
			<point x="90" y="-58" type="curve"/>
			<point x="164" y="4"/>
			<point x="211" y="98"/>
			<point x="238" y="204" type="curve"/>
			<point x="328" y="8"/>
			<point x="477" y="-35"/>
			<point x="688" y="-35" type="curve"/>
			<point x="934" y="-35" type="line"/>
			<point x="938" y="-15"/>
			<point x="949" y="20"/>
			<point x="965" y="40" type="curve"/>
			<point x="918" y="40"/>
			<point x="730" y="40"/>
			<point x="691" y="40" type="curve"/>
			<point x="641" y="40"/>
			<point x="590" y="40"/>
			<point x="547" y="51" type="curve"/>
			<point x="547" y="364" type="line"/>
			<point x="871" y="364" type="line"/>
			<point x="871" y="434" type="line"/>
			<point x="547" y="434" type="line"/>
			<point x="547" y="708" type="line"/>
			<point x="898" y="708" type="line"/>
			<point x="898" y="708"/>
			<point x="898" y="782"/>
			<point x="898" y="782" type="curve"/>
			<point x="94" y="782" type="line"/>
			<point x="94" y="708" type="line"/>
			<point x="469" y="708" type="line"/>
			<point x="469" y="71" type="line"/>
			<point x="375" y="110"/>
			<point x="309" y="184"/>
			<point x="270" y="325" type="curve"/>
			<point x="277" y="387"/>
			<point x="285" y="454"/>
			<point x="289" y="516" type="curve"/>
		</contour>
	</outline>
</glyph>
<glyph name="尧字头" format="2">
	<unicode hex="E03F"/>
	<advance width="1000"/>
	<outline>
		<contour>
			<point x="320" y="661" type="line"/>
			<point x="324" y="618"/>
			<point x="332" y="575"/>
			<point x="348" y="532" type="curve"/>
			<point x="82" y="512" type="line"/>
			<point x="90" y="446" type="line"/>
			<point x="371" y="469" type="line"/>
			<point x="398" y="415"/>
			<point x="430" y="360"/>
			<point x="473" y="317" type="curve"/>
			<point x="355" y="286"/>
			<point x="227" y="262"/>
			<point x="102" y="247" type="curve"/>
			<point x="117" y="231"/>
			<point x="141" y="200"/>
			<point x="148" y="184" type="curve"/>
			<point x="273" y="204"/>
			<point x="406" y="231"/>
			<point x="527" y="270" type="curve"/>
			<point x="605" y="208"/>
			<point x="703" y="172"/>
			<point x="805" y="172" type="curve"/>
			<point x="887" y="172"/>
			<point x="918" y="200"/>
			<point x="930" y="317" type="curve"/>
			<point x="910" y="325"/>
			<point x="883" y="336"/>
			<point x="867" y="348" type="curve"/>
			<point x="859" y="262"/>
			<point x="848" y="239"/>
			<point x="809" y="239" type="curve"/>
			<point x="738" y="239"/>
			<point x="668" y="262"/>
			<point x="609" y="297" type="curve"/>
			<point x="699" y="333"/>
			<point x="785" y="379"/>
			<point x="848" y="434" type="curve"/>
			<point x="777" y="465" type="line"/>
			<point x="723" y="418"/>
			<point x="641" y="375"/>
			<point x="547" y="344" type="curve"/>
			<point x="508" y="379"/>
			<point x="473" y="426"/>
			<point x="445" y="477" type="curve"/>
			<point x="902" y="516" type="line"/>
			<point x="895" y="579" type="line"/>
			<point x="418" y="540" type="line"/>
			<point x="406" y="579"/>
			<point x="395" y="618"/>
			<point x="391" y="661" type="curve"/>
		</contour>
	</outline>
</glyph>
<glyph name="大框" format="2">
	<unicode hex="E043"/>
	<advance width="1000"/>
	<outline>
		<contour>
			<point x="461" y="856" type="line"/>
			<point x="461" y="731" type="line"/>
			<point x="59" y="731" type="line"/>
			<point x="59" y="661" type="line"/>
			<point x="461" y="661" type="line"/>
			<point x="453" y="325"/>
			<point x="410" y="110"/>
			<point x="39" y="4" type="curve"/>
			<point x="55" y="-11"/>
			<point x="78" y="-42"/>
			<point x="86" y="-62" type="curve"/>
			<point x="340" y="12"/>
			<point x="453" y="145"/>
			<point x="500" y="325" type="curve"/>
			<point x="566" y="122"/>
			<point x="688" y="-3"/>
			<point x="910" y="-62" type="curve"/>
			<point x="918" y="-39"/>
			<point x="941" y="-7"/>
			<point x="957" y="8" type="curve"/>
			<point x="691" y="67"/>
			<point x="578" y="231"/>
			<point x="531" y="500" type="curve"/>
			<point x="535" y="551"/>
			<point x="535" y="606"/>
			<point x="539" y="661" type="curve"/>
			<point x="941" y="661" type="line"/>
			<point x="941" y="731" type="line"/>
			<point x="539" y="731" type="line"/>
			<point x="539" y="856" type="line"/>
		</contour>
	</outline>
</glyph>
<glyph name="师字旁" format="2">
	<unicode hex="E044"/>
	<advance width="1000"/>
	<outline>
		<contour>
			<point x="566" y="821" type="line"/>
			<point x="566" y="418" type="line"/>
			<point x="566" y="243"/>
			<point x="551" y="75"/>
			<point x="410" y="-46" type="curve"/>
			<point x="430" y="-58"/>
			<point x="453" y="-82"/>
			<point x="469" y="-97" type="curve"/>
			<point x="617" y="40"/>
			<point x="637" y="219"/>
			<point x="637" y="418" type="curve"/>
			<point x="637" y="821" type="line"/>
		</contour>
		<contour>
			<point x="406" y="708" type="line"/>
			<point x="406" y="219" type="line"/>
			<point x="473" y="219" type="line"/>
			<point x="473" y="708" type="line"/>
		</contour>
	</outline>
</glyph>
<glyph name="应字心" format="2">
	<unicode hex="E046"/>
	<advance width="1000"/>
	<outline>
		<contour>
			<point x="262" y="547" type="line"/>
			<point x="305" y="442"/>
			<point x="352" y="297"/>
			<point x="371" y="204" type="curve"/>
			<point x="441" y="235" type="line"/>
			<point x="422" y="329"/>
			<point x="371" y="465"/>
			<point x="328" y="575" type="curve"/>
		</contour>
		<contour>
			<point x="480" y="606" type="line"/>
			<point x="512" y="497"/>
			<point x="551" y="356"/>
			<point x="563" y="262" type="curve"/>
			<point x="637" y="282" type="line"/>
			<point x="621" y="375"/>
			<point x="582" y="516"/>
			<point x="547" y="625" type="curve"/>
		</contour>
		<contour>
			<point x="207" y="98" type="line"/>
			<point x="207" y="28" type="line"/>
			<point x="953" y="28" type="line"/>
			<point x="953" y="98" type="line"/>
			<point x="684" y="98" type="line"/>
			<point x="773" y="254"/>
			<point x="848" y="434"/>
			<point x="898" y="602" type="curve"/>
			<point x="816" y="629" type="line"/>
			<point x="781" y="458"/>
			<point x="703" y="254"/>
			<point x="605" y="98" type="curve"/>
		</contour>
	</outline>
</glyph>
<glyph name="弟省" format="2">
	<unicode hex="E04A"/>
	<advance width="1000"/>
	<outline>
		<contour>
			<point x="172" y="504" type="line"/>
			<point x="156" y="422"/>
			<point x="133" y="313"/>
			<point x="113" y="243" type="curve"/>
			<point x="418" y="243" type="line"/>
			<point x="328" y="149"/>
			<point x="191" y="71"/>
			<point x="55" y="28" type="curve"/>
			<point x="74" y="12"/>
			<point x="94" y="-15"/>
			<point x="109" y="-39" type="curve"/>
			<point x="234" y="8"/>
			<point x="367" y="90"/>
			<point x="461" y="188" type="curve"/>
			<point x="461" y="-58" type="line"/>
			<point x="539" y="-58" type="line"/>
			<point x="539" y="243" type="line"/>
			<point x="840" y="243" type="line"/>
			<point x="832" y="133"/>
			<point x="820" y="86"/>
			<point x="805" y="75" type="curve"/>
			<point x="793" y="67"/>
			<point x="785" y="63"/>
			<point x="766" y="63" type="curve"/>
			<point x="746" y="63"/>
			<point x="695" y="67"/>
			<point x="645" y="71" type="curve"/>
			<point x="656" y="51"/>
			<point x="664" y="20"/>
			<point x="664" y="0" type="curve"/>
			<point x="719" y="-3"/>
			<point x="773" y="-3"/>
			<point x="801" y="-3" type="curve"/>
			<point x="828" y="0"/>
			<point x="848" y="4"/>
			<point x="867" y="24" type="curve"/>
			<point x="895" y="51"/>
			<point x="906" y="118"/>
			<point x="922" y="282" type="curve"/>
			<point x="922" y="293"/>
			<point x="922" y="313"/>
			<point x="922" y="313" type="curve"/>
			<point x="539" y="313" type="line"/>
			<point x="539" y="434" type="line"/>
			<point x="875" y="434" type="line"/>
			<point x="875" y="708" type="line"/>
			<point x="152" y="708" type="line"/>
			<point x="152" y="637" type="line"/>
			<point x="461" y="637" type="line"/>
			<point x="461" y="504" type="line"/>
		</contour>
		<contour>
			<point x="461" y="313" type="line"/>
			<point x="207" y="313" type="line"/>
			<point x="234" y="434" type="line"/>
			<point x="461" y="434" type="line"/>
		</contour>
		<contour>
			<point x="539" y="637" type="line"/>
			<point x="797" y="637" type="line"/>
			<point x="797" y="504" type="line"/>
			<point x="539" y="504" type="line"/>
		</contour>
	</outline>
</glyph>
<glyph name="木框" format="2">
	<unicode hex="E04C"/>
	<advance width="1000"/>
	<outline>
		<contour>
			<point x="457" y="860" type="line"/>
			<point x="457" y="719" type="line"/>
			<point x="70" y="719" type="line"/>
			<point x="70" y="649" type="line"/>
			<point x="457" y="649" type="line"/>
			<point x="457" y="403" type="line"/>
			<point x="363" y="254"/>
			<point x="199" y="118"/>
			<point x="35" y="47" type="curve"/>
			<point x="51" y="36"/>
			<point x="74" y="4"/>
			<point x="90" y="-15" type="curve"/>
			<point x="223" y="47"/>
			<point x="355" y="157"/>
			<point x="457" y="286" type="curve"/>
			<point x="457" y="-58" type="line"/>
			<point x="535" y="-58" type="line"/>
			<point x="535" y="286" type="line"/>
			<point x="633" y="157"/>
			<point x="770" y="43"/>
			<point x="906" y="-15" type="curve"/>
			<point x="918" y="4"/>
			<point x="941" y="36"/>
			<point x="961" y="51" type="curve"/>
			<point x="793" y="114"/>
			<point x="621" y="258"/>
			<point x="535" y="407" type="curve"/>
			<point x="535" y="649" type="line"/>
			<point x="934" y="649" type="line"/>
			<point x="934" y="719" type="line"/>
			<point x="535" y="719" type="line"/>
			<point x="535" y="860" type="line"/>
		</contour>
	</outline>
</glyph>
<glyph name="虫无口" format="2">
	<unicode hex="E04D"/>
	<advance width="1000"/>
	<outline>
		<contour>
			<point x="453" y="83" type="line"/>
			<point x="301" y="75"/>
			<point x="160" y="67"/>
			<point x="51" y="67" type="curve"/>
			<point x="63" y="-15" type="line"/>
			<point x="262" y="-7"/>
			<point x="551" y="12"/>
			<point x="824" y="32" type="curve"/>
			<point x="848" y="-7"/>
			<point x="867" y="-39"/>
			<point x="879" y="-70" type="curve"/>
			<point x="953" y="-35" type="line"/>
			<point x="918" y="43"/>
			<point x="828" y="165"/>
			<point x="754" y="247" type="curve"/>
			<point x="684" y="219" type="line"/>
			<point x="715" y="184"/>
			<point x="750" y="141"/>
			<point x="777" y="98" type="curve"/>
			<point x="535" y="86" type="line"/>
			<point x="531" y="801" type="line"/>
			<point x="453" y="801" type="line"/>
		</contour>
	</outline>
</glyph>
<glyph name="发二" format="2">
	<unicode hex="E04E"/>
	<advance width="1000"/>
	<outline>
		<contour>
			<point x="184" y="465" type="curve"/>
			<point x="195" y="477"/>
			<point x="227" y="481"/>
			<point x="293" y="481" type="curve"/>
			<point x="430" y="481" type="line"/>
			<point x="367" y="274"/>
			<point x="254" y="110"/>
			<point x="70" y="0" type="curve"/>
			<point x="90" y="-15"/>
			<point x="117" y="-42"/>
			<point x="125" y="-58" type="curve"/>
			<point x="258" y="20"/>
			<point x="352" y="122"/>
			<point x="422" y="247" type="curve"/>
			<point x="480" y="375" type="line"/>
			<point x="496" y="411"/>
			<point x="508" y="446"/>
			<point x="516" y="481" type="curve"/>
			<point x="969" y="481" type="line"/>
			<point x="973" y="555" type="line"/>
			<point x="539" y="555" type="line"/>
			<point x="555" y="622"/>
			<point x="566" y="696"/>
			<point x="578" y="770" type="curve"/>
			<point x="492" y="786" type="line"/>
			<point x="484" y="704"/>
			<point x="469" y="625"/>
			<point x="453" y="555" type="curve"/>
			<point x="270" y="555" type="line"/>
			<point x="297" y="606"/>
			<point x="324" y="672"/>
			<point x="344" y="739" type="curve"/>
			<point x="262" y="754" type="line"/>
			<point x="246" y="676"/>
			<point x="207" y="594"/>
			<point x="195" y="575" type="curve"/>
			<point x="184" y="555"/>
			<point x="172" y="540"/>
			<point x="160" y="536" type="curve"/>
			<point x="168" y="516"/>
			<point x="180" y="481"/>
		</contour>
		<contour>
			<point x="469" y="301" type="line"/>
			<point x="469" y="301" type="line"/>
		</contour>
	</outline>
</glyph>
<glyph name="带字头" format="2">
	<unicode hex="E050"/>
	<advance width="1000"/>
	<outline>
		<contour>
			<point x="715" y="543" type="line"/>
			<point x="715" y="430" type="line"/>
			<point x="535" y="430" type="line"/>
			<point x="535" y="543" type="line"/>
			<point x="461" y="543" type="line"/>
			<point x="461" y="430" type="line"/>
			<point x="289" y="430" type="line"/>
			<point x="289" y="543" type="line"/>
			<point x="215" y="543" type="line"/>
			<point x="215" y="430" type="line"/>
			<point x="51" y="430" type="line"/>
			<point x="51" y="364" type="line"/>
			<point x="215" y="364" type="line"/>
			<point x="215" y="262" type="line"/>
			<point x="289" y="262" type="line"/>
			<point x="289" y="364" type="line"/>
			<point x="461" y="364" type="line"/>
			<point x="461" y="262" type="line"/>
			<point x="535" y="262" type="line"/>
			<point x="535" y="364" type="line"/>
			<point x="715" y="364" type="line"/>
			<point x="715" y="258" type="line"/>
			<point x="789" y="258" type="line"/>
			<point x="789" y="364" type="line"/>
			<point x="949" y="364" type="line"/>
			<point x="949" y="430" type="line"/>
			<point x="789" y="430" type="line"/>
			<point x="789" y="543" type="line"/>
		</contour>
	</outline>
</glyph>
<glyph name="惠字头" format="2">
	<unicode hex="E052"/>
	<advance width="1000"/>
	<outline>
		<contour>
			<point x="74" y="192" type="line"/>
			<point x="78" y="129" type="line"/>
			<point x="262" y="129"/>
			<point x="543" y="133"/>
			<point x="813" y="141" type="curve"/>
			<point x="840" y="122"/>
			<point x="863" y="102"/>
			<point x="879" y="86" type="curve"/>
			<point x="930" y="129" type="line"/>
			<point x="879" y="176"/>
			<point x="781" y="239"/>
			<point x="695" y="274" type="curve"/>
			<point x="852" y="274" type="line"/>
			<point x="852" y="555" type="line"/>
			<point x="531" y="555" type="line"/>
			<point x="531" y="618" type="line"/>
			<point x="922" y="618" type="line"/>
			<point x="922" y="680" type="line"/>
			<point x="531" y="680" type="line"/>
			<point x="531" y="743" type="line"/>
			<point x="453" y="743" type="line"/>
			<point x="453" y="680" type="line"/>
			<point x="74" y="680" type="line"/>
			<point x="74" y="618" type="line"/>
			<point x="453" y="618" type="line"/>
			<point x="453" y="555" type="line"/>
			<point x="145" y="555" type="line"/>
			<point x="145" y="274" type="line"/>
			<point x="453" y="274" type="line"/>
			<point x="453" y="196" type="line"/>
		</contour>
		<contour>
			<point x="215" y="391" type="line"/>
			<point x="453" y="391" type="line"/>
			<point x="453" y="325" type="line"/>
			<point x="215" y="325" type="line"/>
		</contour>
		<contour>
			<point x="531" y="391" type="line"/>
			<point x="777" y="391" type="line"/>
			<point x="777" y="325" type="line"/>
			<point x="531" y="325" type="line"/>
		</contour>
		<contour>
			<point x="215" y="504" type="line"/>
			<point x="453" y="504" type="line"/>
			<point x="453" y="438" type="line"/>
			<point x="215" y="438" type="line"/>
		</contour>
		<contour>
			<point x="531" y="504" type="line"/>
			<point x="777" y="504" type="line"/>
			<point x="777" y="438" type="line"/>
			<point x="531" y="438" type="line"/>
		</contour>
		<contour>
			<point x="641" y="239" type="line"/>
			<point x="668" y="227"/>
			<point x="695" y="215"/>
			<point x="723" y="200" type="curve"/>
			<point x="531" y="196" type="line"/>
			<point x="531" y="274" type="line"/>
			<point x="688" y="274" type="line"/>
		</contour>
	</outline>
</glyph>
<glyph name="立无横" format="2">
	<unicode hex="E054"/>
	<advance width="1000"/>
	<outline>
		<contour>
			<point x="98" y="672" type="line"/>
			<point x="98" y="594" type="line"/>
			<point x="906" y="594" type="line"/>
			<point x="906" y="672" type="line"/>
		</contour>
		<contour>
			<point x="238" y="524" type="line"/>
			<point x="273" y="391"/>
			<point x="316" y="215"/>
			<point x="332" y="102" type="curve"/>
			<point x="410" y="122" type="line"/>
			<point x="395" y="235"/>
			<point x="352" y="407"/>
			<point x="313" y="543" type="curve"/>
		</contour>
		<contour>
			<point x="430" y="844" type="line"/>
			<point x="449" y="793"/>
			<point x="469" y="727"/>
			<point x="477" y="684" type="curve"/>
			<point x="555" y="708" type="line"/>
			<point x="543" y="750"/>
			<point x="523" y="817"/>
			<point x="500" y="868" type="curve"/>
		</contour>
		<contour>
			<point x="691" y="543" type="line"/>
			<point x="660" y="395"/>
			<point x="598" y="188"/>
			<point x="543" y="59" type="curve"/>
			<point x="621" y="59" type="line"/>
			<point x="676" y="184"/>
			<point x="734" y="375"/>
			<point x="777" y="528" type="curve"/>
		</contour>
	</outline>
</glyph>
<glyph name="扁字心" format="2">
	<unicode hex="E055"/>
	<advance width="1000"/>
	<outline>
		<contour>
			<point x="762" y="567" type="line"/>
			<point x="762" y="430" type="line"/>
			<point x="629" y="430" type="line"/>
			<point x="629" y="567" type="line"/>
		</contour>
		<contour>
			<point x="168" y="629" type="line"/>
			<point x="168" y="145" type="line"/>
			<point x="238" y="145" type="line"/>
			<point x="238" y="364" type="line"/>
			<point x="367" y="364" type="line"/>
			<point x="367" y="168" type="line"/>
			<point x="434" y="168" type="line"/>
			<point x="434" y="364" type="line"/>
			<point x="563" y="364" type="line"/>
			<point x="563" y="168" type="line"/>
			<point x="629" y="168" type="line"/>
			<point x="629" y="364" type="line"/>
			<point x="762" y="364" type="line"/>
			<point x="762" y="282" type="line"/>
			<point x="762" y="223" type="line"/>
			<point x="762" y="211"/>
			<point x="762" y="208"/>
			<point x="750" y="208" type="curve"/>
			<point x="738" y="208"/>
			<point x="703" y="208"/>
			<point x="668" y="211" type="curve"/>
			<point x="680" y="192"/>
			<point x="688" y="165"/>
			<point x="691" y="145" type="curve"/>
			<point x="746" y="145"/>
			<point x="781" y="145"/>
			<point x="805" y="157" type="curve"/>
			<point x="828" y="168"/>
			<point x="836" y="188"/>
			<point x="836" y="223" type="curve"/>
			<point x="836" y="629" type="line"/>
		</contour>
		<contour>
			<point x="238" y="430" type="line"/>
			<point x="238" y="567" type="line"/>
			<point x="367" y="567" type="line"/>
			<point x="367" y="430" type="line"/>
		</contour>
		<contour>
			<point x="434" y="567" type="line"/>
			<point x="563" y="567" type="line"/>
			<point x="563" y="430" type="line"/>
			<point x="434" y="430" type="line"/>
		</contour>
	</outline>
</glyph>
<glyph name="卬字旁" format="2">
	<unicode hex="E057"/>
	<advance width="1000"/>
	<outline>
		<contour>
			<point x="387" y="-7" type="curve"/>
			<point x="414" y="8"/>
			<point x="453" y="20"/>
			<point x="758" y="122" type="curve"/>
			<point x="758" y="137"/>
			<point x="754" y="168"/>
			<point x="754" y="188" type="curve"/>
			<point x="469" y="102" type="line"/>
			<point x="469" y="625" type="line"/>
			<point x="559" y="649"/>
			<point x="672" y="684"/>
			<point x="762" y="723" type="curve"/>
			<point x="699" y="782" type="line"/>
			<point x="617" y="743"/>
			<point x="484" y="696"/>
			<point x="391" y="672" type="curve"/>
			<point x="391" y="125" type="line"/>
			<point x="391" y="90"/>
			<point x="371" y="75"/>
			<point x="355" y="67" type="curve"/>
			<point x="367" y="47"/>
			<point x="383" y="8"/>
		</contour>
	</outline>
</glyph>
<glyph name="永无点" format="2">
	<unicode hex="E059"/>
	<advance width="1000"/>
	<outline>
		<contour>
			<point x="59" y="461" type="line"/>
			<point x="59" y="387" type="line"/>
			<point x="297" y="387" type="line"/>
			<point x="246" y="243"/>
			<point x="148" y="125"/>
			<point x="35" y="59" type="curve"/>
			<point x="55" y="47"/>
			<point x="82" y="20"/>
			<point x="94" y="4" type="curve"/>
			<point x="223" y="86"/>
			<point x="340" y="235"/>
			<point x="391" y="442" type="curve"/>
			<point x="344" y="461" type="line"/>
			<point x="328" y="461" type="line"/>
		</contour>
		<contour>
			<point x="863" y="583" type="line"/>
			<point x="805" y="516"/>
			<point x="711" y="430"/>
			<point x="629" y="372" type="curve"/>
			<point x="594" y="434"/>
			<point x="566" y="504"/>
			<point x="543" y="579" type="curve"/>
			<point x="543" y="653" type="line"/>
			<point x="188" y="653" type="line"/>
			<point x="188" y="583" type="line"/>
			<point x="465" y="583" type="line"/>
			<point x="465" y="40" type="line"/>
			<point x="465" y="20"/>
			<point x="457" y="16"/>
			<point x="441" y="16" type="curve"/>
			<point x="426" y="16"/>
			<point x="363" y="16"/>
			<point x="305" y="16" type="curve"/>
			<point x="316" y="-3"/>
			<point x="328" y="-39"/>
			<point x="332" y="-58" type="curve"/>
			<point x="414" y="-58"/>
			<point x="469" y="-58"/>
			<point x="500" y="-46" type="curve"/>
			<point x="531" y="-31"/>
			<point x="543" y="-11"/>
			<point x="543" y="36" type="curve"/>
			<point x="543" y="391" type="line"/>
			<point x="625" y="211"/>
			<point x="746" y="79"/>
			<point x="914" y="4" type="curve"/>
			<point x="926" y="28"/>
			<point x="949" y="55"/>
			<point x="965" y="71" type="curve"/>
			<point x="840" y="118"/>
			<point x="738" y="204"/>
			<point x="664" y="317" type="curve"/>
			<point x="750" y="372"/>
			<point x="852" y="458"/>
			<point x="930" y="532" type="curve"/>
		</contour>
	</outline>
</glyph>
<glyph name="凸无横" format="2">
	<unicode hex="E05D"/>
	<advance width="1000"/>
	<outline>
		<contour>
			<point x="832" y="-50" type="line"/>
			<point x="832" y="-117" type="line"/>
			<point x="906" y="-117" type="line"/>
			<point x="906" y="411" type="line"/>
			<point x="703" y="411" type="line"/>
			<point x="703" y="723" type="line"/>
			<point x="305" y="723" type="line"/>
			<point x="305" y="411" type="line"/>
			<point x="102" y="411" type="line"/>
			<point x="102" y="-125" type="line"/>
			<point x="176" y="-125" type="line"/>
			<point x="176" y="340" type="line"/>
			<point x="375" y="340" type="line"/>
			<point x="375" y="653" type="line"/>
			<point x="629" y="653" type="line"/>
			<point x="629" y="340" type="line"/>
			<point x="832" y="340" type="line"/>
			<point x="828" y="16" type="line"/>
		</contour>
	</outline>
</glyph>
<glyph name="凹无横" format="2">
	<unicode hex="E060"/>
	<advance width="1000"/>
	<outline>
		<contour>
			<point x="172" y="700" type="line"/>
			<point x="344" y="700" type="line"/>
			<point x="344" y="352" type="line"/>
			<point x="648" y="352" type="line"/>
			<point x="648" y="700" type="line"/>
			<point x="824" y="700" type="line"/>
			<point x="824" y="-35" type="line"/>
			<point x="898" y="-35" type="line"/>
			<point x="898" y="770" type="line"/>
			<point x="578" y="770" type="line"/>
			<point x="578" y="422" type="line"/>
			<point x="418" y="422" type="line"/>
			<point x="418" y="770" type="line"/>
			<point x="102" y="770" type="line"/>
			<point x="102" y="-42" type="line"/>
			<point x="172" y="-42" type="line"/>
		</contour>
	</outline>
</glyph>
<glyph name="帶字头无一" format="2">
	<unicode hex="E065"/>
	<advance width="1000"/>
	<outline>
		<contour>
			<point x="436" y="498" type="line"/>
			<point x="436" y="824" type="line"/>
			<point x="368" y="824" type="line"/>
			<point x="368" y="498" type="line"/>
		</contour>
		<contour>
			<point x="59" y="719" type="line"/>
			<point x="59" y="658" type="line"/>
			<point x="944" y="658" type="line"/>
			<point x="944" y="719" type="line"/>
		</contour>
		<contour>
			<point x="722" y="826" type="line"/>
			<point x="722" y="569" type="line"/>
			<point x="722" y="503"/>
			<point x="737" y="485"/>
			<point x="801" y="485" type="curve"/>
			<point x="877" y="485" type="line"/>
			<point x="928" y="485"/>
			<point x="945" y="511"/>
			<point x="952" y="606" type="curve"/>
			<point x="933" y="610"/>
			<point x="907" y="620"/>
			<point x="893" y="630" type="curve"/>
			<point x="891" y="555"/>
			<point x="887" y="544"/>
			<point x="869" y="544" type="curve"/>
			<point x="812" y="544" type="line"/>
			<point x="794" y="544"/>
			<point x="791" y="547"/>
			<point x="791" y="569" type="curve"/>
			<point x="791" y="826" type="line"/>
		</contour>
		<contour>
			<point x="219" y="826" type="line"/>
			<point x="219" y="696" type="line"/>
			<point x="219" y="634"/>
			<point x="203" y="553"/>
			<point x="67" y="508" type="curve"/>
			<point x="82" y="496"/>
			<point x="101" y="474"/>
			<point x="109" y="459" type="curve"/>
			<point x="261" y="518"/>
			<point x="288" y="615"/>
			<point x="288" y="696" type="curve"/>
			<point x="288" y="826" type="line"/>
		</contour>
		<contour>
			<point x="640" y="498" type="line"/>
			<point x="640" y="824" type="line"/>
			<point x="572" y="824" type="line"/>
			<point x="572" y="498" type="line"/>
		</contour>
	</outline>
</glyph>
<glyph name="左字框" format="2">
	<unicode hex="E068"/>
	<advance width="1000"/>
	<outline>
		<contour>
			<point x="465" y="829" type="line"/>
			<point x="461" y="731"/>
			<point x="457" y="641"/>
			<point x="445" y="567" type="curve"/>
			<point x="90" y="567" type="line"/>
			<point x="90" y="489" type="line"/>
			<point x="438" y="489" type="line"/>
			<point x="395" y="258"/>
			<point x="305" y="118"/>
			<point x="86" y="36" type="curve"/>
			<point x="102" y="16"/>
			<point x="125" y="-19"/>
			<point x="137" y="-35" type="curve"/>
			<point x="367" y="67"/>
			<point x="473" y="231"/>
			<point x="516" y="489" type="curve"/>
			<point x="910" y="489" type="line"/>
			<point x="910" y="567" type="line"/>
			<point x="527" y="567" type="line"/>
			<point x="535" y="645"/>
			<point x="543" y="731"/>
			<point x="547" y="825" type="curve"/>
		</contour>
	</outline>
</glyph>
<glyph name="叚字旁无二" format="2">
	<unicode hex="E06B"/>
	<advance width="1000"/>
	<outline>
		<contour>
			<point x="348" y="766" type="line"/>
			<point x="348" y="-78" type="line"/>
			<point x="422" y="-78" type="line"/>
			<point x="422" y="86" type="line"/>
			<point x="422" y="157" type="line"/>
			<point x="422" y="282" type="line"/>
			<point x="422" y="348" type="line"/>
			<point x="422" y="454" type="line"/>
			<point x="711" y="454" type="line"/>
			<point x="711" y="766" type="line"/>
		</contour>
		<contour>
			<point x="422" y="700" type="line"/>
			<point x="637" y="700" type="line"/>
			<point x="637" y="520" type="line"/>
			<point x="422" y="520" type="line"/>
		</contour>
	</outline>
</glyph>
<glyph name="拣字边无七" format="2">
	<unicode hex="E06C"/>
	<advance width="1000"/>
	<outline>
		<contour>
			<point x="633" y="114" type="line"/>
			<point x="633" y="98"/>
			<point x="629" y="94"/>
			<point x="613" y="94" type="curve"/>
			<point x="488" y="94" type="line"/>
			<point x="500" y="75"/>
			<point x="508" y="43"/>
			<point x="512" y="24" type="curve"/>
			<point x="590" y="24"/>
			<point x="637" y="28"/>
			<point x="668" y="36" type="curve"/>
			<point x="699" y="47"/>
			<point x="711" y="71"/>
			<point x="711" y="114" type="curve"/>
			<point x="711" y="579" type="line"/>
			<point x="359" y="579" type="line"/>
			<point x="359" y="508" type="line"/>
			<point x="453" y="508" type="line"/>
			<point x="523" y="508" type="line"/>
			<point x="633" y="508" type="line"/>
		</contour>
		<contour>
			<point x="465" y="333" type="line"/>
			<point x="461" y="321"/>
			<point x="453" y="309"/>
			<point x="445" y="293" type="curve"/>
			<point x="414" y="231"/>
			<point x="367" y="161"/>
			<point x="316" y="114" type="curve"/>
			<point x="332" y="102"/>
			<point x="359" y="83"/>
			<point x="371" y="71" type="curve"/>
			<point x="434" y="133"/>
			<point x="496" y="231"/>
			<point x="535" y="313" type="curve"/>
		</contour>
		<contour>
			<point x="770" y="305" type="line"/>
			<point x="816" y="235"/>
			<point x="875" y="133"/>
			<point x="898" y="79" type="curve"/>
			<point x="965" y="114" type="line"/>
			<point x="934" y="168"/>
			<point x="879" y="262"/>
			<point x="832" y="333" type="curve"/>
		</contour>
	</outline>
</glyph>
<glyph name="争字底" format="2">
	<unicode hex="E06D"/>
	<advance width="1000"/>
	<outline>
		<contour>
			<point x="184" y="598" type="line"/>
			<point x="184" y="532" type="line"/>
			<point x="453" y="532" type="line"/>
			<point x="453" y="422" type="line"/>
			<point x="43" y="422" type="line"/>
			<point x="43" y="356" type="line"/>
			<point x="453" y="356" type="line"/>
			<point x="453" y="235" type="line"/>
			<point x="141" y="235" type="line"/>
			<point x="141" y="168" type="line"/>
			<point x="453" y="168" type="line"/>
			<point x="453" y="36" type="line"/>
			<point x="453" y="20"/>
			<point x="449" y="12"/>
			<point x="430" y="12" type="curve"/>
			<point x="410" y="12"/>
			<point x="348" y="12"/>
			<point x="273" y="12" type="curve"/>
			<point x="285" y="-7"/>
			<point x="301" y="-39"/>
			<point x="305" y="-58" type="curve"/>
			<point x="395" y="-58"/>
			<point x="449" y="-58"/>
			<point x="484" y="-46" type="curve"/>
			<point x="520" y="-35"/>
			<point x="531" y="-11"/>
			<point x="531" y="36" type="curve"/>
			<point x="531" y="168" type="line"/>
			<point x="824" y="168" type="line"/>
			<point x="824" y="356" type="line"/>
			<point x="961" y="356" type="line"/>
			<point x="961" y="422" type="line"/>
			<point x="824" y="422" type="line"/>
			<point x="824" y="598" type="line"/>
			<point x="617" y="598" type="line"/>
		</contour>
		<contour>
			<point x="531" y="532" type="line"/>
			<point x="754" y="532" type="line"/>
			<point x="754" y="422" type="line"/>
			<point x="531" y="422" type="line"/>
		</contour>
		<contour>
			<point x="531" y="356" type="line"/>
			<point x="754" y="356" type="line"/>
			<point x="754" y="235" type="line"/>
			<point x="531" y="235" type="line"/>
		</contour>
		<contour>
			<point x="523" y="598" type="line"/>
			<point x="523" y="598" type="line"/>
		</contour>
	</outline>
</glyph>
<glyph name="妻字头无横" format="2">
	<unicode hex="E06E"/>
	<advance width="1000"/>
	<outline>
		<contour>
			<point x="531" y="278" type="line"/>
			<point x="531" y="157" type="line"/>
			<point x="754" y="157" type="line"/>
			<point x="754" y="278" type="line"/>
		</contour>
		<contour>
			<point x="531" y="454" type="line"/>
			<point x="531" y="344" type="line"/>
			<point x="754" y="344" type="line"/>
			<point x="754" y="454" type="line"/>
		</contour>
		<contour>
			<point x="453" y="520" type="line"/>
			<point x="453" y="704" type="line"/>
			<point x="527" y="704" type="line"/>
			<point x="527" y="520" type="line"/>
			<point x="824" y="520" type="line"/>
			<point x="824" y="344" type="line"/>
			<point x="961" y="344" type="line"/>
			<point x="961" y="278" type="line"/>
			<point x="824" y="278" type="line"/>
			<point x="824" y="90" type="line"/>
			<point x="531" y="90" type="line"/>
			<point x="453" y="90" type="line"/>
			<point x="141" y="90" type="line"/>
			<point x="141" y="157" type="line"/>
			<point x="453" y="157" type="line"/>
			<point x="453" y="278" type="line"/>
			<point x="43" y="278" type="line"/>
			<point x="43" y="344" type="line"/>
			<point x="453" y="344" type="line"/>
			<point x="453" y="454" type="line"/>
			<point x="184" y="454" type="line"/>
			<point x="184" y="520" type="line"/>
		</contour>
	</outline>
</glyph>
<glyph name="临下角" format="2">
	<unicode hex="E070"/>
	<advance width="1000"/>
	<outline>
		<contour>
			<point x="543" y="200" type="line"/>
			<point x="543" y="500" type="line"/>
			<point x="820" y="500" type="line"/>
			<point x="820" y="200" type="line"/>
		</contour>
		<contour>
			<point x="469" y="200" type="line"/>
			<point x="195" y="200" type="line"/>
			<point x="195" y="500" type="line"/>
			<point x="469" y="500" type="line"/>
		</contour>
		<contour>
			<point x="121" y="122" type="line"/>
			<point x="898" y="122" type="line"/>
			<point x="898" y="200" type="line"/>
			<point x="898" y="500" type="line"/>
			<point x="898" y="583" type="line"/>
			<point x="121" y="583" type="line"/>
		</contour>
	</outline>
</glyph>
<glyph name="姊字边无丨丿" format="2">
	<unicode hex="E071"/>
	<advance width="1000"/>
	<outline>
		<contour>
			<point x="707" y="736" type="line"/>
			<point x="609" y="705"/>
			<point x="438" y="679"/>
			<point x="291" y="663" type="curve"/>
			<point x="299" y="647"/>
			<point x="307" y="621"/>
			<point x="310" y="603" type="curve"/>
			<point x="462" y="617"/>
			<point x="641" y="643"/>
			<point x="762" y="678" type="curve"/>
		</contour>
		<contour>
			<point x="289" y="663" type="line"/>
			<point x="281" y="557"/>
			<point x="265" y="414"/>
			<point x="250" y="326" type="curve"/>
			<point x="323" y="326" type="line"/>
			<point x="336" y="409"/>
			<point x="350" y="550"/>
			<point x="359" y="658" type="curve"/>
		</contour>
		<contour>
			<point x="295" y="396" type="line"/>
			<point x="288" y="325" type="line"/>
			<point x="736" y="325" type="line"/>
			<point x="736" y="396" type="line"/>
		</contour>
		<contour>
			<point x="710" y="396" type="line"/>
			<point x="710" y="384" type="line"/>
			<point x="704" y="188"/>
			<point x="697" y="121"/>
			<point x="685" y="104" type="curve"/>
			<point x="679" y="95"/>
			<point x="673" y="93"/>
			<point x="662" y="94" type="curve"/>
			<point x="651" y="94"/>
			<point x="629" y="94"/>
			<point x="601" y="97" type="curve"/>
			<point x="611" y="78"/>
			<point x="617" y="47"/>
			<point x="619" y="25" type="curve"/>
			<point x="650" y="23"/>
			<point x="680" y="24"/>
			<point x="698" y="26" type="curve"/>
			<point x="720" y="29"/>
			<point x="734" y="36"/>
			<point x="748" y="53" type="curve"/>
			<point x="768" y="79"/>
			<point x="775" y="157"/>
			<point x="782" y="365" type="curve"/>
			<point x="782" y="376"/>
			<point x="782" y="397"/>
			<point x="782" y="397" type="curve"/>
		</contour>
	</outline>
</glyph>
<glyph name="步字底" format="2">
	<unicode hex="E073"/>
	<advance width="1000"/>
	<outline>
		<contour>
			<point x="465" y="481" type="line"/>
			<point x="465" y="165" type="line"/>
			<point x="535" y="165" type="line"/>
			<point x="410" y="90"/>
			<point x="250" y="43"/>
			<point x="51" y="16" type="curve"/>
			<point x="66" y="-3"/>
			<point x="82" y="-35"/>
			<point x="90" y="-54" type="curve"/>
			<point x="473" y="4"/>
			<point x="727" y="137"/>
			<point x="859" y="399" type="curve"/>
			<point x="789" y="430" type="line"/>
			<point x="734" y="321"/>
			<point x="652" y="235"/>
			<point x="543" y="168" type="curve"/>
			<point x="543" y="481" type="line"/>
		</contour>
		<contour>
			<point x="289" y="442" type="line"/>
			<point x="242" y="360"/>
			<point x="164" y="278"/>
			<point x="90" y="223" type="curve"/>
			<point x="105" y="211"/>
			<point x="133" y="180"/>
			<point x="145" y="168" type="curve"/>
			<point x="223" y="231"/>
			<point x="309" y="325"/>
			<point x="363" y="415" type="curve"/>
		</contour>
	</outline>
</glyph>
<glyph name="武字框" format="2">
	<unicode hex="E074"/>
	<advance width="1000"/>
	<outline>
		<contour>
			<point x="723" y="762" type="line"/>
			<point x="777" y="719"/>
			<point x="844" y="657"/>
			<point x="871" y="618" type="curve"/>
			<point x="926" y="661" type="line"/>
			<point x="895" y="704"/>
			<point x="832" y="762"/>
			<point x="773" y="801" type="curve"/>
		</contour>
		<contour>
			<point x="137" y="762" type="line"/>
			<point x="137" y="692" type="line"/>
			<point x="520" y="692" type="line"/>
			<point x="520" y="762" type="line"/>
		</contour>
		<contour>
			<point x="598" y="817" type="line"/>
			<point x="598" y="735"/>
			<point x="602" y="653"/>
			<point x="605" y="579" type="curve"/>
			<point x="55" y="579" type="line"/>
			<point x="55" y="508" type="line"/>
			<point x="609" y="508" type="line"/>
			<point x="633" y="161"/>
			<point x="703" y="-101"/>
			<point x="852" y="-101" type="curve"/>
			<point x="926" y="-101"/>
			<point x="953" y="-50"/>
			<point x="965" y="122" type="curve"/>
			<point x="945" y="129"/>
			<point x="918" y="145"/>
			<point x="902" y="165" type="curve"/>
			<point x="898" y="28"/>
			<point x="887" y="-27"/>
			<point x="859" y="-27" type="curve"/>
			<point x="770" y="-27"/>
			<point x="703" y="192"/>
			<point x="684" y="508" type="curve"/>
			<point x="945" y="508" type="line"/>
			<point x="945" y="579" type="line"/>
			<point x="680" y="579" type="line"/>
			<point x="676" y="653"/>
			<point x="672" y="735"/>
			<point x="676" y="817" type="curve"/>
		</contour>
	</outline>
</glyph>
<glyph name="段字旁" format="2">
	<unicode hex="E075"/>
	<advance width="1000"/>
	<outline>
		<contour>
			<point x="352" y="731" type="line"/>
			<point x="352" y="149" type="line"/>
			<point x="266" y="137" type="line"/>
			<point x="277" y="67" type="line"/>
			<point x="352" y="79" type="line"/>
			<point x="352" y="-85" type="line"/>
			<point x="422" y="-85" type="line"/>
			<point x="422" y="90" type="line"/>
			<point x="668" y="129" type="line"/>
			<point x="664" y="196" type="line"/>
			<point x="422" y="161" type="line"/>
			<point x="422" y="305" type="line"/>
			<point x="648" y="305" type="line"/>
			<point x="648" y="372" type="line"/>
			<point x="422" y="372" type="line"/>
			<point x="422" y="508" type="line"/>
			<point x="648" y="508" type="line"/>
			<point x="648" y="579" type="line"/>
			<point x="422" y="579" type="line"/>
			<point x="422" y="684" type="line"/>
			<point x="512" y="708"/>
			<point x="605" y="739"/>
			<point x="676" y="770" type="curve"/>
			<point x="617" y="829" type="line"/>
			<point x="555" y="793"/>
			<point x="445" y="754"/>
			<point x="352" y="731" type="curve"/>
		</contour>
	</outline>
</glyph>
<glyph name="卧人" format="2">
	<unicode hex="E078"/>
	<advance width="1000"/>
	<outline>
		<contour>
			<point x="301" y="676" type="line"/>
			<point x="238" y="508"/>
			<point x="145" y="340"/>
			<point x="35" y="235" type="curve"/>
			<point x="55" y="223"/>
			<point x="94" y="200"/>
			<point x="109" y="188" type="curve"/>
			<point x="164" y="247"/>
			<point x="219" y="325"/>
			<point x="266" y="411" type="curve"/>
			<point x="938" y="411" type="line"/>
			<point x="938" y="485" type="line"/>
			<point x="305" y="485" type="line"/>
			<point x="332" y="540"/>
			<point x="359" y="598"/>
			<point x="379" y="657" type="curve"/>
		</contour>
	</outline>
</glyph>
<glyph name="比字旁" format="2">
	<unicode hex="E079"/>
	<advance width="1000"/>
	<outline>
		<contour>
			<point x="438" y="-89" type="curve"/>
			<point x="461" y="-74"/>
			<point x="500" y="-58"/>
			<point x="773" y="32" type="curve"/>
			<point x="770" y="47"/>
			<point x="766" y="83"/>
			<point x="770" y="106" type="curve"/>
			<point x="523" y="32" type="line"/>
			<point x="523" y="438" type="line"/>
			<point x="770" y="438" type="line"/>
			<point x="770" y="512" type="line"/>
			<point x="523" y="512" type="line"/>
			<point x="523" y="809" type="line"/>
			<point x="441" y="809" type="line"/>
			<point x="441" y="51" type="line"/>
			<point x="441" y="8"/>
			<point x="418" y="-15"/>
			<point x="402" y="-27" type="curve"/>
			<point x="414" y="-42"/>
			<point x="434" y="-74"/>
		</contour>
	</outline>
</glyph>
<glyph name="韦无二" format="2">
	<unicode hex="E07B"/>
	<advance width="1000"/>
	<outline>
		<contour>
			<point x="449" y="344" type="line"/>
			<point x="82" y="344" type="line"/>
			<point x="82" y="274" type="line"/>
			<point x="449" y="274" type="line"/>
			<point x="449" y="-58" type="line"/>
			<point x="527" y="-58" type="line"/>
			<point x="527" y="274" type="line"/>
			<point x="848" y="274" type="line"/>
			<point x="836" y="161"/>
			<point x="824" y="110"/>
			<point x="809" y="94" type="curve"/>
			<point x="797" y="86"/>
			<point x="789" y="86"/>
			<point x="770" y="86" type="curve"/>
			<point x="754" y="86"/>
			<point x="707" y="86"/>
			<point x="656" y="90" type="curve"/>
			<point x="668" y="71"/>
			<point x="676" y="43"/>
			<point x="680" y="20" type="curve"/>
			<point x="727" y="16"/>
			<point x="777" y="16"/>
			<point x="801" y="20" type="curve"/>
			<point x="828" y="20"/>
			<point x="848" y="28"/>
			<point x="867" y="47" type="curve"/>
			<point x="895" y="75"/>
			<point x="910" y="145"/>
			<point x="926" y="309" type="curve"/>
			<point x="926" y="321"/>
			<point x="926" y="344"/>
			<point x="926" y="344" type="curve"/>
			<point x="527" y="344" type="line"/>
			<point x="527" y="743" type="line"/>
			<point x="449" y="743" type="line"/>
		</contour>
	</outline>
</glyph>
<glyph name="旅下角" format="2">
	<unicode hex="E07E"/>
	<advance width="1000"/>
	<outline>
		<contour>
			<point x="672" y="629" type="line"/>
			<point x="590" y="590"/>
			<point x="445" y="547"/>
			<point x="316" y="520" type="curve"/>
			<point x="316" y="86" type="line"/>
			<point x="316" y="40"/>
			<point x="297" y="16"/>
			<point x="281" y="4" type="curve"/>
			<point x="293" y="-7"/>
			<point x="313" y="-39"/>
			<point x="320" y="-54" type="curve"/>
			<point x="336" y="-39"/>
			<point x="363" y="-23"/>
			<point x="551" y="63" type="curve"/>
			<point x="543" y="79"/>
			<point x="539" y="110"/>
			<point x="539" y="129" type="curve"/>
			<point x="387" y="63" type="line"/>
			<point x="387" y="473" type="line"/>
			<point x="480" y="497" type="line"/>
			<point x="516" y="258"/>
			<point x="582" y="55"/>
			<point x="715" y="-42" type="curve"/>
			<point x="727" y="-27"/>
			<point x="750" y="4"/>
			<point x="766" y="16" type="curve"/>
			<point x="688" y="71"/>
			<point x="633" y="165"/>
			<point x="598" y="278" type="curve"/>
			<point x="645" y="317"/>
			<point x="707" y="364"/>
			<point x="750" y="411" type="curve"/>
			<point x="699" y="454" type="line"/>
			<point x="668" y="418"/>
			<point x="621" y="375"/>
			<point x="578" y="340" type="curve"/>
			<point x="563" y="395"/>
			<point x="551" y="454"/>
			<point x="543" y="512" type="curve"/>
			<point x="613" y="532"/>
			<point x="680" y="551"/>
			<point x="734" y="575" type="curve"/>
		</contour>
	</outline>
</glyph>
<glyph name="荒字底" format="2">
	<unicode hex="E07F"/>
	<advance width="1000"/>
	<outline>
		<contour>
			<point x="453" y="540" type="line"/>
			<point x="453" y="137" type="line"/>
			<point x="527" y="137" type="line"/>
			<point x="527" y="540" type="line"/>
		</contour>
		<contour>
			<point x="223" y="543" type="line"/>
			<point x="223" y="434" type="line"/>
			<point x="223" y="340"/>
			<point x="207" y="231"/>
			<point x="51" y="153" type="curve"/>
			<point x="66" y="141"/>
			<point x="90" y="114"/>
			<point x="102" y="98" type="curve"/>
			<point x="273" y="188"/>
			<point x="297" y="317"/>
			<point x="297" y="430" type="curve"/>
			<point x="297" y="543" type="line"/>
		</contour>
		<contour>
			<point x="699" y="543" type="line"/>
			<point x="699" y="223" type="line"/>
			<point x="699" y="161"/>
			<point x="703" y="141"/>
			<point x="723" y="129" type="curve"/>
			<point x="738" y="118"/>
			<point x="766" y="110"/>
			<point x="789" y="110" type="curve"/>
			<point x="801" y="110"/>
			<point x="840" y="110"/>
			<point x="855" y="110" type="curve"/>
			<point x="871" y="110"/>
			<point x="898" y="114"/>
			<point x="914" y="118" type="curve"/>
			<point x="930" y="125"/>
			<point x="941" y="137"/>
			<point x="949" y="157" type="curve"/>
			<point x="953" y="172"/>
			<point x="957" y="215"/>
			<point x="961" y="254" type="curve"/>
			<point x="941" y="262"/>
			<point x="910" y="278"/>
			<point x="895" y="290" type="curve"/>
			<point x="895" y="247"/>
			<point x="895" y="215"/>
			<point x="891" y="200" type="curve"/>
			<point x="891" y="188"/>
			<point x="883" y="180"/>
			<point x="875" y="180" type="curve"/>
			<point x="871" y="176"/>
			<point x="859" y="176"/>
			<point x="848" y="176" type="curve"/>
			<point x="832" y="176"/>
			<point x="813" y="176"/>
			<point x="805" y="176" type="curve"/>
			<point x="793" y="176"/>
			<point x="785" y="176"/>
			<point x="781" y="180" type="curve"/>
			<point x="773" y="184"/>
			<point x="773" y="196"/>
			<point x="773" y="215" type="curve"/>
			<point x="773" y="543" type="line"/>
		</contour>
	</outline>
</glyph>
<glyph name="然左角" format="2">
	<unicode hex="E083"/>
	<advance width="1000"/>
	<outline>
		<contour>
			<point x="379" y="493" type="line"/>
			<point x="430" y="461"/>
			<point x="492" y="422"/>
			<point x="535" y="391" type="curve"/>
			<point x="500" y="372"/>
			<point x="461" y="352"/>
			<point x="422" y="340" type="curve"/>
			<point x="383" y="375"/>
			<point x="324" y="415"/>
			<point x="273" y="442" type="curve"/>
			<point x="223" y="411" type="line"/>
			<point x="266" y="383"/>
			<point x="316" y="344"/>
			<point x="352" y="313" type="curve"/>
			<point x="258" y="282"/>
			<point x="156" y="262"/>
			<point x="59" y="250" type="curve"/>
			<point x="70" y="231"/>
			<point x="86" y="200"/>
			<point x="94" y="176" type="curve"/>
			<point x="223" y="200"/>
			<point x="355" y="231"/>
			<point x="480" y="286" type="curve"/>
			<point x="641" y="352"/>
			<point x="777" y="454"/>
			<point x="855" y="594" type="curve"/>
			<point x="805" y="625" type="line"/>
			<point x="793" y="622" type="line"/>
			<point x="492" y="622" type="line"/>
			<point x="516" y="645"/>
			<point x="539" y="665"/>
			<point x="559" y="688" type="curve"/>
			<point x="480" y="708" type="line"/>
			<point x="406" y="622"/>
			<point x="262" y="524"/>
			<point x="70" y="461" type="curve"/>
			<point x="86" y="450"/>
			<point x="105" y="422"/>
			<point x="113" y="407" type="curve"/>
			<point x="230" y="450"/>
			<point x="332" y="500"/>
			<point x="410" y="559" type="curve"/>
			<point x="742" y="559" type="line"/>
			<point x="703" y="508"/>
			<point x="652" y="461"/>
			<point x="594" y="426" type="curve"/>
			<point x="547" y="461"/>
			<point x="484" y="500"/>
			<point x="430" y="524" type="curve"/>
		</contour>
	</outline>
</glyph>
<glyph name="飞无折" format="2">
	<unicode hex="E088"/>
	<advance width="1000"/>
	<outline>
		<contour>
			<point x="707" y="606" type="line"/>
			<point x="656" y="547"/>
			<point x="582" y="473"/>
			<point x="512" y="415" type="curve"/>
			<point x="520" y="313" type="line"/>
			<point x="605" y="266"/>
			<point x="695" y="204"/>
			<point x="746" y="161" type="curve"/>
			<point x="785" y="219" type="line"/>
			<point x="734" y="262"/>
			<point x="641" y="325"/>
			<point x="555" y="368" type="curve"/>
			<point x="629" y="426"/>
			<point x="711" y="504"/>
			<point x="773" y="571" type="curve"/>
		</contour>
	</outline>
</glyph>
<glyph name="刀中" format="2">
	<unicode hex="E089"/>
	<advance width="1000"/>
	<outline>
		<contour>
			<point x="520" y="860" type="line"/>
			<point x="520" y="434" type="line"/>
			<point x="520" y="254"/>
			<point x="500" y="98"/>
			<point x="324" y="-7" type="curve"/>
			<point x="340" y="-19"/>
			<point x="363" y="-46"/>
			<point x="371" y="-62" type="curve"/>
			<point x="563" y="55"/>
			<point x="590" y="231"/>
			<point x="590" y="434" type="curve"/>
			<point x="590" y="860" type="line"/>
		</contour>
		<contour>
			<point x="375" y="653" type="line"/>
			<point x="375" y="524"/>
			<point x="371" y="395"/>
			<point x="328" y="321" type="curve"/>
			<point x="383" y="282" type="line"/>
			<point x="430" y="368"/>
			<point x="434" y="508"/>
			<point x="438" y="645" type="curve"/>
		</contour>
	</outline>
</glyph>
<glyph name="璺字头框" format="2">
	<unicode hex="E08B"/>
	<advance width="1000"/>
	<outline>
		<contour>
			<point x="137" y="723" type="curve"/>
			<point x="156" y="422" type="line"/>
			<point x="78" y="422" type="line"/>
			<point x="78" y="243" type="line"/>
			<point x="148" y="243" type="line"/>
			<point x="148" y="368" type="line"/>
			<point x="855" y="368" type="line"/>
			<point x="855" y="243" type="line"/>
			<point x="930" y="243" type="line"/>
			<point x="930" y="422" type="line"/>
			<point x="852" y="422" type="line"/>
			<point x="859" y="512"/>
			<point x="871" y="641"/>
			<point x="875" y="743" type="curve"/>
			<point x="641" y="743" type="line"/>
			<point x="641" y="692" type="line"/>
			<point x="801" y="692" type="line"/>
			<point x="797" y="637" type="line"/>
			<point x="645" y="637" type="line"/>
			<point x="645" y="586" type="line"/>
			<point x="793" y="586" type="line"/>
			<point x="789" y="532" type="line"/>
			<point x="641" y="532" type="line"/>
			<point x="641" y="481" type="line"/>
			<point x="785" y="481" type="line"/>
			<point x="781" y="422" type="line"/>
			<point x="227" y="422" type="line"/>
			<point x="223" y="481" type="line"/>
			<point x="363" y="481" type="line"/>
			<point x="363" y="532" type="line"/>
			<point x="219" y="532" type="line"/>
			<point x="215" y="586" type="line"/>
			<point x="359" y="586" type="line"/>
			<point x="359" y="637" type="line"/>
			<point x="215" y="637" type="line"/>
			<point x="211" y="688" type="line"/>
			<point x="262" y="700"/>
			<point x="320" y="711"/>
			<point x="367" y="727" type="curve"/>
			<point x="332" y="774" type="line"/>
			<point x="281" y="758"/>
			<point x="195" y="735"/>
		</contour>
	</outline>
</glyph>
<glyph name="甬字底" format="2">
	<unicode hex="E08C"/>
	<advance width="1000"/>
	<outline>
		<contour>
			<point x="207" y="403" type="line"/>
			<point x="207" y="516" type="line"/>
			<point x="461" y="516" type="line"/>
			<point x="461" y="403" type="line"/>
		</contour>
		<contour>
			<point x="207" y="340" type="line"/>
			<point x="461" y="340" type="line"/>
			<point x="461" y="219" type="line"/>
			<point x="207" y="219" type="line"/>
		</contour>
		<contour>
			<point x="797" y="403" type="line"/>
			<point x="535" y="403" type="line"/>
			<point x="535" y="516" type="line"/>
			<point x="797" y="516" type="line"/>
		</contour>
		<contour>
			<point x="797" y="340" type="line"/>
			<point x="797" y="219" type="line"/>
			<point x="535" y="219" type="line"/>
			<point x="535" y="340" type="line"/>
		</contour>
		<contour>
			<point x="133" y="583" type="line"/>
			<point x="133" y="-58" type="line"/>
			<point x="207" y="-58" type="line"/>
			<point x="207" y="157" type="line"/>
			<point x="461" y="157" type="line"/>
			<point x="461" y="-54" type="line"/>
			<point x="535" y="-54" type="line"/>
			<point x="535" y="157" type="line"/>
			<point x="797" y="157" type="line"/>
			<point x="797" y="28" type="line"/>
			<point x="797" y="12"/>
			<point x="793" y="8"/>
			<point x="777" y="8" type="curve"/>
			<point x="758" y="4"/>
			<point x="699" y="4"/>
			<point x="637" y="8" type="curve"/>
			<point x="645" y="-11"/>
			<point x="656" y="-42"/>
			<point x="660" y="-62" type="curve"/>
			<point x="746" y="-62"/>
			<point x="797" y="-62"/>
			<point x="832" y="-50" type="curve"/>
			<point x="863" y="-39"/>
			<point x="875" y="-15"/>
			<point x="875" y="28" type="curve"/>
			<point x="875" y="583" type="line"/>
		</contour>
	</outline>
</glyph>
<glyph name="畏字底带横" format="2">
	<unicode hex="E08D"/>
	<advance width="1000"/>
	<outline>
		<contour>
			<point x="191" y="-23" type="curve"/>
			<point x="211" y="-7"/>
			<point x="246" y="0"/>
			<point x="523" y="63" type="curve"/>
			<point x="523" y="79"/>
			<point x="520" y="110"/>
			<point x="523" y="129" type="curve"/>
			<point x="281" y="75" type="line"/>
			<point x="281" y="344" type="line"/>
			<point x="465" y="344" type="line"/>
			<point x="551" y="157"/>
			<point x="699" y="36"/>
			<point x="918" y="-15" type="curve"/>
			<point x="926" y="4"/>
			<point x="945" y="36"/>
			<point x="961" y="51" type="curve"/>
			<point x="855" y="71"/>
			<point x="762" y="110"/>
			<point x="688" y="168" type="curve"/>
			<point x="754" y="200"/>
			<point x="832" y="239"/>
			<point x="895" y="282" type="curve"/>
			<point x="832" y="325" type="line"/>
			<point x="785" y="290"/>
			<point x="707" y="243"/>
			<point x="637" y="208" type="curve"/>
			<point x="598" y="247"/>
			<point x="566" y="293"/>
			<point x="539" y="344" type="curve"/>
			<point x="938" y="344" type="line"/>
			<point x="938" y="411" type="line"/>
			<point x="59" y="411" type="line"/>
			<point x="59" y="344" type="line"/>
			<point x="207" y="344" type="line"/>
			<point x="207" y="122" type="line"/>
			<point x="207" y="79"/>
			<point x="180" y="59"/>
			<point x="160" y="47" type="curve"/>
			<point x="172" y="32"/>
			<point x="188" y="-3"/>
		</contour>
	</outline>
</glyph>
<glyph name="留上角" format="2">
	<unicode hex="E08E"/>
	<advance width="1000"/>
	<outline>
		<contour>
			<point x="352" y="176" type="line"/>
			<point x="371" y="192"/>
			<point x="402" y="204"/>
			<point x="629" y="262" type="curve"/>
			<point x="637" y="243"/>
			<point x="645" y="223"/>
			<point x="652" y="208" type="curve"/>
			<point x="715" y="235" type="line"/>
			<point x="699" y="293"/>
			<point x="648" y="383"/>
			<point x="602" y="450" type="curve"/>
			<point x="539" y="426" type="line"/>
			<point x="559" y="395"/>
			<point x="582" y="360"/>
			<point x="598" y="325" type="curve"/>
			<point x="422" y="278" type="line"/>
			<point x="422" y="497" type="line"/>
			<point x="516" y="516"/>
			<point x="613" y="540"/>
			<point x="684" y="571" type="curve"/>
			<point x="633" y="625" type="line"/>
			<point x="566" y="594"/>
			<point x="449" y="563"/>
			<point x="348" y="540" type="curve"/>
			<point x="348" y="321" type="line"/>
			<point x="348" y="274"/>
			<point x="328" y="247"/>
			<point x="313" y="235" type="curve"/>
			<point x="324" y="223"/>
			<point x="344" y="196"/>
			<point x="352" y="180" type="curve"/>
		</contour>
	</outline>
</glyph>
<glyph name="屯无横" format="2">
	<unicode hex="E092"/>
	<advance width="1000"/>
	<outline>
		<contour>
			<point x="137" y="571" type="line"/>
			<point x="137" y="227" type="line"/>
			<point x="453" y="227" type="line"/>
			<point x="453" y="94" type="line"/>
			<point x="453" y="-15"/>
			<point x="484" y="-42"/>
			<point x="598" y="-42" type="curve"/>
			<point x="621" y="-42"/>
			<point x="801" y="-42"/>
			<point x="828" y="-42" type="curve"/>
			<point x="926" y="-42"/>
			<point x="949" y="0"/>
			<point x="961" y="122" type="curve"/>
			<point x="941" y="125"/>
			<point x="910" y="141"/>
			<point x="891" y="153" type="curve"/>
			<point x="883" y="51"/>
			<point x="875" y="24"/>
			<point x="824" y="24" type="curve"/>
			<point x="789" y="24"/>
			<point x="633" y="24"/>
			<point x="602" y="24" type="curve"/>
			<point x="539" y="24"/>
			<point x="527" y="36"/>
			<point x="527" y="94" type="curve"/>
			<point x="527" y="227" type="line"/>
			<point x="852" y="227" type="line"/>
			<point x="852" y="571" type="line"/>
			<point x="773" y="571" type="line"/>
			<point x="773" y="297" type="line"/>
			<point x="527" y="297" type="line"/>
			<point x="527" y="649" type="line"/>
			<point x="527" y="719" type="line"/>
			<point x="527" y="801" type="line"/>
			<point x="453" y="801" type="line"/>
			<point x="453" y="719" type="line"/>
			<point x="453" y="649" type="line"/>
			<point x="453" y="297" type="line"/>
			<point x="211" y="297" type="line"/>
			<point x="211" y="571" type="line"/>
		</contour>
	</outline>
</glyph>
<glyph name="盥左角" format="2">
	<unicode hex="E095"/>
	<advance width="1000"/>
	<outline>
		<contour>
			<point x="305" y="715" type="line"/>
			<point x="305" y="-54" type="line"/>
			<point x="379" y="-54" type="line"/>
			<point x="379" y="20" type="line"/>
			<point x="652" y="20" type="line"/>
			<point x="652" y="94" type="line"/>
			<point x="379" y="94" type="line"/>
			<point x="379" y="344" type="line"/>
			<point x="637" y="344" type="line"/>
			<point x="637" y="418" type="line"/>
			<point x="379" y="418" type="line"/>
			<point x="379" y="633" type="line"/>
			<point x="484" y="680"/>
			<point x="602" y="735"/>
			<point x="688" y="793" type="curve"/>
			<point x="625" y="860" type="line"/>
			<point x="559" y="805"/>
			<point x="457" y="747"/>
			<point x="359" y="704" type="curve"/>
		</contour>
	</outline>
</glyph>
<glyph name="具字头无横" format="2">
	<unicode hex="E099"/>
	<advance width="1000"/>
	<outline>
		<contour>
			<point x="727" y="24" type="line"/>
			<point x="801" y="24" type="line"/>
			<point x="801" y="700" type="line"/>
			<point x="211" y="700" type="line"/>
			<point x="211" y="24" type="line"/>
			<point x="281" y="24" type="line"/>
			<point x="281" y="129" type="line"/>
			<point x="727" y="129" type="line"/>
		</contour>
		<contour>
			<point x="281" y="461" type="line"/>
			<point x="727" y="461" type="line"/>
			<point x="727" y="364" type="line"/>
			<point x="281" y="364" type="line"/>
		</contour>
		<contour>
			<point x="281" y="528" type="line"/>
			<point x="281" y="625" type="line"/>
			<point x="727" y="625" type="line"/>
			<point x="727" y="528" type="line"/>
		</contour>
		<contour>
			<point x="281" y="297" type="line"/>
			<point x="727" y="297" type="line"/>
			<point x="727" y="196" type="line"/>
			<point x="281" y="196" type="line"/>
		</contour>
	</outline>
</glyph>
<glyph name="祭字头" format="2">
	<unicode hex="E09B"/>
	<advance width="1000"/>
	<outline>
		<contour>
			<point x="797" y="653" type="line"/>
			<point x="766" y="602"/>
			<point x="727" y="543"/>
			<point x="688" y="500" type="curve"/>
			<point x="652" y="547"/>
			<point x="625" y="598"/>
			<point x="602" y="653" type="curve"/>
		</contour>
		<contour>
			<point x="332" y="395" type="line"/>
			<point x="406" y="473"/>
			<point x="469" y="575"/>
			<point x="508" y="696" type="curve"/>
			<point x="461" y="715" type="line"/>
			<point x="445" y="711" type="line"/>
			<point x="293" y="711" type="line"/>
			<point x="305" y="731"/>
			<point x="313" y="750"/>
			<point x="320" y="770" type="curve"/>
			<point x="250" y="782" type="line"/>
			<point x="215" y="704"/>
			<point x="148" y="606"/>
			<point x="51" y="532" type="curve"/>
			<point x="66" y="524"/>
			<point x="86" y="500"/>
			<point x="98" y="485" type="curve"/>
			<point x="160" y="536"/>
			<point x="211" y="590"/>
			<point x="254" y="653" type="curve"/>
			<point x="418" y="653" type="line"/>
			<point x="398" y="610"/>
			<point x="379" y="575"/>
			<point x="355" y="540" type="curve"/>
			<point x="328" y="555"/>
			<point x="289" y="579"/>
			<point x="258" y="594" type="curve"/>
			<point x="219" y="551" type="line"/>
			<point x="254" y="536"/>
			<point x="293" y="512"/>
			<point x="320" y="489" type="curve"/>
			<point x="301" y="465"/>
			<point x="277" y="442"/>
			<point x="258" y="418" type="curve"/>
			<point x="227" y="442"/>
			<point x="191" y="469"/>
			<point x="160" y="489" type="curve"/>
			<point x="113" y="450" type="line"/>
			<point x="145" y="430"/>
			<point x="180" y="403"/>
			<point x="211" y="379" type="curve"/>
			<point x="152" y="336"/>
			<point x="94" y="301"/>
			<point x="31" y="282" type="curve"/>
			<point x="47" y="266"/>
			<point x="66" y="239"/>
			<point x="74" y="219" type="curve"/>
			<point x="160" y="254"/>
			<point x="242" y="309"/>
			<point x="313" y="375" type="curve"/>
		</contour>
		<contour>
			<point x="691" y="383" type="line"/>
			<point x="754" y="317"/>
			<point x="832" y="266"/>
			<point x="922" y="231" type="curve"/>
			<point x="934" y="250"/>
			<point x="953" y="278"/>
			<point x="969" y="293" type="curve"/>
			<point x="871" y="325"/>
			<point x="793" y="379"/>
			<point x="727" y="450" type="curve"/>
			<point x="789" y="516"/>
			<point x="859" y="606"/>
			<point x="906" y="688" type="curve"/>
			<point x="855" y="723" type="line"/>
			<point x="844" y="715" type="line"/>
			<point x="578" y="715" type="line"/>
			<point x="563" y="770" type="line"/>
			<point x="500" y="758" type="line"/>
			<point x="539" y="610"/>
			<point x="598" y="489"/>
			<point x="684" y="395" type="curve"/>
		</contour>
	</outline>
</glyph>
<glyph name="面字心" format="2">
	<unicode hex="E09C"/>
	<advance width="1000"/>
	<outline>
		<contour>
			<point x="598" y="489" type="line"/>
			<point x="598" y="305" type="line"/>
			<point x="402" y="305" type="line"/>
			<point x="402" y="489" type="line"/>
		</contour>
		<contour>
			<point x="598" y="723" type="line"/>
			<point x="598" y="555" type="line"/>
			<point x="402" y="555" type="line"/>
			<point x="402" y="723" type="line"/>
			<point x="332" y="723" type="line"/>
			<point x="332" y="-7" type="line"/>
			<point x="402" y="-7" type="line"/>
			<point x="402" y="239" type="line"/>
			<point x="598" y="239" type="line"/>
			<point x="598" y="-7" type="line"/>
			<point x="672" y="-7" type="line"/>
			<point x="672" y="723" type="line"/>
		</contour>
	</outline>
</glyph>
<glyph name="倉字腰带丶" format="2">
	<unicode hex="E09D"/>
	<advance width="1000"/>
	<outline>
		<contour>
			<point x="257" y="408" type="line"/>
			<point x="257" y="358" type="line"/>
			<point x="773" y="358" type="line"/>
			<point x="773" y="408" type="line"/>
		</contour>
		<contour>
			<point x="207" y="523" type="line"/>
			<point x="207" y="385" type="line"/>
			<point x="207" y="267"/>
			<point x="187" y="110"/>
			<point x="49" y="-3" type="curve"/>
			<point x="65" y="-12"/>
			<point x="94" y="-39"/>
			<point x="105" y="-54" type="curve"/>
			<point x="253" y="67"/>
			<point x="282" y="251"/>
			<point x="282" y="384" type="curve"/>
			<point x="282" y="524" type="line"/>
		</contour>
		<contour>
			<point x="266" y="524" type="line"/>
			<point x="266" y="472" type="line"/>
			<point x="718" y="472" type="line"/>
			<point x="718" y="291" type="line"/>
			<point x="260" y="291" type="line"/>
			<point x="260" y="239" type="line"/>
			<point x="790" y="239" type="line"/>
			<point x="790" y="523" type="line"/>
		</contour>
		<contour>
			<point x="419" y="620" type="line"/>
			<point x="460" y="591"/>
			<point x="509" y="548"/>
			<point x="533" y="520" type="curve"/>
			<point x="587" y="560" type="line"/>
			<point x="563" y="588"/>
			<point x="512" y="628"/>
			<point x="472" y="655" type="curve"/>
		</contour>
	</outline>
</glyph>
<glyph name="索字头" format="2">
	<unicode hex="E0A0"/>
	<advance width="1000"/>
	<outline>
		<contour>
			<point x="863" y="547" type="line"/>
			<point x="863" y="426" type="line"/>
			<point x="938" y="426" type="line"/>
			<point x="938" y="614" type="line"/>
			<point x="539" y="614" type="line"/>
			<point x="539" y="708" type="line"/>
			<point x="926" y="708" type="line"/>
			<point x="926" y="774" type="line"/>
			<point x="539" y="774" type="line"/>
			<point x="539" y="860" type="line"/>
			<point x="461" y="860" type="line"/>
			<point x="461" y="774" type="line"/>
			<point x="78" y="774" type="line"/>
			<point x="78" y="708" type="line"/>
			<point x="461" y="708" type="line"/>
			<point x="461" y="614" type="line"/>
			<point x="66" y="614" type="line"/>
			<point x="66" y="426" type="line"/>
			<point x="137" y="426" type="line"/>
			<point x="137" y="547" type="line"/>
		</contour>
	</outline>
</glyph>
<glyph name="民字框" format="2">
	<unicode hex="E0A3"/>
	<advance width="1000"/>
	<outline>
		<contour>
			<point x="828" y="516" type="line"/>
			<point x="828" y="809" type="line"/>
			<point x="117" y="809" type="line"/>
			<point x="117" y="79" type="line"/>
			<point x="117" y="36"/>
			<point x="90" y="12"/>
			<point x="70" y="4" type="curve"/>
			<point x="82" y="-11"/>
			<point x="102" y="-46"/>
			<point x="105" y="-66" type="curve"/>
			<point x="133" y="-50"/>
			<point x="172" y="-39"/>
			<point x="473" y="51" type="curve"/>
			<point x="469" y="71"/>
			<point x="465" y="102"/>
			<point x="465" y="122" type="curve"/>
			<point x="191" y="47" type="line"/>
			<point x="191" y="516" type="line"/>
		</contour>
		<contour>
			<point x="191" y="739" type="line"/>
			<point x="754" y="739" type="line"/>
			<point x="754" y="586" type="line"/>
			<point x="191" y="586" type="line"/>
		</contour>
	</outline>
</glyph>
<glyph name="舞字头无卧人" format="2">
	<unicode hex="E0AA"/>
	<advance width="1000"/>
	<outline>
		<contour>
			<point x="625" y="395" type="line"/>
			<point x="734" y="395" type="line"/>
			<point x="734" y="297" type="line"/>
			<point x="625" y="297" type="line"/>
		</contour>
		<contour>
			<point x="445" y="395" type="line"/>
			<point x="559" y="395" type="line"/>
			<point x="559" y="297" type="line"/>
			<point x="445" y="297" type="line"/>
		</contour>
		<contour>
			<point x="273" y="395" type="line"/>
			<point x="383" y="395" type="line"/>
			<point x="383" y="297" type="line"/>
			<point x="273" y="297" type="line"/>
		</contour>
		<contour>
			<point x="734" y="563" type="line"/>
			<point x="734" y="461" type="line"/>
			<point x="625" y="461" type="line"/>
			<point x="625" y="563" type="line"/>
			<point x="559" y="563" type="line"/>
			<point x="559" y="461" type="line"/>
			<point x="445" y="461" type="line"/>
			<point x="445" y="559" type="line"/>
			<point x="383" y="559" type="line"/>
			<point x="383" y="461" type="line"/>
			<point x="273" y="461" type="line"/>
			<point x="273" y="559" type="line"/>
			<point x="203" y="559" type="line"/>
			<point x="203" y="461" type="line"/>
			<point x="105" y="461" type="line"/>
			<point x="105" y="395" type="line"/>
			<point x="203" y="395" type="line"/>
			<point x="203" y="297" type="line"/>
			<point x="51" y="297" type="line"/>
			<point x="51" y="231" type="line"/>
			<point x="953" y="231" type="line"/>
			<point x="953" y="297" type="line"/>
			<point x="805" y="297" type="line"/>
			<point x="805" y="395" type="line"/>
			<point x="918" y="395" type="line"/>
			<point x="918" y="461" type="line"/>
			<point x="805" y="461" type="line"/>
			<point x="805" y="563" type="line"/>
		</contour>
	</outline>
</glyph>
<glyph name="高头" format="2">
	<unicode hex="E0AC"/>
	<advance width="1000"/>
	<outline>
		<contour>
			<point x="74" y="536" type="line"/>
			<point x="74" y="379" type="line"/>
			<point x="141" y="379" type="line"/>
			<point x="141" y="489" type="line"/>
			<point x="863" y="489" type="line"/>
			<point x="863" y="379" type="line"/>
			<point x="930" y="379" type="line"/>
			<point x="930" y="536" type="line"/>
		</contour>
		<contour>
			<point x="270" y="661" type="line"/>
			<point x="730" y="661" type="line"/>
			<point x="730" y="610" type="line"/>
			<point x="270" y="610" type="line"/>
		</contour>
		<contour>
			<point x="195" y="700" type="line"/>
			<point x="195" y="575" type="line"/>
			<point x="809" y="575" type="line"/>
			<point x="809" y="700" type="line"/>
		</contour>
		<contour>
			<point x="309" y="415" type="line"/>
			<point x="691" y="415" type="line"/>
			<point x="691" y="364" type="line"/>
			<point x="309" y="364" type="line"/>
		</contour>
		<contour>
			<point x="234" y="450" type="line"/>
			<point x="234" y="329" type="line"/>
			<point x="766" y="329" type="line"/>
			<point x="766" y="450" type="line"/>
		</contour>
		<contour>
			<point x="445" y="848" type="line"/>
			<point x="453" y="833"/>
			<point x="465" y="813"/>
			<point x="473" y="793" type="curve"/>
			<point x="63" y="793" type="line"/>
			<point x="63" y="739" type="line"/>
			<point x="941" y="739" type="line"/>
			<point x="941" y="793" type="line"/>
			<point x="559" y="793" type="line"/>
			<point x="551" y="817"/>
			<point x="535" y="844"/>
			<point x="516" y="868" type="curve"/>
		</contour>
	</outline>
</glyph>
<glyph name="臧字框" format="2">
	<unicode hex="E0AD"/>
	<advance width="1000"/>
	<outline>
		<contour>
			<point x="637" y="79" type="line"/>
			<point x="602" y="43"/>
			<point x="563" y="12"/>
			<point x="523" y="-15" type="curve"/>
			<point x="539" y="-27"/>
			<point x="563" y="-50"/>
			<point x="574" y="-62" type="curve"/>
			<point x="633" y="-19"/>
			<point x="684" y="28"/>
			<point x="727" y="86" type="curve"/>
			<point x="758" y="-11"/>
			<point x="805" y="-66"/>
			<point x="867" y="-66" type="curve"/>
			<point x="934" y="-66"/>
			<point x="957" y="-15"/>
			<point x="965" y="149" type="curve"/>
			<point x="949" y="153"/>
			<point x="926" y="168"/>
			<point x="910" y="184" type="curve"/>
			<point x="906" y="55"/>
			<point x="895" y="0"/>
			<point x="871" y="0" type="curve"/>
			<point x="832" y="0"/>
			<point x="797" y="55"/>
			<point x="773" y="157" type="curve"/>
			<point x="840" y="266"/>
			<point x="887" y="399"/>
			<point x="922" y="551" type="curve"/>
			<point x="855" y="563" type="line"/>
			<point x="832" y="446"/>
			<point x="801" y="340"/>
			<point x="754" y="250" type="curve"/>
			<point x="734" y="364"/>
			<point x="723" y="512"/>
			<point x="723" y="680" type="curve"/>
			<point x="953" y="680" type="line"/>
			<point x="953" y="747" type="line"/>
			<point x="883" y="747" type="line"/>
			<point x="926" y="782" type="line"/>
			<point x="902" y="809"/>
			<point x="848" y="848"/>
			<point x="805" y="872" type="curve"/>
			<point x="758" y="833" type="line"/>
			<point x="801" y="809"/>
			<point x="852" y="774"/>
			<point x="879" y="747" type="curve"/>
			<point x="719" y="747" type="line"/>
			<point x="719" y="868" type="line"/>
			<point x="652" y="868" type="line"/>
			<point x="652" y="747" type="line"/>
			<point x="219" y="747" type="line"/>
			<point x="219" y="524" type="line"/>
			<point x="145" y="524" type="line"/>
			<point x="145" y="754" type="line"/>
			<point x="90" y="754" type="line"/>
			<point x="90" y="465" type="line"/>
			<point x="219" y="465" type="line"/>
			<point x="219" y="352" type="line"/>
			<point x="47" y="352" type="line"/>
			<point x="47" y="293" type="line"/>
			<point x="90" y="293" type="line"/>
			<point x="90" y="278" type="line"/>
			<point x="90" y="204"/>
			<point x="86" y="102"/>
			<point x="31" y="24" type="curve"/>
			<point x="47" y="16"/>
			<point x="70" y="0"/>
			<point x="82" y="-15" type="curve"/>
			<point x="141" y="75"/>
			<point x="148" y="188"/>
			<point x="148" y="274" type="curve"/>
			<point x="148" y="293" type="line"/>
			<point x="219" y="293" type="line"/>
			<point x="219" y="184"/>
			<point x="211" y="63"/>
			<point x="152" y="-27" type="curve"/>
			<point x="168" y="-35"/>
			<point x="195" y="-54"/>
			<point x="207" y="-66" type="curve"/>
			<point x="273" y="36"/>
			<point x="285" y="200"/>
			<point x="285" y="325" type="curve"/>
			<point x="285" y="680" type="line"/>
			<point x="652" y="680" type="line"/>
			<point x="660" y="477"/>
			<point x="676" y="297"/>
			<point x="703" y="165" type="curve"/>
			<point x="684" y="137"/>
			<point x="664" y="110"/>
			<point x="641" y="83" type="curve"/>
		</contour>
	</outline>
</glyph>
<glyph name="舆字头框" format="2">
	<unicode hex="E0AF"/>
	<advance width="1000"/>
	<outline>
		<contour>
			<point x="117" y="786" type="curve"/>
			<point x="133" y="227" type="line"/>
			<point x="43" y="227" type="line"/>
			<point x="43" y="161" type="line"/>
			<point x="953" y="161" type="line"/>
			<point x="953" y="227" type="line"/>
			<point x="867" y="227" type="line"/>
			<point x="879" y="379"/>
			<point x="883" y="629"/>
			<point x="887" y="817" type="curve"/>
			<point x="680" y="817" type="line"/>
			<point x="680" y="747" type="line"/>
			<point x="813" y="747" type="line"/>
			<point x="813" y="618" type="line"/>
			<point x="691" y="618" type="line"/>
			<point x="691" y="551" type="line"/>
			<point x="813" y="551" type="line"/>
			<point x="805" y="418" type="line"/>
			<point x="688" y="418" type="line"/>
			<point x="688" y="356" type="line"/>
			<point x="805" y="356" type="line"/>
			<point x="797" y="227" type="line"/>
			<point x="203" y="227" type="line"/>
			<point x="199" y="360" type="line"/>
			<point x="313" y="360" type="line"/>
			<point x="313" y="422" type="line"/>
			<point x="199" y="422" type="line"/>
			<point x="195" y="555" type="line"/>
			<point x="305" y="555" type="line"/>
			<point x="305" y="618" type="line"/>
			<point x="191" y="618" type="line"/>
			<point x="191" y="739" type="line"/>
			<point x="242" y="754"/>
			<point x="297" y="770"/>
			<point x="344" y="790" type="curve"/>
			<point x="309" y="856" type="line"/>
			<point x="258" y="833"/>
			<point x="180" y="805"/>
		</contour>
	</outline>
</glyph>
<glyph name="节字底" format="2">
	<unicode hex="E0B2"/>
	<advance width="1000"/>
	<outline>
		<contour>
			<point x="98" y="504" type="line"/>
			<point x="98" y="434" type="line"/>
			<point x="359" y="434" type="line"/>
			<point x="359" y="-58" type="line"/>
			<point x="438" y="-58" type="line"/>
			<point x="438" y="434" type="line"/>
			<point x="773" y="434" type="line"/>
			<point x="773" y="172" type="line"/>
			<point x="773" y="161"/>
			<point x="766" y="157"/>
			<point x="746" y="153" type="curve"/>
			<point x="727" y="153"/>
			<point x="660" y="153"/>
			<point x="586" y="157" type="curve"/>
			<point x="594" y="133"/>
			<point x="605" y="98"/>
			<point x="609" y="79" type="curve"/>
			<point x="703" y="79"/>
			<point x="766" y="79"/>
			<point x="801" y="90" type="curve"/>
			<point x="840" y="102"/>
			<point x="848" y="125"/>
			<point x="848" y="172" type="curve"/>
			<point x="848" y="504" type="line"/>
		</contour>
	</outline>
</glyph>
<glyph name="虐字底" format="2">
	<unicode hex="E0B4"/>
	<advance width="1000"/>
	<outline>
		<contour>
			<point x="227" y="395" type="line"/>
			<point x="227" y="325" type="line"/>
			<point x="328" y="325" type="line"/>
			<point x="328" y="63" type="line"/>
			<point x="879" y="63" type="line"/>
			<point x="879" y="129" type="line"/>
			<point x="402" y="129" type="line"/>
			<point x="402" y="325" type="line"/>
			<point x="914" y="325" type="line"/>
			<point x="914" y="395" type="line"/>
			<point x="402" y="395" type="line"/>
			<point x="402" y="563" type="line"/>
			<point x="863" y="563" type="line"/>
			<point x="863" y="629" type="line"/>
			<point x="328" y="629" type="line"/>
			<point x="328" y="395" type="line"/>
		</contour>
	</outline>
</glyph>
<glyph name="衣省" format="2">
	<unicode hex="E0B7"/>
	<advance width="1000"/>
	<outline>
		<contour>
			<point x="469" y="680" type="line"/>
			<point x="340" y="504"/>
			<point x="191" y="391"/>
			<point x="35" y="321" type="curve"/>
			<point x="47" y="305"/>
			<point x="66" y="274"/>
			<point x="78" y="254" type="curve"/>
			<point x="141" y="286"/>
			<point x="203" y="321"/>
			<point x="262" y="364" type="curve"/>
			<point x="262" y="90" type="line"/>
			<point x="262" y="43"/>
			<point x="227" y="16"/>
			<point x="207" y="0" type="curve"/>
			<point x="219" y="-11"/>
			<point x="238" y="-42"/>
			<point x="246" y="-58" type="curve"/>
			<point x="273" y="-39"/>
			<point x="313" y="-23"/>
			<point x="625" y="75" type="curve"/>
			<point x="621" y="90"/>
			<point x="613" y="122"/>
			<point x="609" y="145" type="curve"/>
			<point x="336" y="59" type="line"/>
			<point x="336" y="422" type="line"/>
			<point x="398" y="477"/>
			<point x="457" y="536"/>
			<point x="504" y="594" type="curve"/>
			<point x="555" y="321"/>
			<point x="652" y="129"/>
			<point x="914" y="-35" type="curve"/>
			<point x="922" y="-11"/>
			<point x="949" y="16"/>
			<point x="969" y="32" type="curve"/>
			<point x="840" y="106"/>
			<point x="754" y="184"/>
			<point x="691" y="282" type="curve"/>
			<point x="766" y="340"/>
			<point x="852" y="422"/>
			<point x="918" y="493" type="curve"/>
			<point x="855" y="540" type="line"/>
			<point x="805" y="477"/>
			<point x="727" y="403"/>
			<point x="656" y="344" type="curve"/>
			<point x="617" y="426"/>
			<point x="590" y="516"/>
			<point x="551" y="692" type="curve"/>
		</contour>
	</outline>
</glyph>
<glyph name="衰字腰" format="2">
	<unicode hex="E0B8"/>
	<advance width="1000"/>
	<outline>
		<contour>
			<point x="719" y="403" type="line"/>
			<point x="719" y="325" type="line"/>
			<point x="277" y="325" type="line"/>
			<point x="277" y="403" type="line"/>
		</contour>
		<contour>
			<point x="277" y="532" type="line"/>
			<point x="719" y="532" type="line"/>
			<point x="719" y="461" type="line"/>
			<point x="277" y="461" type="line"/>
		</contour>
		<contour>
			<point x="63" y="465" type="line"/>
			<point x="63" y="399" type="line"/>
			<point x="207" y="399" type="line"/>
			<point x="207" y="266" type="line"/>
			<point x="797" y="266" type="line"/>
			<point x="797" y="399" type="line"/>
			<point x="941" y="399" type="line"/>
			<point x="941" y="465" type="line"/>
			<point x="797" y="465" type="line"/>
			<point x="797" y="590" type="line"/>
			<point x="207" y="590" type="line"/>
			<point x="207" y="465" type="line"/>
		</contour>
	</outline>
</glyph>
<glyph name="黽左角" format="2">
	<unicode hex="E0BF"/>
	<advance width="1000"/>
	<outline>
		<contour>
			<point x="813" y="614" type="line"/>
			<point x="195" y="614" type="line"/>
			<point x="195" y="106" type="line"/>
			<point x="832" y="106" type="line"/>
			<point x="832" y="176" type="line"/>
			<point x="262" y="176" type="line"/>
			<point x="262" y="336" type="line"/>
			<point x="793" y="336" type="line"/>
			<point x="793" y="403" type="line"/>
			<point x="262" y="403" type="line"/>
			<point x="262" y="543" type="line"/>
			<point x="813" y="543" type="line"/>
		</contour>
	</outline>
</glyph>
<glyph name="贵字头" format="2">
	<unicode hex="E0C1"/>
	<advance width="1000"/>
	<outline>
		<contour>
			<point x="246" y="543" type="line"/>
			<point x="461" y="543" type="line"/>
			<point x="461" y="465" type="line"/>
			<point x="246" y="465" type="line"/>
		</contour>
		<contour>
			<point x="539" y="543" type="line"/>
			<point x="750" y="543" type="line"/>
			<point x="750" y="465" type="line"/>
			<point x="539" y="465" type="line"/>
		</contour>
		<contour>
			<point x="55" y="348" type="line"/>
			<point x="55" y="282" type="line"/>
			<point x="945" y="282" type="line"/>
			<point x="945" y="348" type="line"/>
			<point x="539" y="348" type="line"/>
			<point x="539" y="411" type="line"/>
			<point x="824" y="411" type="line"/>
			<point x="824" y="598" type="line"/>
			<point x="539" y="598" type="line"/>
			<point x="539" y="665" type="line"/>
			<point x="461" y="665" type="line"/>
			<point x="461" y="598" type="line"/>
			<point x="176" y="598" type="line"/>
			<point x="176" y="411" type="line"/>
			<point x="461" y="411" type="line"/>
			<point x="461" y="348" type="line"/>
		</contour>
	</outline>
</glyph>
<glyph name="舍字底" format="2">
	<unicode hex="E0C2"/>
	<advance width="1000"/>
	<outline>
		<contour>
			<point x="262" y="579" type="line"/>
			<point x="461" y="579" type="line"/>
			<point x="461" y="481" type="line"/>
			<point x="102" y="481" type="line"/>
			<point x="102" y="415" type="line"/>
			<point x="461" y="415" type="line"/>
			<point x="461" y="305" type="line"/>
			<point x="188" y="305" type="line"/>
			<point x="188" y="-19" type="line"/>
			<point x="262" y="-19" type="line"/>
			<point x="262" y="24" type="line"/>
			<point x="738" y="24" type="line"/>
			<point x="738" y="-19" type="line"/>
			<point x="816" y="-19" type="line"/>
			<point x="816" y="305" type="line"/>
			<point x="539" y="305" type="line"/>
			<point x="539" y="415" type="line"/>
			<point x="906" y="415" type="line"/>
			<point x="906" y="481" type="line"/>
			<point x="539" y="481" type="line"/>
			<point x="539" y="579" type="line"/>
			<point x="742" y="579" type="line"/>
			<point x="742" y="645" type="line"/>
			<point x="621" y="645"/>
			<point x="527" y="645"/>
			<point x="461" y="645" type="curve"/>
			<point x="262" y="645" type="line"/>
		</contour>
		<contour>
			<point x="262" y="94" type="line"/>
			<point x="262" y="239" type="line"/>
			<point x="738" y="239" type="line"/>
			<point x="738" y="94" type="line"/>
		</contour>
	</outline>
</glyph>
<glyph name="尚头" format="2">
	<unicode hex="E0C3"/>
	<advance width="1000"/>
	<outline>
		<contour>
			<point x="313" y="395" type="line"/>
			<point x="691" y="395" type="line"/>
			<point x="691" y="297" type="line"/>
			<point x="313" y="297" type="line"/>
		</contour>
		<contour>
			<point x="551" y="239" type="line"/>
			<point x="770" y="239" type="line"/>
			<point x="770" y="450" type="line"/>
			<point x="242" y="450" type="line"/>
			<point x="242" y="239" type="line"/>
			<point x="473" y="239" type="line"/>
		</contour>
		<contour>
			<point x="168" y="708" type="line"/>
			<point x="199" y="672"/>
			<point x="230" y="622"/>
			<point x="246" y="586" type="curve"/>
			<point x="86" y="586" type="line"/>
			<point x="86" y="372" type="line"/>
			<point x="156" y="372" type="line"/>
			<point x="156" y="520" type="line"/>
			<point x="848" y="520" type="line"/>
			<point x="848" y="372" type="line"/>
			<point x="922" y="372" type="line"/>
			<point x="922" y="586" type="line"/>
			<point x="543" y="586" type="line"/>
			<point x="543" y="743" type="line"/>
			<point x="469" y="743" type="line"/>
			<point x="469" y="586" type="line"/>
			<point x="258" y="586" type="line"/>
			<point x="320" y="618" type="line"/>
			<point x="305" y="649"/>
			<point x="270" y="700"/>
			<point x="234" y="735" type="curve"/>
		</contour>
		<contour>
			<point x="762" y="735" type="line"/>
			<point x="742" y="700"/>
			<point x="707" y="645"/>
			<point x="680" y="614" type="curve"/>
			<point x="738" y="586" type="line"/>
			<point x="770" y="618"/>
			<point x="809" y="665"/>
			<point x="840" y="708" type="curve"/>
		</contour>
	</outline>
</glyph>
<glyph name="足旁" format="2">
	<unicode hex="E0C6"/>
	<advance width="1000"/>
	<outline>
		<contour>
			<point x="415" y="732" type="line"/>
			<point x="585" y="732" type="line"/>
			<point x="585" y="556" type="line"/>
			<point x="415" y="556" type="line"/>
		</contour>
		<contour>
			<point x="349" y="797" type="line"/>
			<point x="349" y="491" type="line"/>
			<point x="654" y="491" type="line"/>
			<point x="654" y="797" type="line"/>
		</contour>
		<contour>
			<point x="478" y="521" type="line"/>
			<point x="478" y="64" type="line"/>
			<point x="545" y="64" type="line"/>
			<point x="545" y="521" type="line"/>
		</contour>
		<contour>
			<point x="348" y="396" type="line"/>
			<point x="348" y="33" type="line"/>
			<point x="411" y="33" type="line"/>
			<point x="411" y="396" type="line"/>
		</contour>
		<contour>
			<point x="297" y="38" type="curve"/>
			<point x="315" y="-33" type="line"/>
			<point x="414" y="-5"/>
			<point x="549" y="32"/>
			<point x="676" y="68" type="curve"/>
			<point x="667" y="134" type="line"/>
			<point x="531" y="98"/>
			<point x="389" y="59"/>
		</contour>
		<contour>
			<point x="507" y="351" type="line"/>
			<point x="507" y="285" type="line"/>
			<point x="654" y="285" type="line"/>
			<point x="654" y="351" type="line"/>
		</contour>
	</outline>
</glyph>
<glyph name="臣字心" format="2">
	<unicode hex="E0C7"/>
	<advance width="1000"/>
	<outline>
		<contour>
			<point x="487" y="752" type="line"/>
			<point x="487" y="514" type="line"/>
			<point x="565" y="514" type="line"/>
			<point x="565" y="752" type="line"/>
		</contour>
		<contour>
			<point x="487" y="258" type="line"/>
			<point x="487" y="6" type="line"/>
			<point x="565" y="6" type="line"/>
			<point x="565" y="258" type="line"/>
		</contour>
		<contour>
			<point x="174" y="540" type="line"/>
			<point x="174" y="468" type="line"/>
			<point x="763" y="468" type="line"/>
			<point x="763" y="300" type="line"/>
			<point x="174" y="300" type="line"/>
			<point x="174" y="228" type="line"/>
			<point x="841" y="228" type="line"/>
			<point x="841" y="539" type="line"/>
		</contour>
	</outline>
</glyph>
<glyph name="车旁" format="2">
	<unicode hex="E0C8"/>
	<advance width="1000"/>
	<outline>
		<contour>
			<point x="328" y="352" type="curve"/>
			<point x="340" y="360"/>
			<point x="371" y="368"/>
			<point x="414" y="368" type="curve"/>
			<point x="531" y="368" type="line"/>
			<point x="531" y="223" type="line"/>
			<point x="434" y="208"/>
			<point x="344" y="196"/>
			<point x="273" y="188" type="curve"/>
			<point x="289" y="114" type="line"/>
			<point x="531" y="149" type="line"/>
			<point x="531" y="-62" type="line"/>
			<point x="602" y="-62" type="line"/>
			<point x="602" y="161" type="line"/>
			<point x="762" y="188" type="line"/>
			<point x="758" y="258" type="line"/>
			<point x="602" y="235" type="line"/>
			<point x="602" y="368" type="line"/>
			<point x="758" y="368" type="line"/>
			<point x="758" y="434" type="line"/>
			<point x="602" y="434" type="line"/>
			<point x="602" y="583" type="line"/>
			<point x="531" y="583" type="line"/>
			<point x="531" y="434" type="line"/>
			<point x="402" y="434" type="line"/>
			<point x="430" y="504"/>
			<point x="461" y="586"/>
			<point x="488" y="672" type="curve"/>
			<point x="762" y="672" type="line"/>
			<point x="762" y="743" type="line"/>
			<point x="508" y="743" type="line"/>
			<point x="520" y="778"/>
			<point x="527" y="809"/>
			<point x="535" y="844" type="curve"/>
			<point x="457" y="860" type="line"/>
			<point x="449" y="821"/>
			<point x="441" y="782"/>
			<point x="434" y="743" type="curve"/>
			<point x="281" y="743" type="line"/>
			<point x="281" y="672" type="line"/>
			<point x="414" y="672" type="line"/>
			<point x="391" y="590"/>
			<point x="367" y="528"/>
			<point x="355" y="500" type="curve"/>
			<point x="336" y="458"/>
			<point x="324" y="426"/>
			<point x="305" y="418" type="curve"/>
			<point x="313" y="403"/>
			<point x="324" y="368"/>
		</contour>
	</outline>
</glyph>
<glyph name="辛旁" format="2">
	<unicode hex="E0C9"/>
	<advance width="1000"/>
	<outline>
		<contour>
			<point x="426" y="625" type="line"/>
			<point x="457" y="575"/>
			<point x="488" y="504"/>
			<point x="500" y="461" type="curve"/>
			<point x="563" y="485" type="line"/>
			<point x="551" y="532"/>
			<point x="516" y="598"/>
			<point x="480" y="649" type="curve"/>
		</contour>
		<contour>
			<point x="508" y="836" type="line"/>
			<point x="535" y="805"/>
			<point x="563" y="762"/>
			<point x="574" y="731" type="curve"/>
			<point x="391" y="731" type="line"/>
			<point x="391" y="661" type="line"/>
			<point x="758" y="661" type="line"/>
			<point x="758" y="731" type="line"/>
			<point x="586" y="731" type="line"/>
			<point x="633" y="754" type="line"/>
			<point x="621" y="790"/>
			<point x="590" y="836"/>
			<point x="559" y="868" type="curve"/>
		</contour>
		<contour>
			<point x="668" y="657" type="line"/>
			<point x="648" y="594"/>
			<point x="609" y="512"/>
			<point x="582" y="458" type="curve"/>
			<point x="371" y="458" type="line"/>
			<point x="371" y="387" type="line"/>
			<point x="539" y="387" type="line"/>
			<point x="539" y="321" type="line"/>
			<point x="539" y="301"/>
			<point x="539" y="282"/>
			<point x="535" y="258" type="curve"/>
			<point x="391" y="258" type="line"/>
			<point x="391" y="192" type="line"/>
			<point x="527" y="192" type="line"/>
			<point x="512" y="125"/>
			<point x="473" y="51"/>
			<point x="391" y="-11" type="curve"/>
			<point x="406" y="-23"/>
			<point x="430" y="-46"/>
			<point x="438" y="-62" type="curve"/>
			<point x="535" y="12"/>
			<point x="578" y="106"/>
			<point x="598" y="192" type="curve"/>
			<point x="746" y="192" type="line"/>
			<point x="746" y="258" type="line"/>
			<point x="605" y="258" type="line"/>
			<point x="609" y="282"/>
			<point x="609" y="301"/>
			<point x="609" y="317" type="curve"/>
			<point x="609" y="387" type="line"/>
			<point x="766" y="387" type="line"/>
			<point x="766" y="458" type="line"/>
			<point x="648" y="458" type="line"/>
			<point x="676" y="508"/>
			<point x="711" y="579"/>
			<point x="734" y="637" type="curve"/>
		</contour>
	</outline>
</glyph>
<glyph name="金字底" format="2">
	<unicode hex="E0CF"/>
	<advance width="1000"/>
	<outline>
		<contour>
			<point x="199" y="317" type="line"/>
			<point x="238" y="258"/>
			<point x="277" y="180"/>
			<point x="293" y="133" type="curve"/>
			<point x="355" y="161" type="line"/>
			<point x="340" y="208"/>
			<point x="301" y="286"/>
			<point x="262" y="340" type="curve"/>
		</contour>
		<contour>
			<point x="734" y="340" type="line"/>
			<point x="711" y="286"/>
			<point x="664" y="204"/>
			<point x="629" y="157" type="curve"/>
			<point x="688" y="129" type="line"/>
			<point x="723" y="176"/>
			<point x="770" y="250"/>
			<point x="805" y="313" type="curve"/>
		</contour>
		<contour>
			<point x="242" y="629" type="line"/>
			<point x="242" y="567" type="line"/>
			<point x="461" y="567" type="line"/>
			<point x="461" y="434" type="line"/>
			<point x="113" y="434" type="line"/>
			<point x="113" y="364" type="line"/>
			<point x="461" y="364" type="line"/>
			<point x="461" y="118" type="line"/>
			<point x="70" y="118" type="line"/>
			<point x="70" y="47" type="line"/>
			<point x="934" y="47" type="line"/>
			<point x="934" y="118" type="line"/>
			<point x="539" y="118" type="line"/>
			<point x="539" y="364" type="line"/>
			<point x="891" y="364" type="line"/>
			<point x="891" y="434" type="line"/>
			<point x="539" y="434" type="line"/>
			<point x="539" y="567" type="line"/>
			<point x="758" y="567" type="line"/>
			<point x="758" y="629" type="line"/>
		</contour>
	</outline>
</glyph>
<glyph name="亙无二" format="2">
	<unicode hex="E0D1"/>
	<advance width="1000"/>
	<outline>
		<contour>
			<point x="395" y="430" type="line"/>
			<point x="457" y="399"/>
			<point x="535" y="348"/>
			<point x="574" y="313" type="curve"/>
			<point x="621" y="368" type="line"/>
			<point x="578" y="407"/>
			<point x="500" y="454"/>
			<point x="438" y="481" type="curve"/>
		</contour>
		<contour>
			<point x="344" y="247" type="line"/>
			<point x="418" y="211"/>
			<point x="504" y="157"/>
			<point x="547" y="114" type="curve"/>
			<point x="598" y="172" type="line"/>
			<point x="551" y="215"/>
			<point x="461" y="266"/>
			<point x="387" y="301" type="curve"/>
		</contour>
		<contour>
			<point x="707" y="55" type="line"/>
			<point x="730" y="200"/>
			<point x="758" y="426"/>
			<point x="777" y="598" type="curve"/>
			<point x="371" y="598" type="line"/>
			<point x="398" y="723" type="line"/>
			<point x="320" y="723" type="line"/>
			<point x="281" y="540"/>
			<point x="227" y="297"/>
			<point x="184" y="157" type="curve"/>
			<point x="266" y="153" type="line"/>
			<point x="289" y="247"/>
			<point x="324" y="387"/>
			<point x="355" y="528" type="curve"/>
			<point x="695" y="528" type="line"/>
			<point x="676" y="372"/>
			<point x="652" y="180"/>
			<point x="629" y="55" type="curve"/>
		</contour>
	</outline>
</glyph>
<glyph name="颐字旁" format="2">
	<unicode hex="E0D5"/>
	<advance width="1000"/>
	<outline>
		<contour>
			<point x="496" y="454" type="line"/>
			<point x="625" y="454" type="line"/>
			<point x="625" y="247" type="line"/>
			<point x="496" y="247" type="line"/>
		</contour>
		<contour>
			<point x="438" y="512" type="line"/>
			<point x="438" y="184" type="line"/>
			<point x="535" y="184" type="line"/>
			<point x="535" y="8" type="line"/>
			<point x="379" y="8" type="line"/>
			<point x="379" y="676" type="line"/>
			<point x="531" y="676" type="line"/>
			<point x="531" y="512" type="line"/>
		</contour>
		<contour>
			<point x="711" y="747" type="line"/>
			<point x="313" y="747" type="line"/>
			<point x="313" y="-58" type="line"/>
			<point x="723" y="-58" type="line"/>
			<point x="723" y="8" type="line"/>
			<point x="598" y="8" type="line"/>
			<point x="598" y="184" type="line"/>
			<point x="688" y="184" type="line"/>
			<point x="688" y="512" type="line"/>
			<point x="594" y="512" type="line"/>
			<point x="594" y="676" type="line"/>
			<point x="711" y="676" type="line"/>
		</contour>
	</outline>
</glyph>
<glyph name="鳥省" format="2">
	<unicode hex="E0D7"/>
	<advance width="1000"/>
	<outline>
		<contour>
			<point x="180" y="782" type="line"/>
			<point x="180" y="215" type="line"/>
			<point x="848" y="215" type="line"/>
			<point x="836" y="79"/>
			<point x="824" y="24"/>
			<point x="809" y="8" type="curve"/>
			<point x="801" y="0"/>
			<point x="789" y="0"/>
			<point x="773" y="0" type="curve"/>
			<point x="758" y="0"/>
			<point x="711" y="0"/>
			<point x="664" y="4" type="curve"/>
			<point x="676" y="-15"/>
			<point x="684" y="-39"/>
			<point x="684" y="-58" type="curve"/>
			<point x="734" y="-62"/>
			<point x="781" y="-62"/>
			<point x="805" y="-58" type="curve"/>
			<point x="832" y="-58"/>
			<point x="848" y="-50"/>
			<point x="867" y="-35" type="curve"/>
			<point x="891" y="-7"/>
			<point x="906" y="63"/>
			<point x="922" y="243" type="curve"/>
			<point x="922" y="254"/>
			<point x="922" y="274"/>
			<point x="922" y="274" type="curve"/>
			<point x="254" y="274" type="line"/>
			<point x="254" y="344" type="line"/>
			<point x="949" y="344" type="line"/>
			<point x="949" y="399" type="line"/>
			<point x="254" y="399" type="line"/>
			<point x="254" y="465" type="line"/>
			<point x="809" y="465" type="line"/>
			<point x="809" y="782" type="line"/>
			<point x="500" y="782" type="line"/>
			<point x="516" y="801"/>
			<point x="531" y="829"/>
			<point x="543" y="852" type="curve"/>
			<point x="453" y="864" type="line"/>
			<point x="449" y="840"/>
			<point x="434" y="809"/>
			<point x="422" y="782" type="curve"/>
		</contour>
		<contour>
			<point x="734" y="598" type="line"/>
			<point x="734" y="524" type="line"/>
			<point x="254" y="524" type="line"/>
			<point x="254" y="598" type="line"/>
		</contour>
		<contour>
			<point x="734" y="653" type="line"/>
			<point x="254" y="653" type="line"/>
			<point x="254" y="723" type="line"/>
			<point x="734" y="723" type="line"/>
		</contour>
	</outline>
</glyph>
<glyph name="鬯字头无凵" format="2">
	<unicode hex="E0D8"/>
	<advance width="1000"/>
	<outline>
		<contour>
			<point x="355" y="575" type="line"/>
			<point x="410" y="555"/>
			<point x="477" y="524"/>
			<point x="512" y="497" type="curve"/>
			<point x="551" y="547" type="line"/>
			<point x="516" y="575"/>
			<point x="449" y="606"/>
			<point x="395" y="622" type="curve"/>
		</contour>
		<contour>
			<point x="141" y="379" type="line"/>
			<point x="191" y="360"/>
			<point x="250" y="325"/>
			<point x="281" y="301" type="curve"/>
			<point x="324" y="352" type="line"/>
			<point x="293" y="375"/>
			<point x="230" y="407"/>
			<point x="180" y="422" type="curve"/>
		</contour>
		<contour>
			<point x="645" y="403" type="line"/>
			<point x="695" y="379"/>
			<point x="758" y="340"/>
			<point x="785" y="309" type="curve"/>
			<point x="828" y="360" type="line"/>
			<point x="797" y="387"/>
			<point x="734" y="426"/>
			<point x="684" y="446" type="curve"/>
		</contour>
		<contour>
			<point x="188" y="508" type="line"/>
			<point x="270" y="469"/>
			<point x="355" y="418"/>
			<point x="438" y="368" type="curve"/>
			<point x="352" y="297"/>
			<point x="258" y="235"/>
			<point x="164" y="188" type="curve"/>
			<point x="180" y="172"/>
			<point x="211" y="145"/>
			<point x="223" y="133" type="curve"/>
			<point x="316" y="184"/>
			<point x="410" y="250"/>
			<point x="496" y="329" type="curve"/>
			<point x="590" y="266"/>
			<point x="672" y="204"/>
			<point x="727" y="153" type="curve"/>
			<point x="777" y="204" type="line"/>
			<point x="723" y="254"/>
			<point x="641" y="317"/>
			<point x="547" y="375" type="curve"/>
			<point x="621" y="442"/>
			<point x="684" y="520"/>
			<point x="738" y="598" type="curve"/>
			<point x="668" y="622" type="line"/>
			<point x="621" y="547"/>
			<point x="559" y="477"/>
			<point x="488" y="411" type="curve"/>
			<point x="406" y="465"/>
			<point x="316" y="512"/>
			<point x="234" y="551" type="curve"/>
		</contour>
		<contour>
			<point x="555" y="94" type="line"/>
			<point x="598" y="137" type="line"/>
			<point x="570" y="172"/>
			<point x="516" y="219"/>
			<point x="465" y="247" type="curve"/>
			<point x="422" y="208" type="line"/>
			<point x="469" y="176"/>
			<point x="523" y="129"/>
			<point x="551" y="94" type="curve"/>
		</contour>
	</outline>
</glyph>
<glyph name="鳏下角" format="2">
	<unicode hex="E0D9"/>
	<advance width="1000"/>
	<outline>
		<contour>
			<point x="469" y="606" type="line"/>
			<point x="469" y="24" type="line"/>
			<point x="543" y="24" type="line"/>
			<point x="543" y="606" type="line"/>
		</contour>
		<contour>
			<point x="625" y="524" type="line"/>
			<point x="711" y="473"/>
			<point x="809" y="395"/>
			<point x="859" y="344" type="curve"/>
			<point x="914" y="395" type="line"/>
			<point x="863" y="442"/>
			<point x="762" y="512"/>
			<point x="680" y="567" type="curve"/>
		</contour>
		<contour>
			<point x="598" y="309" type="line"/>
			<point x="688" y="250"/>
			<point x="797" y="161"/>
			<point x="848" y="102" type="curve"/>
			<point x="902" y="153" type="line"/>
			<point x="848" y="208"/>
			<point x="742" y="293"/>
			<point x="648" y="352" type="curve"/>
		</contour>
		<contour>
			<point x="316" y="571" type="line"/>
			<point x="262" y="508"/>
			<point x="176" y="446"/>
			<point x="98" y="403" type="curve"/>
			<point x="113" y="391"/>
			<point x="137" y="368"/>
			<point x="148" y="356" type="curve"/>
			<point x="227" y="399"/>
			<point x="320" y="473"/>
			<point x="379" y="543" type="curve"/>
		</contour>
		<contour>
			<point x="328" y="356" type="line"/>
			<point x="266" y="274"/>
			<point x="168" y="192"/>
			<point x="74" y="141" type="curve"/>
			<point x="90" y="129"/>
			<point x="117" y="102"/>
			<point x="133" y="90" type="curve"/>
			<point x="219" y="149"/>
			<point x="324" y="243"/>
			<point x="395" y="329" type="curve"/>
		</contour>
	</outline>
</glyph>
<glyph name="鸟省" format="2">
	<unicode hex="E0DA"/>
	<advance width="1000"/>
	<outline>
		<contour>
			<point x="328" y="606" type="line"/>
			<point x="398" y="571"/>
			<point x="488" y="524"/>
			<point x="535" y="493" type="curve"/>
			<point x="578" y="543" type="line"/>
			<point x="531" y="575"/>
			<point x="438" y="618"/>
			<point x="371" y="649" type="curve"/>
		</contour>
		<contour>
			<point x="758" y="762" type="line"/>
			<point x="484" y="762" type="line"/>
			<point x="500" y="790"/>
			<point x="520" y="821"/>
			<point x="531" y="852" type="curve"/>
			<point x="445" y="864" type="line"/>
			<point x="438" y="836"/>
			<point x="422" y="797"/>
			<point x="406" y="762" type="curve"/>
			<point x="188" y="762" type="line"/>
			<point x="188" y="325" type="line"/>
			<point x="844" y="325" type="line"/>
			<point x="828" y="125"/>
			<point x="813" y="43"/>
			<point x="789" y="20" type="curve"/>
			<point x="777" y="12"/>
			<point x="770" y="8"/>
			<point x="750" y="8" type="curve"/>
			<point x="730" y="8"/>
			<point x="684" y="8"/>
			<point x="629" y="16" type="curve"/>
			<point x="641" y="-3"/>
			<point x="648" y="-35"/>
			<point x="652" y="-54" type="curve"/>
			<point x="703" y="-54"/>
			<point x="754" y="-54"/>
			<point x="781" y="-54" type="curve"/>
			<point x="813" y="-50"/>
			<point x="832" y="-46"/>
			<point x="852" y="-23" type="curve"/>
			<point x="883" y="8"/>
			<point x="902" y="106"/>
			<point x="918" y="360" type="curve"/>
			<point x="922" y="372"/>
			<point x="922" y="391"/>
			<point x="922" y="391" type="curve"/>
			<point x="258" y="391" type="line"/>
			<point x="258" y="696" type="line"/>
			<point x="738" y="696" type="line"/>
			<point x="727" y="579"/>
			<point x="715" y="532"/>
			<point x="699" y="516" type="curve"/>
			<point x="691" y="508"/>
			<point x="684" y="508"/>
			<point x="672" y="508" type="curve"/>
			<point x="656" y="508"/>
			<point x="625" y="508"/>
			<point x="590" y="512" type="curve"/>
			<point x="602" y="493"/>
			<point x="609" y="465"/>
			<point x="609" y="446" type="curve"/>
			<point x="648" y="442"/>
			<point x="684" y="442"/>
			<point x="703" y="446" type="curve"/>
			<point x="727" y="450"/>
			<point x="742" y="454"/>
			<point x="758" y="469" type="curve"/>
			<point x="785" y="497"/>
			<point x="797" y="567"/>
			<point x="813" y="735" type="curve"/>
			<point x="813" y="743"/>
			<point x="813" y="762"/>
			<point x="813" y="762" type="curve"/>
		</contour>
	</outline>
</glyph>
<glyph name="鹿字框" format="2">
	<unicode hex="E0DC"/>
	<advance width="1000"/>
	<outline>
		<contour>
			<point x="355" y="543" type="line"/>
			<point x="355" y="418" type="line"/>
			<point x="191" y="418" type="line"/>
			<point x="195" y="481" type="line"/>
			<point x="195" y="543" type="line"/>
		</contour>
		<contour>
			<point x="355" y="606" type="line"/>
			<point x="195" y="606" type="line"/>
			<point x="195" y="708" type="line"/>
			<point x="355" y="708" type="line"/>
		</contour>
		<contour>
			<point x="426" y="543" type="line"/>
			<point x="598" y="543" type="line"/>
			<point x="598" y="418" type="line"/>
			<point x="426" y="418" type="line"/>
		</contour>
		<contour>
			<point x="426" y="606" type="line"/>
			<point x="426" y="708" type="line"/>
			<point x="598" y="708" type="line"/>
			<point x="598" y="606" type="line"/>
		</contour>
		<contour>
			<point x="672" y="543" type="line"/>
			<point x="844" y="543" type="line"/>
			<point x="844" y="418" type="line"/>
			<point x="672" y="418" type="line"/>
		</contour>
		<contour>
			<point x="465" y="848" type="line"/>
			<point x="477" y="825"/>
			<point x="488" y="797"/>
			<point x="496" y="774" type="curve"/>
			<point x="121" y="774" type="line"/>
			<point x="121" y="481" type="line"/>
			<point x="121" y="333"/>
			<point x="117" y="129"/>
			<point x="31" y="-15" type="curve"/>
			<point x="47" y="-19"/>
			<point x="78" y="-42"/>
			<point x="94" y="-54" type="curve"/>
			<point x="160" y="59"/>
			<point x="184" y="219"/>
			<point x="191" y="356" type="curve"/>
			<point x="914" y="356" type="line"/>
			<point x="914" y="606" type="line"/>
			<point x="672" y="606" type="line"/>
			<point x="672" y="708" type="line"/>
			<point x="941" y="708" type="line"/>
			<point x="941" y="774" type="line"/>
			<point x="582" y="774" type="line"/>
			<point x="570" y="805"/>
			<point x="555" y="836"/>
			<point x="539" y="868" type="curve"/>
		</contour>
	</outline>
</glyph>
<glyph name="黎右角" format="2">
	<unicode hex="E0DE"/>
	<advance width="1000"/>
	<outline>
		<contour>
			<point x="316" y="700" type="line"/>
			<point x="258" y="715" type="line"/>
			<point x="207" y="606"/>
			<point x="121" y="504"/>
			<point x="27" y="438" type="curve"/>
			<point x="47" y="426"/>
			<point x="78" y="403"/>
			<point x="90" y="391" type="curve"/>
			<point x="145" y="434"/>
			<point x="199" y="493"/>
			<point x="250" y="559" type="curve"/>
			<point x="488" y="559" type="line"/>
			<point x="430" y="239"/>
			<point x="309" y="106"/>
			<point x="113" y="28" type="curve"/>
			<point x="133" y="16"/>
			<point x="160" y="-15"/>
			<point x="172" y="-31" type="curve"/>
			<point x="371" y="59"/>
			<point x="504" y="208"/>
			<point x="570" y="559" type="curve"/>
			<point x="820" y="559" type="line"/>
			<point x="797" y="172"/>
			<point x="773" y="63"/>
			<point x="742" y="32" type="curve"/>
			<point x="730" y="24"/>
			<point x="719" y="20"/>
			<point x="699" y="20" type="curve"/>
			<point x="676" y="20"/>
			<point x="629" y="20"/>
			<point x="574" y="24" type="curve"/>
			<point x="586" y="4"/>
			<point x="594" y="-27"/>
			<point x="594" y="-46" type="curve"/>
			<point x="648" y="-50"/>
			<point x="699" y="-50"/>
			<point x="730" y="-46" type="curve"/>
			<point x="762" y="-46"/>
			<point x="785" y="-39"/>
			<point x="805" y="-11" type="curve"/>
			<point x="844" y="28"/>
			<point x="871" y="153"/>
			<point x="895" y="590" type="curve"/>
			<point x="898" y="602"/>
			<point x="898" y="625"/>
			<point x="898" y="625" type="curve"/>
			<point x="293" y="625" type="line"/>
		</contour>
	</outline>
</glyph>
<glyph name="鼎右角" format="2">
	<unicode hex="E0E0"/>
	<advance width="1090"/>
	<outline>
		<contour>
			<point x="754" y="235" type="line"/>
			<point x="480" y="235" type="line"/>
			<point x="480" y="317" type="line"/>
			<point x="730" y="317" type="line"/>
			<point x="730" y="774" type="line"/>
			<point x="656" y="774" type="line"/>
			<point x="656" y="379" type="line"/>
			<point x="410" y="379" type="line"/>
			<point x="410" y="-58" type="line"/>
			<point x="480" y="-58" type="line"/>
			<point x="480" y="168" type="line"/>
			<point x="680" y="168" type="line"/>
			<point x="680" y="-62" type="line"/>
			<point x="754" y="-62" type="line"/>
		</contour>
	</outline>
</glyph>
<glyph name="鼎左角" format="2">
	<unicode hex="E0E1"/>
	<advance width="1086"/>
	<outline>
		<contour>
			<point x="422" y="379" type="line"/>
			<point x="422" y="317" type="line"/>
			<point x="668" y="317" type="line"/>
			<point x="668" y="239" type="line"/>
			<point x="359" y="239" type="line"/>
			<point x="359" y="172" type="line"/>
			<point x="469" y="172" type="line"/>
			<point x="461" y="86"/>
			<point x="438" y="24"/>
			<point x="363" y="-15" type="curve"/>
			<point x="379" y="-27"/>
			<point x="398" y="-54"/>
			<point x="406" y="-70" type="curve"/>
			<point x="500" y="-19"/>
			<point x="531" y="59"/>
			<point x="539" y="172" type="curve"/>
			<point x="668" y="172" type="line"/>
			<point x="668" y="-58" type="line"/>
			<point x="742" y="-58" type="line"/>
			<point x="742" y="379" type="line"/>
			<point x="496" y="379" type="line"/>
			<point x="496" y="774" type="line"/>
			<point x="422" y="774" type="line"/>
		</contour>
	</outline>
</glyph>
<glyph name="鼠字底" format="2">
	<unicode hex="E0E2"/>
	<advance width="1000"/>
	<outline>
		<contour>
			<point x="742" y="465" type="line"/>
			<point x="746" y="149"/>
			<point x="777" y="-15"/>
			<point x="879" y="-15" type="curve"/>
			<point x="930" y="-15"/>
			<point x="957" y="8"/>
			<point x="965" y="110" type="curve"/>
			<point x="945" y="118"/>
			<point x="926" y="129"/>
			<point x="910" y="145" type="curve"/>
			<point x="906" y="75"/>
			<point x="902" y="55"/>
			<point x="887" y="55" type="curve"/>
			<point x="840" y="55"/>
			<point x="813" y="180"/>
			<point x="813" y="465" type="curve"/>
		</contour>
		<contour>
			<point x="270" y="387" type="line"/>
			<point x="309" y="364"/>
			<point x="355" y="329"/>
			<point x="383" y="309" type="curve"/>
			<point x="422" y="352" type="line"/>
			<point x="395" y="375"/>
			<point x="348" y="407"/>
			<point x="309" y="430" type="curve"/>
		</contour>
		<contour>
			<point x="258" y="235" type="line"/>
			<point x="297" y="211"/>
			<point x="348" y="176"/>
			<point x="375" y="153" type="curve"/>
			<point x="414" y="200" type="line"/>
			<point x="391" y="219"/>
			<point x="336" y="254"/>
			<point x="297" y="278" type="curve"/>
		</contour>
		<contour>
			<point x="559" y="387" type="line"/>
			<point x="598" y="364"/>
			<point x="652" y="329"/>
			<point x="680" y="305" type="curve"/>
			<point x="715" y="352" type="line"/>
			<point x="688" y="372"/>
			<point x="637" y="407"/>
			<point x="598" y="430" type="curve"/>
		</contour>
		<contour>
			<point x="555" y="235" type="line"/>
			<point x="594" y="208"/>
			<point x="648" y="168"/>
			<point x="680" y="145" type="curve"/>
			<point x="719" y="192" type="line"/>
			<point x="688" y="211"/>
			<point x="633" y="250"/>
			<point x="594" y="274" type="curve"/>
		</contour>
		<contour>
			<point x="145" y="-11" type="curve"/>
			<point x="164" y="0"/>
			<point x="195" y="8"/>
			<point x="398" y="51" type="curve"/>
			<point x="395" y="71"/>
			<point x="395" y="94"/>
			<point x="398" y="114" type="curve"/>
			<point x="227" y="83" type="line"/>
			<point x="227" y="461" type="line"/>
			<point x="152" y="461" type="line"/>
			<point x="152" y="118" type="line"/>
			<point x="152" y="79"/>
			<point x="133" y="63"/>
			<point x="117" y="51" type="curve"/>
			<point x="129" y="40"/>
			<point x="141" y="8"/>
		</contour>
		<contour>
			<point x="445" y="-7" type="curve"/>
			<point x="465" y="4"/>
			<point x="500" y="12"/>
			<point x="719" y="63" type="curve"/>
			<point x="719" y="79"/>
			<point x="719" y="106"/>
			<point x="719" y="125" type="curve"/>
			<point x="520" y="83" type="line"/>
			<point x="520" y="461" type="line"/>
			<point x="453" y="461" type="line"/>
			<point x="453" y="114" type="line"/>
			<point x="453" y="75"/>
			<point x="434" y="63"/>
			<point x="418" y="55" type="curve"/>
			<point x="430" y="40"/>
			<point x="441" y="8"/>
		</contour>
	</outline>
</glyph>
<glyph name="乔字底" format="2">
	<unicode hex="E0E3"/>
	<advance width="1000"/>
	<outline>
		<contour>
			<point x="648" y="583" type="line"/>
			<point x="648" y="55" type="line"/>
			<point x="730" y="55" type="line"/>
			<point x="730" y="583" type="line"/>
		</contour>
		<contour>
			<point x="273" y="583" type="line"/>
			<point x="273" y="454" type="line"/>
			<point x="273" y="340"/>
			<point x="258" y="208"/>
			<point x="66" y="110" type="curve"/>
			<point x="86" y="98"/>
			<point x="117" y="75"/>
			<point x="129" y="55" type="curve"/>
			<point x="332" y="165"/>
			<point x="355" y="321"/>
			<point x="355" y="454" type="curve"/>
			<point x="355" y="583" type="line"/>
		</contour>
	</outline>
</glyph>
<glyph name="五无横" format="2">
	<unicode hex="E0E8"/>
	<advance width="1000"/>
	<outline>
		<contour>
			<point x="172" y="469" type="line"/>
			<point x="172" y="399" type="line"/>
			<point x="363" y="399" type="line"/>
			<point x="340" y="278"/>
			<point x="320" y="161"/>
			<point x="301" y="71" type="curve"/>
			<point x="55" y="71" type="line"/>
			<point x="55" y="-3" type="line"/>
			<point x="945" y="-3" type="line"/>
			<point x="945" y="71" type="line"/>
			<point x="742" y="71" type="line"/>
			<point x="754" y="200"/>
			<point x="770" y="360"/>
			<point x="777" y="469" type="curve"/>
			<point x="719" y="473" type="line"/>
			<point x="707" y="469" type="line"/>
			<point x="453" y="469" type="line"/>
			<point x="488" y="688" type="line"/>
			<point x="406" y="688" type="line"/>
			<point x="395" y="622"/>
			<point x="383" y="547"/>
			<point x="375" y="469" type="curve"/>
		</contour>
		<contour>
			<point x="383" y="71" type="line"/>
			<point x="402" y="161"/>
			<point x="422" y="278"/>
			<point x="441" y="399" type="curve"/>
			<point x="695" y="399" type="line"/>
			<point x="688" y="305"/>
			<point x="676" y="176"/>
			<point x="660" y="71" type="curve"/>
		</contour>
	</outline>
</glyph>
<glyph name="隶字框" format="2">
	<unicode hex="E0F1"/>
	<advance width="1000"/>
	<outline>
		<contour>
			<point x="531" y="356" type="line"/>
			<point x="754" y="356" type="line"/>
			<point x="754" y="235" type="line"/>
			<point x="531" y="235" type="line"/>
		</contour>
		<contour>
			<point x="531" y="532" type="line"/>
			<point x="754" y="532" type="line"/>
			<point x="754" y="422" type="line"/>
			<point x="531" y="422" type="line"/>
		</contour>
		<contour>
			<point x="453" y="598" type="line"/>
			<point x="453" y="731" type="line"/>
			<point x="527" y="731" type="line"/>
			<point x="527" y="598" type="line"/>
			<point x="824" y="598" type="line"/>
			<point x="824" y="422" type="line"/>
			<point x="961" y="422" type="line"/>
			<point x="961" y="356" type="line"/>
			<point x="824" y="356" type="line"/>
			<point x="824" y="168" type="line"/>
			<point x="531" y="168" type="line"/>
			<point x="531" y="36" type="line"/>
			<point x="531" y="-31"/>
			<point x="484" y="-46" type="qcurve"/>
			<point x="445" y="-58"/>
			<point x="305" y="-58" type="qcurve"/>
			<point x="297" y="-27"/>
			<point x="273" y="12" type="qcurve"/>
			<point x="395" y="8"/>
			<point x="430" y="12" type="qcurve"/>
			<point x="453" y="16"/>
			<point x="453" y="36" type="qcurve"/>
			<point x="453" y="168" type="line"/>
			<point x="141" y="168" type="line"/>
			<point x="141" y="235" type="line"/>
			<point x="453" y="235" type="line"/>
			<point x="453" y="356" type="line"/>
			<point x="43" y="356" type="line"/>
			<point x="43" y="422" type="line"/>
			<point x="453" y="422" type="line"/>
			<point x="453" y="532" type="line"/>
			<point x="184" y="532" type="line"/>
			<point x="184" y="598" type="line"/>
		</contour>
	</outline>
</glyph>
<glyph name="典字头带横" format="2">
	<unicode hex="E0F4"/>
	<advance width="1000"/>
	<outline>
		<contour>
			<point x="355" y="247" type="line"/>
			<point x="215" y="247" type="line"/>
			<point x="215" y="430" type="line"/>
			<point x="355" y="430" type="line"/>
		</contour>
		<contour>
			<point x="426" y="247" type="line"/>
			<point x="426" y="430" type="line"/>
			<point x="574" y="430" type="line"/>
			<point x="574" y="247" type="line"/>
		</contour>
		<contour>
			<point x="645" y="247" type="line"/>
			<point x="645" y="430" type="line"/>
			<point x="793" y="430" type="line"/>
			<point x="793" y="247" type="line"/>
		</contour>
		<contour>
			<point x="141" y="739" type="line"/>
			<point x="141" y="247" type="line"/>
			<point x="39" y="247" type="line"/>
			<point x="39" y="176" type="line"/>
			<point x="961" y="176" type="line"/>
			<point x="961" y="247" type="line"/>
			<point x="867" y="247" type="line"/>
			<point x="867" y="739" type="line"/>
			<point x="645" y="739" type="line"/>
			<point x="645" y="864" type="line"/>
			<point x="574" y="864" type="line"/>
			<point x="574" y="739" type="line"/>
			<point x="426" y="739" type="line"/>
			<point x="426" y="864" type="line"/>
			<point x="355" y="864" type="line"/>
			<point x="355" y="739" type="line"/>
		</contour>
		<contour>
			<point x="355" y="500" type="line"/>
			<point x="215" y="500" type="line"/>
			<point x="215" y="668" type="line"/>
			<point x="355" y="668" type="line"/>
		</contour>
		<contour>
			<point x="426" y="500" type="line"/>
			<point x="426" y="668" type="line"/>
			<point x="574" y="668" type="line"/>
			<point x="574" y="500" type="line"/>
		</contour>
		<contour>
			<point x="645" y="500" type="line"/>
			<point x="645" y="668" type="line"/>
			<point x="793" y="668" type="line"/>
			<point x="793" y="500" type="line"/>
		</contour>
	</outline>
</glyph>
<glyph name="囊字头无冖" format="2">
	<unicode hex="E0F8"/>
	<advance width="1000"/>
	<outline>
		<contour>
			<point x="531" y="219" type="line"/>
			<point x="531" y="286" type="line"/>
			<point x="836" y="286" type="line"/>
			<point x="836" y="516" type="line"/>
			<point x="531" y="516" type="line"/>
			<point x="531" y="583" type="line"/>
			<point x="926" y="583" type="line"/>
			<point x="926" y="649" type="line"/>
			<point x="531" y="649" type="line"/>
			<point x="531" y="743" type="line"/>
			<point x="457" y="743" type="line"/>
			<point x="457" y="649" type="line"/>
			<point x="66" y="649" type="line"/>
			<point x="66" y="583" type="line"/>
			<point x="457" y="583" type="line"/>
			<point x="457" y="516" type="line"/>
			<point x="164" y="516" type="line"/>
			<point x="164" y="286" type="line"/>
			<point x="457" y="286" type="line"/>
			<point x="457" y="219" type="line"/>
		</contour>
		<contour>
			<point x="234" y="454" type="line"/>
			<point x="457" y="454" type="line"/>
			<point x="457" y="348" type="line"/>
			<point x="234" y="348" type="line"/>
		</contour>
		<contour>
			<point x="531" y="454" type="line"/>
			<point x="762" y="454" type="line"/>
			<point x="762" y="348" type="line"/>
			<point x="531" y="348" type="line"/>
		</contour>
	</outline>
</glyph>
<glyph name="憂字头" format="2">
	<unicode hex="E105"/>
	<advance width="1000"/>
	<outline>
		<contour>
			<point x="863" y="344" type="line"/>
			<point x="863" y="247" type="line"/>
			<point x="930" y="247" type="line"/>
			<point x="930" y="395" type="line"/>
			<point x="801" y="395" type="line"/>
			<point x="801" y="645" type="line"/>
			<point x="516" y="645" type="line"/>
			<point x="531" y="688" type="line"/>
			<point x="922" y="688" type="line"/>
			<point x="922" y="747" type="line"/>
			<point x="78" y="747" type="line"/>
			<point x="78" y="688" type="line"/>
			<point x="453" y="688" type="line"/>
			<point x="441" y="645" type="line"/>
			<point x="211" y="645" type="line"/>
			<point x="211" y="395" type="line"/>
			<point x="78" y="395" type="line"/>
			<point x="78" y="247" type="line"/>
			<point x="145" y="247" type="line"/>
			<point x="145" y="344" type="line"/>
		</contour>
		<contour>
			<point x="281" y="516" type="line"/>
			<point x="727" y="516" type="line"/>
			<point x="727" y="477" type="line"/>
			<point x="281" y="477" type="line"/>
		</contour>
		<contour>
			<point x="281" y="559" type="line"/>
			<point x="281" y="598" type="line"/>
			<point x="727" y="598" type="line"/>
			<point x="727" y="559" type="line"/>
		</contour>
		<contour>
			<point x="281" y="438" type="line"/>
			<point x="727" y="438" type="line"/>
			<point x="727" y="395" type="line"/>
			<point x="281" y="395" type="line"/>
		</contour>
	</outline>
</glyph>
<glyph name="龍字边" format="2">
	<unicode hex="E10C"/>
	<advance width="1000"/>
	<outline>
		<contour>
			<point x="359" y="415" type="line"/>
			<point x="359" y="8" type="line"/>
			<point x="359" y="-74"/>
			<point x="387" y="-93"/>
			<point x="480" y="-93" type="curve"/>
			<point x="500" y="-93"/>
			<point x="645" y="-93"/>
			<point x="664" y="-93" type="curve"/>
			<point x="742" y="-93"/>
			<point x="762" y="-66"/>
			<point x="773" y="24" type="curve"/>
			<point x="750" y="32"/>
			<point x="723" y="40"/>
			<point x="707" y="51" type="curve"/>
			<point x="703" y="-15"/>
			<point x="695" y="-31"/>
			<point x="660" y="-31" type="curve"/>
			<point x="629" y="-31"/>
			<point x="512" y="-31"/>
			<point x="488" y="-31" type="curve"/>
			<point x="441" y="-31"/>
			<point x="434" y="-23"/>
			<point x="434" y="8" type="curve"/>
			<point x="434" y="51" type="line"/>
			<point x="719" y="51" type="line"/>
			<point x="719" y="102" type="line"/>
			<point x="434" y="102" type="line"/>
			<point x="434" y="165" type="line"/>
			<point x="707" y="165" type="line"/>
			<point x="707" y="215" type="line"/>
			<point x="434" y="215" type="line"/>
			<point x="434" y="278" type="line"/>
			<point x="715" y="278" type="line"/>
			<point x="715" y="329" type="line"/>
			<point x="434" y="329" type="line"/>
			<point x="434" y="387" type="line"/>
			<point x="715" y="387" type="line"/>
			<point x="715" y="598" type="line"/>
			<point x="434" y="598" type="line"/>
			<point x="434" y="680" type="line"/>
			<point x="754" y="680" type="line"/>
			<point x="754" y="743" type="line"/>
			<point x="434" y="743" type="line"/>
			<point x="434" y="821" type="line"/>
			<point x="359" y="821" type="line"/>
			<point x="359" y="540" type="line"/>
			<point x="641" y="540" type="line"/>
			<point x="641" y="450" type="line"/>
			<point x="359" y="450" type="line"/>
		</contour>
	</outline>
</glyph>
<glyph name="畫字头" format="2">
	<unicode hex="E114"/>
	<advance width="1000"/>
	<outline>
		<contour>
			<point x="762" y="497" type="line"/>
			<point x="762" y="442" type="line"/>
			<point x="531" y="442" type="line"/>
			<point x="531" y="497" type="line"/>
		</contour>
		<contour>
			<point x="457" y="704" type="line"/>
			<point x="457" y="641" type="line"/>
			<point x="160" y="641" type="line"/>
			<point x="160" y="594" type="line"/>
			<point x="457" y="594" type="line"/>
			<point x="457" y="543" type="line"/>
			<point x="55" y="543" type="line"/>
			<point x="55" y="497" type="line"/>
			<point x="457" y="497" type="line"/>
			<point x="457" y="442" type="line"/>
			<point x="152" y="442" type="line"/>
			<point x="152" y="395" type="line"/>
			<point x="457" y="395" type="line"/>
			<point x="457" y="344" type="line"/>
			<point x="129" y="344" type="line"/>
			<point x="129" y="297" type="line"/>
			<point x="457" y="297" type="line"/>
			<point x="457" y="243" type="line"/>
			<point x="51" y="243" type="line"/>
			<point x="51" y="192" type="line"/>
			<point x="949" y="192" type="line"/>
			<point x="949" y="243" type="line"/>
			<point x="531" y="243" type="line"/>
			<point x="531" y="297" type="line"/>
			<point x="875" y="297" type="line"/>
			<point x="875" y="344" type="line"/>
			<point x="531" y="344" type="line"/>
			<point x="531" y="395" type="line"/>
			<point x="836" y="395" type="line"/>
			<point x="836" y="497" type="line"/>
			<point x="945" y="497" type="line"/>
			<point x="945" y="543" type="line"/>
			<point x="836" y="543" type="line"/>
			<point x="836" y="641" type="line"/>
			<point x="531" y="641" type="line"/>
			<point x="531" y="704" type="line"/>
		</contour>
		<contour>
			<point x="762" y="543" type="line"/>
			<point x="531" y="543" type="line"/>
			<point x="531" y="594" type="line"/>
			<point x="762" y="594" type="line"/>
		</contour>
	</outline>
</glyph>
<glyph name="婁字头无口" format="2">
	<unicode hex="E118"/>
	<advance width="1000"/>
	<outline>
		<contour>
			<point x="230" y="543" type="line"/>
			<point x="775" y="543" type="line"/>
			<point x="775" y="384" type="line"/>
			<point x="230" y="384" type="line"/>
		</contour>
		<contour>
			<point x="162" y="598" type="line"/>
			<point x="162" y="329" type="line"/>
			<point x="847" y="329" type="line"/>
			<point x="847" y="598" type="line"/>
		</contour>
		<contour>
			<point x="54" y="494" type="line"/>
			<point x="54" y="434" type="line"/>
			<point x="205" y="434" type="line"/>
			<point x="205" y="440" type="line"/>
			<point x="796" y="440" type="line"/>
			<point x="796" y="434" type="line"/>
			<point x="945" y="434" type="line"/>
			<point x="945" y="494" type="line"/>
			<point x="796" y="494" type="line"/>
			<point x="796" y="488" type="line"/>
			<point x="205" y="488" type="line"/>
			<point x="205" y="494" type="line"/>
		</contour>
		<contour>
			<point x="459" y="663" type="line"/>
			<point x="459" y="143" type="line"/>
			<point x="532" y="143" type="line"/>
			<point x="532" y="663" type="line"/>
		</contour>
	</outline>
</glyph>
<glyph name="弬字边心" format="2">
	<unicode hex="E119"/>
	<advance width="1000"/>
	<outline>
		<contour>
			<point x="450" y="562" type="line"/>
			<point x="450" y="492" type="line"/>
			<point x="585" y="492" type="line"/>
			<point x="585" y="287" type="line"/>
			<point x="450" y="287" type="line"/>
			<point x="450" y="217" type="line"/>
			<point x="653" y="217" type="line"/>
			<point x="653" y="562" type="line"/>
		</contour>
		<contour>
			<point x="450" y="749" type="line"/>
			<point x="450" y="523" type="line"/>
			<point x="515" y="523" type="line"/>
			<point x="515" y="749" type="line"/>
		</contour>
		<contour>
			<point x="325" y="587" type="line"/>
			<point x="325" y="193" type="line"/>
			<point x="384" y="193" type="line"/>
			<point x="384" y="587" type="line"/>
		</contour>
		<contour>
			<point x="449" y="255" type="line"/>
			<point x="449" y="6" type="line"/>
			<point x="514" y="6" type="line"/>
			<point x="514" y="255" type="line"/>
		</contour>
	</outline>
</glyph>
<glyph name="臦字旁" format="2">
	<unicode hex="E11C"/>
	<advance width="1000"/>
	<outline>
		<contour>
			<point x="543" y="567" type="line"/>
			<point x="543" y="743" type="line"/>
			<point x="648" y="743" type="line"/>
			<point x="648" y="567" type="line"/>
		</contour>
		<contour>
			<point x="715" y="809" type="line"/>
			<point x="336" y="809" type="line"/>
			<point x="336" y="743" type="line"/>
			<point x="473" y="743" type="line"/>
			<point x="473" y="567" type="line"/>
			<point x="363" y="567" type="line"/>
			<point x="363" y="243" type="line"/>
			<point x="473" y="243" type="line"/>
			<point x="473" y="43" type="line"/>
			<point x="324" y="43" type="line"/>
			<point x="324" y="-27" type="line"/>
			<point x="715" y="-27" type="line"/>
		</contour>
		<contour>
			<point x="539" y="243" type="line"/>
			<point x="648" y="243" type="line"/>
			<point x="648" y="43" type="line"/>
			<point x="539" y="43" type="line"/>
		</contour>
		<contour>
			<point x="648" y="497" type="line"/>
			<point x="648" y="317" type="line"/>
			<point x="430" y="317" type="line"/>
			<point x="430" y="497" type="line"/>
		</contour>
	</outline>
</glyph>
<glyph name="刋字旁" format="2">
	<unicode hex="E11E"/>
	<advance width="1000"/>
	<outline>
		<contour>
			<point x="746" y="813" type="line"/>
			<point x="652" y="762"/>
			<point x="477" y="723"/>
			<point x="320" y="696" type="curve"/>
			<point x="332" y="680"/>
			<point x="340" y="653"/>
			<point x="344" y="633" type="curve"/>
			<point x="410" y="645"/>
			<point x="480" y="657"/>
			<point x="547" y="672" type="curve"/>
			<point x="547" y="442" type="line"/>
			<point x="316" y="442" type="line"/>
			<point x="316" y="368" type="line"/>
			<point x="547" y="368" type="line"/>
			<point x="543" y="215"/>
			<point x="508" y="67"/>
			<point x="328" y="-46" type="curve"/>
			<point x="348" y="-58"/>
			<point x="375" y="-85"/>
			<point x="387" y="-101" type="curve"/>
			<point x="582" y="24"/>
			<point x="617" y="196"/>
			<point x="621" y="368" type="curve"/>
			<point x="828" y="368" type="line"/>
			<point x="828" y="442" type="line"/>
			<point x="625" y="442" type="line"/>
			<point x="625" y="692" type="line"/>
			<point x="691" y="711"/>
			<point x="758" y="735"/>
			<point x="809" y="758" type="curve"/>
		</contour>
	</outline>
</glyph>
<glyph name="虛字底" format="2">
	<unicode hex="E120"/>
	<advance width="1000"/>
	<outline>
		<contour>
			<point x="793" y="458" type="line"/>
			<point x="793" y="329" type="line"/>
			<point x="680" y="329" type="line"/>
			<point x="680" y="473" type="line"/>
			<point x="613" y="473" type="line"/>
			<point x="613" y="188" type="line"/>
			<point x="504" y="188" type="line"/>
			<point x="504" y="473" type="line"/>
			<point x="438" y="473" type="line"/>
			<point x="438" y="329" type="line"/>
			<point x="336" y="329" type="line"/>
			<point x="336" y="458" type="line"/>
			<point x="277" y="458" type="line"/>
			<point x="277" y="270" type="line"/>
			<point x="438" y="270" type="line"/>
			<point x="438" y="188" type="line"/>
			<point x="191" y="188" type="line"/>
			<point x="191" y="122" type="line"/>
			<point x="938" y="122" type="line"/>
			<point x="938" y="188" type="line"/>
			<point x="680" y="188" type="line"/>
			<point x="680" y="270" type="line"/>
			<point x="855" y="270" type="line"/>
			<point x="855" y="458" type="line"/>
		</contour>
	</outline>
</glyph>
<glyph name="厯字底" format="2">
	<unicode hex="E121"/>
	<advance width="1000"/>
	<outline>
		<contour>
			<point x="262" y="235" type="line"/>
			<point x="262" y="55" type="line"/>
			<point x="262" y="-23"/>
			<point x="289" y="-42"/>
			<point x="398" y="-42" type="curve"/>
			<point x="422" y="-42"/>
			<point x="582" y="-42"/>
			<point x="605" y="-42" type="curve"/>
			<point x="691" y="-42"/>
			<point x="715" y="-15"/>
			<point x="727" y="106" type="curve"/>
			<point x="703" y="110"/>
			<point x="672" y="122"/>
			<point x="656" y="133" type="curve"/>
			<point x="652" y="40"/>
			<point x="645" y="24"/>
			<point x="598" y="24" type="curve"/>
			<point x="563" y="24"/>
			<point x="430" y="24"/>
			<point x="402" y="24" type="curve"/>
			<point x="344" y="24"/>
			<point x="336" y="32"/>
			<point x="336" y="55" type="curve"/>
			<point x="336" y="235" type="line"/>
		</contour>
		<contour>
			<point x="375" y="254" type="line"/>
			<point x="441" y="215"/>
			<point x="516" y="157"/>
			<point x="547" y="110" type="curve"/>
			<point x="602" y="157" type="line"/>
			<point x="566" y="204"/>
			<point x="492" y="258"/>
			<point x="426" y="297" type="curve"/>
		</contour>
		<contour>
			<point x="684" y="188" type="line"/>
			<point x="758" y="129"/>
			<point x="832" y="47"/>
			<point x="859" y="-11" type="curve"/>
			<point x="926" y="24" type="line"/>
			<point x="895" y="86"/>
			<point x="816" y="168"/>
			<point x="746" y="223" type="curve"/>
		</contour>
	</outline>
</glyph>
<glyph name="臦字旁心" format="2">
	<unicode hex="E122"/>
	<advance width="1000"/>
	<outline>
		<contour>
			<point x="658" y="544" type="line"/>
			<point x="658" y="474" type="line"/>
			<point x="407" y="474" type="line"/>
			<point x="407" y="293" type="line"/>
			<point x="658" y="293" type="line"/>
			<point x="658" y="223" type="line"/>
			<point x="339" y="223" type="line"/>
			<point x="339" y="544" type="line"/>
		</contour>
		<contour>
			<point x="518" y="740" type="line"/>
			<point x="518" y="507" type="line"/>
			<point x="450" y="507" type="line"/>
			<point x="450" y="740" type="line"/>
		</contour>
		<contour>
			<point x="518" y="257" type="line"/>
			<point x="518" y="-11" type="line"/>
			<point x="451" y="-11" type="line"/>
			<point x="451" y="257" type="line"/>
		</contour>
	</outline>
</glyph>
<glyph name="㒫字头" format="2">
	<unicode hex="E125"/>
	<advance width="1000"/>
	<outline>
		<contour>
			<point x="215" y="696" type="line"/>
			<point x="215" y="258" type="line"/>
			<point x="55" y="258" type="line"/>
			<point x="55" y="188" type="line"/>
			<point x="320" y="188" type="line"/>
			<point x="398" y="188" type="line"/>
			<point x="574" y="188" type="line"/>
			<point x="645" y="188" type="line"/>
			<point x="941" y="188" type="line"/>
			<point x="941" y="258" type="line"/>
			<point x="289" y="258" type="line"/>
			<point x="289" y="418" type="line"/>
			<point x="836" y="418" type="line"/>
			<point x="836" y="485" type="line"/>
			<point x="289" y="485" type="line"/>
			<point x="289" y="629" type="line"/>
			<point x="867" y="629" type="line"/>
			<point x="867" y="696" type="line"/>
		</contour>
	</outline>
</glyph>
<glyph name="盡字头无灬" format="2">
	<unicode hex="E128"/>
	<advance width="1000"/>
	<outline>
		<contour>
			<point x="48" y="665" type="line"/>
			<point x="48" y="608" type="line"/>
			<point x="951" y="608" type="line"/>
			<point x="951" y="665" type="line"/>
		</contour>
		<contour>
			<point x="65" y="429" type="line"/>
			<point x="65" y="371" type="line"/>
			<point x="936" y="371" type="line"/>
			<point x="936" y="429" type="line"/>
		</contour>
		<contour>
			<point x="457" y="842" type="line"/>
			<point x="457" y="410" type="line"/>
			<point x="531" y="410" type="line"/>
			<point x="531" y="842" type="line"/>
		</contour>
		<contour>
			<point x="156" y="782" type="line"/>
			<point x="156" y="727" type="line"/>
			<point x="761" y="727" type="line"/>
			<point x="761" y="545" type="line"/>
			<point x="150" y="545" type="line"/>
			<point x="150" y="490" type="line"/>
			<point x="835" y="490" type="line"/>
			<point x="835" y="782" type="line"/>
		</contour>
	</outline>
</glyph>
<glyph name="斲字旁" format="2">
	<unicode hex="E129"/>
	<advance width="1039"/>
	<outline>
		<contour>
			<point x="492" y="805" type="line"/>
			<point x="293" y="805" type="line"/>
			<point x="293" y="547" type="line"/>
			<point x="434" y="547" type="line"/>
			<point x="434" y="458" type="line"/>
			<point x="293" y="458" type="line"/>
			<point x="293" y="211" type="line"/>
			<point x="430" y="211" type="line"/>
			<point x="430" y="55" type="line"/>
			<point x="234" y="55" type="line"/>
			<point x="234" y="-15" type="line"/>
			<point x="820" y="-15" type="line"/>
			<point x="820" y="55" type="line"/>
			<point x="625" y="55" type="line"/>
			<point x="625" y="211" type="line"/>
			<point x="762" y="211" type="line"/>
			<point x="762" y="458" type="line"/>
			<point x="621" y="458" type="line"/>
			<point x="621" y="543" type="line"/>
			<point x="762" y="543" type="line"/>
			<point x="762" y="805" type="line"/>
			<point x="559" y="805" type="line"/>
			<point x="559" y="399" type="line"/>
			<point x="695" y="399" type="line"/>
			<point x="695" y="270" type="line"/>
			<point x="559" y="270" type="line"/>
			<point x="559" y="55" type="line"/>
			<point x="492" y="55" type="line"/>
			<point x="492" y="270" type="line"/>
			<point x="359" y="270" type="line"/>
			<point x="359" y="399" type="line"/>
			<point x="492" y="399" type="line"/>
		</contour>
		<contour>
			<point x="434" y="606" type="line"/>
			<point x="355" y="606" type="line"/>
			<point x="355" y="747" type="line"/>
			<point x="434" y="747" type="line"/>
		</contour>
		<contour>
			<point x="621" y="747" type="line"/>
			<point x="703" y="747" type="line"/>
			<point x="703" y="606" type="line"/>
			<point x="621" y="606" type="line"/>
		</contour>
	</outline>
</glyph>
<glyph name="亜无一" format="2">
	<unicode hex="E136"/>
	<advance width="1000"/>
	<outline>
		<contour>
			<point x="641" y="297" type="line"/>
			<point x="641" y="520" type="line"/>
			<point x="801" y="520" type="line"/>
			<point x="801" y="297" type="line"/>
		</contour>
		<contour>
			<point x="414" y="297" type="line"/>
			<point x="414" y="520" type="line"/>
			<point x="570" y="520" type="line"/>
			<point x="570" y="297" type="line"/>
		</contour>
		<contour>
			<point x="340" y="297" type="line"/>
			<point x="191" y="297" type="line"/>
			<point x="191" y="520" type="line"/>
			<point x="340" y="520" type="line"/>
		</contour>
		<contour>
			<point x="414" y="231" type="line"/>
			<point x="570" y="231" type="line"/>
			<point x="570" y="51" type="line"/>
			<point x="414" y="51" type="line"/>
		</contour>
		<contour>
			<point x="570" y="727" type="line"/>
			<point x="570" y="586" type="line"/>
			<point x="414" y="586" type="line"/>
			<point x="414" y="727" type="line"/>
		</contour>
		<contour>
			<point x="340" y="727" type="line"/>
			<point x="340" y="586" type="line"/>
			<point x="121" y="586" type="line"/>
			<point x="121" y="192" type="line"/>
			<point x="191" y="192" type="line"/>
			<point x="191" y="231" type="line"/>
			<point x="340" y="231" type="line"/>
			<point x="340" y="51" type="line"/>
			<point x="47" y="51" type="line"/>
			<point x="47" y="-19" type="line"/>
			<point x="953" y="-19" type="line"/>
			<point x="953" y="51" type="line"/>
			<point x="641" y="51" type="line"/>
			<point x="641" y="231" type="line"/>
			<point x="801" y="231" type="line"/>
			<point x="801" y="196" type="line"/>
			<point x="875" y="196" type="line"/>
			<point x="875" y="586" type="line"/>
			<point x="641" y="586" type="line"/>
			<point x="641" y="727" type="line"/>
		</contour>
	</outline>
</glyph>
<glyph name="亞无一" format="2">
	<unicode hex="E137"/>
	<advance width="1000"/>
	<outline>
		<contour>
			<point x="422" y="727" type="line"/>
			<point x="348" y="727" type="line"/>
			<point x="348" y="571" type="line"/>
			<point x="121" y="571" type="line"/>
			<point x="121" y="235" type="line"/>
			<point x="348" y="235" type="line"/>
			<point x="348" y="51" type="line"/>
			<point x="51" y="51" type="line"/>
			<point x="51" y="-15" type="line"/>
			<point x="949" y="-15" type="line"/>
			<point x="949" y="51" type="line"/>
			<point x="645" y="51" type="line"/>
			<point x="645" y="235" type="line"/>
			<point x="875" y="235" type="line"/>
			<point x="875" y="571" type="line"/>
			<point x="645" y="571" type="line"/>
			<point x="645" y="727" type="line"/>
			<point x="570" y="727" type="line"/>
			<point x="570" y="504" type="line"/>
			<point x="797" y="504" type="line"/>
			<point x="797" y="301" type="line"/>
			<point x="570" y="301" type="line"/>
			<point x="570" y="51" type="line"/>
			<point x="422" y="51" type="line"/>
			<point x="422" y="297" type="line"/>
			<point x="195" y="297" type="line"/>
			<point x="195" y="504" type="line"/>
			<point x="422" y="504" type="line"/>
		</contour>
	</outline>
</glyph>
<glyph name="馬字框" format="2">
	<unicode hex="E157"/>
	<advance width="1000"/>
	<outline>
		<contour>
			<point x="473" y="426" type="line"/>
			<point x="473" y="325" type="line"/>
			<point x="238" y="325" type="line"/>
			<point x="238" y="426" type="line"/>
		</contour>
		<contour>
			<point x="164" y="809" type="line"/>
			<point x="164" y="258" type="line"/>
			<point x="852" y="258" type="line"/>
			<point x="840" y="98"/>
			<point x="828" y="36"/>
			<point x="809" y="16" type="curve"/>
			<point x="801" y="8"/>
			<point x="793" y="8"/>
			<point x="773" y="8" type="curve"/>
			<point x="758" y="4"/>
			<point x="711" y="8"/>
			<point x="660" y="12" type="curve"/>
			<point x="672" y="-7"/>
			<point x="680" y="-39"/>
			<point x="680" y="-58" type="curve"/>
			<point x="730" y="-62"/>
			<point x="781" y="-62"/>
			<point x="809" y="-58" type="curve"/>
			<point x="836" y="-54"/>
			<point x="855" y="-50"/>
			<point x="875" y="-31" type="curve"/>
			<point x="902" y="0"/>
			<point x="918" y="83"/>
			<point x="930" y="293" type="curve"/>
			<point x="930" y="305"/>
			<point x="934" y="325"/>
			<point x="934" y="325" type="curve"/>
			<point x="547" y="325" type="line"/>
			<point x="547" y="426" type="line"/>
			<point x="836" y="426" type="line"/>
			<point x="836" y="489" type="line"/>
			<point x="547" y="489" type="line"/>
			<point x="547" y="583" type="line"/>
			<point x="836" y="583" type="line"/>
			<point x="836" y="645" type="line"/>
			<point x="547" y="645" type="line"/>
			<point x="547" y="747" type="line"/>
			<point x="871" y="747" type="line"/>
			<point x="871" y="809" type="line"/>
		</contour>
		<contour>
			<point x="473" y="489" type="line"/>
			<point x="238" y="489" type="line"/>
			<point x="238" y="583" type="line"/>
			<point x="473" y="583" type="line"/>
		</contour>
		<contour>
			<point x="473" y="645" type="line"/>
			<point x="238" y="645" type="line"/>
			<point x="238" y="747" type="line"/>
			<point x="473" y="747" type="line"/>
		</contour>
	</outline>
</glyph>
<glyph name="叏字头" format="2">
	<unicode hex="E15B"/>
	<advance width="1000"/>
	<outline>
		<contour>
			<point x="535" y="360" type="line"/>
			<point x="535" y="485" type="line"/>
			<point x="734" y="485" type="line"/>
			<point x="734" y="360" type="line"/>
		</contour>
		<contour>
			<point x="535" y="200" type="line"/>
			<point x="535" y="293" type="line"/>
			<point x="949" y="293" type="line"/>
			<point x="949" y="360" type="line"/>
			<point x="805" y="360" type="line"/>
			<point x="805" y="551" type="line"/>
			<point x="535" y="551" type="line"/>
			<point x="535" y="665" type="line"/>
			<point x="461" y="665" type="line"/>
			<point x="461" y="551" type="line"/>
			<point x="168" y="551" type="line"/>
			<point x="168" y="485" type="line"/>
			<point x="461" y="485" type="line"/>
			<point x="461" y="360" type="line"/>
			<point x="55" y="360" type="line"/>
			<point x="55" y="293" type="line"/>
			<point x="461" y="293" type="line"/>
			<point x="461" y="200" type="line"/>
		</contour>
	</outline>
</glyph>
<glyph name="黽字心" format="2">
	<unicode hex="E16A"/>
	<advance width="1000"/>
	<outline>
		<contour>
			<point x="211" y="750" type="line"/>
			<point x="375" y="750" type="line"/>
			<point x="375" y="637" type="line"/>
			<point x="211" y="637" type="line"/>
		</contour>
		<contour>
			<point x="613" y="575" type="line"/>
			<point x="852" y="575" type="line"/>
			<point x="852" y="809" type="line"/>
			<point x="141" y="809" type="line"/>
			<point x="141" y="575" type="line"/>
			<point x="375" y="575" type="line"/>
			<point x="375" y="94" type="line"/>
			<point x="375" y="-15"/>
			<point x="410" y="-42"/>
			<point x="535" y="-42" type="curve"/>
			<point x="820" y="-42" type="line"/>
			<point x="922" y="-42"/>
			<point x="945" y="-7"/>
			<point x="957" y="94" type="curve"/>
			<point x="938" y="94"/>
			<point x="910" y="106"/>
			<point x="895" y="118" type="curve"/>
			<point x="891" y="110" type="line"/>
			<point x="883" y="40"/>
			<point x="871" y="24"/>
			<point x="816" y="24" type="curve"/>
			<point x="613" y="24" type="line"/>
		</contour>
		<contour>
			<point x="613" y="750" type="line"/>
			<point x="777" y="750" type="line"/>
			<point x="777" y="633" type="line"/>
			<point x="613" y="633" type="line"/>
		</contour>
		<contour>
			<point x="543" y="750" type="line"/>
			<point x="543" y="24" type="line"/>
			<point x="535" y="24" type="line"/>
			<point x="457" y="24"/>
			<point x="445" y="36"/>
			<point x="445" y="94" type="curve"/>
			<point x="445" y="750" type="line"/>
		</contour>
	</outline>
</glyph>
<glyph name="畱字头" format="2">
	<unicode hex="E16D"/>
	<advance width="1000"/>
	<outline>
		<contour>
			<point x="543" y="208" type="line"/>
			<point x="613" y="208" type="line"/>
			<point x="613" y="290" type="line"/>
			<point x="883" y="290" type="line"/>
			<point x="883" y="520" type="line"/>
			<point x="613" y="520" type="line"/>
			<point x="613" y="598" type="line"/>
			<point x="926" y="598" type="line"/>
			<point x="926" y="661" type="line"/>
			<point x="66" y="661" type="line"/>
			<point x="66" y="598" type="line"/>
			<point x="371" y="598" type="line"/>
			<point x="371" y="520" type="line"/>
			<point x="113" y="520" type="line"/>
			<point x="113" y="290" type="line"/>
			<point x="371" y="290" type="line"/>
			<point x="371" y="208" type="line"/>
			<point x="441" y="208" type="line"/>
			<point x="441" y="598" type="line"/>
			<point x="543" y="598" type="line"/>
		</contour>
		<contour>
			<point x="371" y="352" type="line"/>
			<point x="184" y="352" type="line"/>
			<point x="184" y="458" type="line"/>
			<point x="371" y="458" type="line"/>
		</contour>
		<contour>
			<point x="613" y="458" type="line"/>
			<point x="813" y="458" type="line"/>
			<point x="813" y="352" type="line"/>
			<point x="613" y="352" type="line"/>
		</contour>
	</outline>
</glyph>
<glyph name="龜字心无撇" format="2">
	<unicode hex="E171"/>
	<advance width="1000"/>
	<outline>
		<contour>
			<point x="539" y="606" type="line"/>
			<point x="539" y="12" type="line"/>
			<point x="465" y="12"/>
			<point x="453" y="24"/>
			<point x="453" y="71" type="curve"/>
			<point x="453" y="606" type="line"/>
			<point x="219" y="606" type="line"/>
			<point x="219" y="704" type="line"/>
			<point x="789" y="704" type="line"/>
			<point x="789" y="606" type="line"/>
		</contour>
		<contour>
			<point x="152" y="754" type="line"/>
			<point x="152" y="551" type="line"/>
			<point x="387" y="551" type="line"/>
			<point x="387" y="71" type="line"/>
			<point x="387" y="-23"/>
			<point x="422" y="-46"/>
			<point x="543" y="-46" type="curve"/>
			<point x="570" y="-46"/>
			<point x="801" y="-46"/>
			<point x="832" y="-46" type="curve"/>
			<point x="930" y="-46"/>
			<point x="949" y="-19"/>
			<point x="961" y="75" type="curve"/>
			<point x="941" y="79"/>
			<point x="914" y="86"/>
			<point x="898" y="94" type="curve"/>
			<point x="895" y="28"/>
			<point x="883" y="12"/>
			<point x="828" y="12" type="curve"/>
			<point x="605" y="12" type="line"/>
			<point x="605" y="551" type="line"/>
			<point x="863" y="551" type="line"/>
			<point x="863" y="754" type="line"/>
		</contour>
	</outline>
</glyph>
<glyph name="鬬字心旁" format="2">
	<unicode hex="E173"/>
	<advance width="1336"/>
	<outline>
		<contour>
			<point x="332" y="708" type="curve"/>
			<point x="332" y="438" type="line"/>
			<point x="512" y="438" type="line"/>
			<point x="512" y="325" type="line"/>
			<point x="320" y="325" type="line"/>
			<point x="320" y="55" type="line"/>
			<point x="516" y="55" type="line"/>
			<point x="512" y="-105" type="line"/>
			<point x="285" y="-105" type="line"/>
			<point x="285" y="-160" type="line"/>
			<point x="965" y="-160" type="line"/>
			<point x="965" y="-101" type="line"/>
			<point x="738" y="-101" type="line"/>
			<point x="738" y="55" type="line"/>
			<point x="930" y="55" type="line"/>
			<point x="930" y="321" type="line"/>
			<point x="738" y="321" type="line"/>
			<point x="738" y="438" type="line"/>
			<point x="934" y="438" type="line"/>
			<point x="934" y="731" type="line"/>
			<point x="672" y="731" type="line"/>
			<point x="672" y="258" type="line"/>
			<point x="867" y="258" type="line"/>
			<point x="867" y="114" type="line"/>
			<point x="672" y="114" type="line"/>
			<point x="676" y="-105" type="line"/>
			<point x="574" y="-105" type="line"/>
			<point x="574" y="114" type="line"/>
			<point x="387" y="114" type="line"/>
			<point x="387" y="262" type="line"/>
			<point x="574" y="262" type="line"/>
			<point x="574" y="629" type="line"/>
			<point x="512" y="629" type="line"/>
			<point x="512" y="504" type="line"/>
			<point x="398" y="504" type="line"/>
			<point x="398" y="668" type="line"/>
			<point x="473" y="680"/>
			<point x="543" y="700"/>
			<point x="582" y="719" type="curve"/>
			<point x="547" y="774" type="line"/>
			<point x="500" y="747"/>
			<point x="398" y="723"/>
		</contour>
		<contour>
			<point x="738" y="497" type="line"/>
			<point x="738" y="665" type="line"/>
			<point x="871" y="665" type="line"/>
			<point x="871" y="497" type="line"/>
		</contour>
	</outline>
</glyph>
<glyph name="弟省无弓" format="2">
	<unicode hex="E17B"/>
	<advance width="1051"/>
	<outline>
		<contour>
			<point x="590" y="375" type="line"/>
			<point x="504" y="227"/>
			<point x="391" y="102"/>
			<point x="277" y="43" type="curve"/>
			<point x="297" y="28"/>
			<point x="316" y="4"/>
			<point x="328" y="-15" type="curve"/>
			<point x="426" y="47"/>
			<point x="523" y="153"/>
			<point x="594" y="262" type="curve"/>
			<point x="594" y="-58" type="line"/>
			<point x="664" y="-58" type="line"/>
			<point x="664" y="352" type="line"/>
			<point x="664" y="418" type="line"/>
			<point x="664" y="668" type="line"/>
			<point x="664" y="723" type="line"/>
			<point x="594" y="723" type="line"/>
		</contour>
	</outline>
</glyph>
<glyph name="耉字框无耂" format="2">
	<unicode hex="E182"/>
	<advance width="1000"/>
	<outline>
		<contour>
			<point x="748" y="684" type="line"/>
			<point x="644" y="654"/>
			<point x="455" y="628"/>
			<point x="298" y="614" type="curve"/>
			<point x="305" y="600"/>
			<point x="313" y="578"/>
			<point x="315" y="564" type="curve"/>
			<point x="477" y="577"/>
			<point x="671" y="602"/>
			<point x="795" y="636" type="curve"/>
		</contour>
		<contour>
			<point x="275" y="672" type="line"/>
			<point x="260" y="601"/>
			<point x="237" y="510"/>
			<point x="218" y="452" type="curve"/>
			<point x="291" y="441" type="line"/>
			<point x="310" y="500"/>
			<point x="332" y="589"/>
			<point x="349" y="664" type="curve"/>
		</contour>
		<contour>
			<point x="728" y="525" type="line"/>
			<point x="728" y="514" type="line"/>
			<point x="702" y="270"/>
			<point x="673" y="166"/>
			<point x="638" y="136" type="curve"/>
			<point x="626" y="126"/>
			<point x="614" y="125"/>
			<point x="591" y="125" type="curve"/>
			<point x="567" y="125"/>
			<point x="504" y="126"/>
			<point x="439" y="133" type="curve"/>
			<point x="452" y="114"/>
			<point x="460" y="85"/>
			<point x="461" y="66" type="curve"/>
			<point x="525" y="62"/>
			<point x="586" y="61"/>
			<point x="617" y="63" type="curve"/>
			<point x="652" y="66"/>
			<point x="675" y="72"/>
			<point x="698" y="94" type="curve"/>
			<point x="740" y="133"/>
			<point x="768" y="237"/>
			<point x="798" y="493" type="curve"/>
			<point x="800" y="504"/>
			<point x="801" y="528"/>
			<point x="801" y="528" type="curve"/>
		</contour>
		<contour>
			<point x="275" y="528" type="line"/>
			<point x="261" y="470" type="line"/>
			<point x="751" y="470" type="line"/>
			<point x="751" y="528" type="line"/>
		</contour>
	</outline>
</glyph>
<glyph name="惠字头无点" format="2">
	<unicode hex="E183"/>
	<advance width="1000"/>
	<outline>
		<contour>
			<point x="76" y="778" type="line"/>
			<point x="76" y="716" type="line"/>
			<point x="923" y="716" type="line"/>
			<point x="923" y="778" type="line"/>
		</contour>
		<contour>
			<point x="456" y="838" type="line"/>
			<point x="456" y="267" type="line"/>
			<point x="533" y="267" type="line"/>
			<point x="533" y="838" type="line"/>
		</contour>
		<contour>
			<point x="215" y="488" type="line"/>
			<point x="780" y="488" type="line"/>
			<point x="780" y="421" type="line"/>
			<point x="215" y="421" type="line"/>
		</contour>
		<contour>
			<point x="215" y="601" type="line"/>
			<point x="780" y="601" type="line"/>
			<point x="780" y="535" type="line"/>
			<point x="215" y="535" type="line"/>
		</contour>
		<contour>
			<point x="144" y="651" type="line"/>
			<point x="144" y="370" type="line"/>
			<point x="854" y="370" type="line"/>
			<point x="854" y="651" type="line"/>
		</contour>
		<contour>
			<point x="77" y="290" type="line"/>
			<point x="80" y="224" type="line"/>
			<point x="265" y="226"/>
			<point x="552" y="231"/>
			<point x="822" y="237" type="curve"/>
			<point x="826" y="296" type="line"/>
			<point x="551" y="292"/>
			<point x="259" y="290"/>
			<point x="78" y="290" type="curve"/>
		</contour>
	</outline>
</glyph>
<glyph name="亥三" format="2">
	<unicode hex="E184"/>
	<advance width="1000"/>
	<outline>
		<contour>
			<point x="57" y="710" type="line"/>
			<point x="57" y="637" type="line"/>
			<point x="945" y="637" type="line"/>
			<point x="945" y="710" type="line"/>
		</contour>
		<contour>
			<point x="424" y="823" type="line"/>
			<point x="451" y="781"/>
			<point x="481" y="724"/>
			<point x="494" y="689" type="curve"/>
			<point x="573" y="716" type="line"/>
			<point x="559" y="751"/>
			<point x="527" y="806"/>
			<point x="500" y="846" type="curve"/>
		</contour>
		<contour>
			<point x="182" y="369" type="curve"/>
			<point x="182" y="392"/>
			<point x="276" y="420"/>
			<point x="276" y="420" type="curve"/>
			<point x="340" y="481"/>
			<point x="453" y="608"/>
			<point x="513" y="683" type="curve"/>
			<point x="417" y="683" type="line"/>
			<point x="377" y="634"/>
			<point x="263" y="508"/>
			<point x="229" y="479" type="curve"/>
			<point x="207" y="461"/>
			<point x="180" y="453"/>
			<point x="162" y="449" type="curve"/>
			<point x="168" y="431"/>
			<point x="179" y="389"/>
		</contour>
		<contour>
			<point x="182" y="369" type="line"/>
			<point x="209" y="380"/>
			<point x="251" y="385"/>
			<point x="583" y="407" type="curve"/>
			<point x="588" y="424"/>
			<point x="598" y="456"/>
			<point x="608" y="476" type="curve"/>
			<point x="228" y="456" type="line"/>
			<point x="180" y="430" type="line"/>
		</contour>
	</outline>
</glyph>
<glyph name="㐆无折" format="2">
	<unicode hex="E18B"/>
	<advance width="1000"/>
	<outline>
		<contour>
			<point x="351" y="541" type="line"/>
			<point x="351" y="486" type="line"/>
			<point x="685" y="486" type="line"/>
			<point x="685" y="541" type="line"/>
		</contour>
		<contour>
			<point x="704" y="829" type="line"/>
			<point x="606" y="806"/>
			<point x="438" y="789"/>
			<point x="301" y="781" type="curve"/>
			<point x="308" y="765"/>
			<point x="316" y="742"/>
			<point x="318" y="725" type="curve"/>
			<point x="456" y="730"/>
			<point x="627" y="745"/>
			<point x="736" y="770" type="curve"/>
		</contour>
		<contour>
			<point x="348" y="681" type="line"/>
			<point x="348" y="623" type="line"/>
			<point x="654" y="623" type="line"/>
			<point x="654" y="401" type="line"/>
			<point x="348" y="401" type="line"/>
			<point x="348" y="343" type="line"/>
			<point x="724" y="343" type="line"/>
			<point x="724" y="681" type="line"/>
		</contour>
		<contour>
			<point x="301" y="783" type="line"/>
			<point x="301" y="412" type="line"/>
			<point x="301" y="270"/>
			<point x="290" y="95"/>
			<point x="175" y="-27" type="curve"/>
			<point x="190" y="-36"/>
			<point x="218" y="-62"/>
			<point x="229" y="-77" type="curve"/>
			<point x="355" y="53"/>
			<point x="373" y="259"/>
			<point x="373" y="412" type="curve"/>
			<point x="373" y="783" type="line"/>
		</contour>
	</outline>
</glyph>
<glyph name="戈无一" format="2">
	<unicode hex="E196"/>
	<advance width="1000"/>
	<outline>
		<contour>
			<point x="359" y="837" type="line"/>
			<point x="366" y="364"/>
			<point x="525" y="-78"/>
			<point x="810" y="-78" type="curve"/>
			<point x="901" y="-78"/>
			<point x="934" y="-32"/>
			<point x="953" y="141" type="curve"/>
			<point x="930" y="147"/>
			<point x="899" y="163"/>
			<point x="881" y="180" type="curve"/>
			<point x="871" y="42"/>
			<point x="854" y="0"/>
			<point x="811" y="0" type="curve"/>
			<point x="600" y="0"/>
			<point x="443" y="384"/>
			<point x="441" y="834" type="curve"/>
		</contour>
		<contour>
			<point x="561" y="775" type="line"/>
			<point x="633" y="741"/>
			<point x="725" y="688"/>
			<point x="771" y="650" type="curve"/>
			<point x="821" y="707" type="line"/>
			<point x="774" y="743"/>
			<point x="680" y="794"/>
			<point x="610" y="825" type="curve"/>
		</contour>
		<contour>
			<point x="798" y="499" type="line"/>
			<point x="649" y="259"/>
			<point x="388" y="92"/>
			<point x="84" y="0" type="curve"/>
			<point x="100" y="-17"/>
			<point x="125" y="-53"/>
			<point x="135" y="-72" type="curve"/>
			<point x="438" y="33"/>
			<point x="707" y="206"/>
			<point x="873" y="464" type="curve"/>
		</contour>
	</outline>
</glyph>
<glyph name="颐字旁心" format="2">
	<unicode hex="E19A"/>
	<advance width="1000"/>
	<outline>
		<contour>
			<point x="466" y="766" type="line"/>
			<point x="466" y="541" type="line"/>
			<point x="530" y="541" type="line"/>
			<point x="530" y="766" type="line"/>
		</contour>
		<contour>
			<point x="469" y="283" type="line"/>
			<point x="469" y="31" type="line"/>
			<point x="533" y="31" type="line"/>
			<point x="533" y="283" type="line"/>
		</contour>
		<contour>
			<point x="372" y="512" type="line"/>
			<point x="623" y="512" type="line"/>
			<point x="623" y="305" type="line"/>
			<point x="372" y="305" type="line"/>
		</contour>
		<contour>
			<point x="315" y="572" type="line"/>
			<point x="315" y="246" type="line"/>
			<point x="683" y="246" type="line"/>
			<point x="683" y="572" type="line"/>
		</contour>
	</outline>
</glyph>
<glyph name="虛字底无一" format="2">
	<unicode hex="E1A0"/>
	<advance width="1000"/>
	<outline>
		<contour>
			<point x="131" y="127" type="line"/>
			<point x="131" y="62" type="line"/>
			<point x="877" y="62" type="line"/>
			<point x="877" y="127" type="line"/>
		</contour>
		<contour>
			<point x="379" y="593" type="line"/>
			<point x="379" y="102" type="line"/>
			<point x="444" y="102" type="line"/>
			<point x="444" y="593" type="line"/>
		</contour>
		<contour>
			<point x="556" y="593" type="line"/>
			<point x="556" y="100" type="line"/>
			<point x="622" y="100" type="line"/>
			<point x="622" y="593" type="line"/>
		</contour>
		<contour>
			<point x="217" y="576" type="line"/>
			<point x="217" y="206" type="line"/>
			<point x="413" y="206" type="line"/>
			<point x="413" y="264" type="line"/>
			<point x="276" y="264" type="line"/>
			<point x="276" y="576" type="line"/>
		</contour>
		<contour>
			<point x="732" y="576" type="line"/>
			<point x="732" y="264" type="line"/>
			<point x="591" y="264" type="line"/>
			<point x="591" y="206" type="line"/>
			<point x="792" y="206" type="line"/>
			<point x="792" y="576" type="line"/>
		</contour>
	</outline>
</glyph>
<glyph name="亚三" format="2">
	<unicode hex="E1A1"/>
	<advance width="1000"/>
	<outline>
		<contour>
			<point x="333" y="746" type="line"/>
			<point x="333" y="6" type="line"/>
			<point x="413" y="6" type="line"/>
			<point x="413" y="746" type="line"/>
		</contour>
		<contour>
			<point x="574" y="746" type="line"/>
			<point x="574" y="2" type="line"/>
			<point x="654" y="2" type="line"/>
			<point x="654" y="746" type="line"/>
		</contour>
		<contour>
			<point x="73" y="780" type="line"/>
			<point x="73" y="706" type="line"/>
			<point x="932" y="706" type="line"/>
			<point x="932" y="780" type="line"/>
		</contour>
	</outline>
</glyph>
<glyph name="宐字底无横" format="2">
	<unicode hex="E1A2"/>
	<advance width="1000"/>
	<outline>
		<contour>
			<point x="302" y="509" type="line"/>
			<point x="302" y="440" type="line"/>
			<point x="714" y="440" type="line"/>
			<point x="714" y="509" type="line"/>
		</contour>
		<contour>
			<point x="313" y="650" type="line"/>
			<point x="281" y="490"/>
			<point x="227" y="268"/>
			<point x="186" y="137" type="curve"/>
			<point x="264" y="134" type="line"/>
			<point x="302" y="263"/>
			<point x="355" y="485"/>
			<point x="392" y="651" type="curve"/>
		</contour>
		<contour>
			<point x="689" y="510" type="line"/>
			<point x="669" y="345"/>
			<point x="631" y="118"/>
			<point x="600" y="-16" type="curve"/>
			<point x="681" y="-16" type="line"/>
			<point x="708" y="114"/>
			<point x="744" y="341"/>
			<point x="768" y="511" type="curve"/>
		</contour>
		<contour>
			<point x="349" y="307" type="line"/>
			<point x="425" y="270"/>
			<point x="518" y="210"/>
			<point x="562" y="166" type="curve"/>
			<point x="611" y="222" type="line"/>
			<point x="565" y="266"/>
			<point x="471" y="323"/>
			<point x="395" y="358" type="curve"/>
		</contour>
	</outline>
</glyph>
<glyph name="井变" format="2">
	<unicode hex="E242"/>
	<advance width="1000"/>
	<outline>
		<contour>
			<point x="104" y="559" type="line"/>
			<point x="104" y="502" type="line"/>
			<point x="905" y="502" type="line"/>
			<point x="905" y="559" type="line"/>
		</contour>
		<contour>
			<point x="141" y="349" type="line"/>
			<point x="141" y="294" type="line"/>
			<point x="862" y="294" type="line"/>
			<point x="862" y="349" type="line"/>
		</contour>
		<contour>
			<point x="311" y="696" type="line"/>
			<point x="311" y="101" type="line"/>
			<point x="384" y="101" type="line"/>
			<point x="384" y="696" type="line"/>
		</contour>
		<contour>
			<point x="610" y="696" type="line"/>
			<point x="610" y="101" type="line"/>
			<point x="684" y="101" type="line"/>
			<point x="684" y="696" type="line"/>
		</contour>
	</outline>
</glyph>
<glyph name="乑无丿" format="2">
	<unicode hex="E264"/>
	<advance width="1000"/>
	<outline>
		<contour>
			<point x="320" y="598" type="line"/>
			<point x="254" y="516"/>
			<point x="152" y="442"/>
			<point x="55" y="391" type="curve"/>
			<point x="70" y="379"/>
			<point x="102" y="352"/>
			<point x="113" y="336" type="curve"/>
			<point x="207" y="395"/>
			<point x="316" y="481"/>
			<point x="391" y="571" type="curve"/>
		</contour>
		<contour>
			<point x="340" y="321" type="line"/>
			<point x="270" y="219"/>
			<point x="156" y="122"/>
			<point x="43" y="59" type="curve"/>
			<point x="63" y="43"/>
			<point x="94" y="16"/>
			<point x="105" y="4" type="curve"/>
			<point x="215" y="75"/>
			<point x="332" y="180"/>
			<point x="410" y="293" type="curve"/>
		</contour>
		<contour>
			<point x="461" y="711" type="line"/>
			<point x="461" y="-58" type="line"/>
			<point x="535" y="-58" type="line"/>
			<point x="535" y="442" type="line"/>
			<point x="613" y="250"/>
			<point x="734" y="102"/>
			<point x="914" y="24" type="curve"/>
			<point x="926" y="43"/>
			<point x="949" y="75"/>
			<point x="969" y="90" type="curve"/>
			<point x="828" y="141"/>
			<point x="723" y="243"/>
			<point x="645" y="372" type="curve"/>
			<point x="727" y="430"/>
			<point x="828" y="520"/>
			<point x="902" y="594" type="curve"/>
			<point x="840" y="637" type="line"/>
			<point x="785" y="571"/>
			<point x="691" y="489"/>
			<point x="617" y="426" type="curve"/>
			<point x="582" y="497"/>
			<point x="555" y="571"/>
			<point x="535" y="653" type="curve"/>
			<point x="535" y="723" type="line"/>
		</contour>
	</outline>
</glyph>
<glyph name="丘无横" format="2">
	<unicode hex="E400"/>
	<advance width="1000"/>
	<outline>
		<contour>
			<point x="656" y="-7" type="line"/>
			<point x="656" y="-11" type="line"/>
			<point x="660" y="-11" type="line"/>
		</contour>
		<contour>
			<point x="660" y="-11" type="line"/>
			<point x="734" y="-11" type="line"/>
			<point x="734" y="344" type="line"/>
			<point x="902" y="344" type="line"/>
			<point x="902" y="418" type="line"/>
			<point x="285" y="418" type="line"/>
			<point x="285" y="606" type="line"/>
			<point x="477" y="618"/>
			<point x="695" y="641"/>
			<point x="832" y="688" type="curve"/>
			<point x="785" y="754" type="line"/>
			<point x="652" y="708"/>
			<point x="410" y="680"/>
			<point x="211" y="668" type="curve"/>
			<point x="211" y="-11" type="line"/>
			<point x="285" y="-11" type="line"/>
			<point x="285" y="344" type="line"/>
			<point x="656" y="344" type="line"/>
			<point x="656" y="-7" type="line"/>
		</contour>
	</outline>
</glyph>
